SplineFontDB: 3.0
FontName: HelmetNeue-Regular
FullName: Helmet Neue Regular
FamilyName: Helmet Neue
Weight: Regular
Copyright: Copyright (c) 2019, Carl Enlund
Version: 1.000
ItalicAngle: 0
UnderlinePosition: -2
UnderlineWidth: 1
Ascent: 819
Descent: 205
InvalidEm: 0
sfntRevision: 0x00010000
LayerCount: 2
Layer: 0 0 "Back" 1
Layer: 1 0 "Fore" 0
XUID: [1021 569 -1075478531 11583]
StyleMap: 0x0040
FSType: 8
OS2Version: 3
OS2_WeightWidthSlopeOnly: 0
OS2_UseTypoMetrics: 0
CreationTime: 1569971741
ModificationTime: 1570200930
PfmFamily: 81
TTFWeight: 400
TTFWidth: 5
LineGap: 0
VLineGap: 0
Panose: 0 0 0 0 0 0 0 0 0 0
OS2TypoAscent: 860
OS2TypoAOffset: 0
OS2TypoDescent: -276
OS2TypoDOffset: 0
OS2TypoLinegap: 100
OS2WinAscent: 860
OS2WinAOffset: 0
OS2WinDescent: 276
OS2WinDOffset: 0
HheadAscent: 860
HheadAOffset: 0
HheadDescent: -276
HheadDOffset: 0
OS2SubXSize: 665
OS2SubYSize: 614
OS2SubXOff: 0
OS2SubYOff: 76
OS2SupXSize: 665
OS2SupYSize: 614
OS2SupXOff: 0
OS2SupYOff: 358
OS2StrikeYSize: 1
OS2StrikeYPos: 273
OS2CapHeight: 860
OS2XHeight: 456
OS2Vendor: 'Bird'
OS2CodePages: 003f00ff.dffd0000
OS2UnicodeRanges: 00000001.00000000.00000000.00000000
Lookup: 1 0 0 "'onum' Oldstyle Figures in Latin lookup 1" { "'onum' Oldstyle Figures in Latin lookup 1-1" ("oldstyle") } ['onum' ('DFLT' <'dflt' > 'latn' <'dflt' > ) ]
Lookup: 1 0 0 "'tnum' Tabular Numbers in Latin lookup 0" { "'tnum' Tabular Numbers in Latin lookup 0-1"  } ['tnum' ('DFLT' <'dflt' > 'latn' <'dflt' > ) ]
Lookup: 258 8 0 "'kern' Horizontal Kerning in Latin lookup 0" { "'kern' Horizontal Kerning in Latin lookup 0 subtable"  } ['kern' ('DFLT' <'dflt' > 'latn' <'dflt' > ) ]
Lookup: 258 8 0 "'kern' Horizontal Kerning in Latin lookup 1" { "'kern' Horizontal Kerning in Latin lookup 1 subtable"  } ['kern' ('DFLT' <'dflt' > 'latn' <'dflt' > ) ]
MarkAttachClasses: 3
"MarkClass-1" 15 uni0326 uni0327

StartChar: .notdef
Encoding: 65536 -1 0
Width: 543
Flags: W
LayerCount: 2
Fore
SplineSet
394 481 m 1
 148 481 l 1
 148 72 l 1
 394 72 l 1
 394 481 l 1
72 0 m 1
 72 553 l 1
 471 553 l 1
 471 0 l 1
 72 0 l 1
EndSplineSet
EndChar

StartChar: exclam
Encoding: 33 33 4
Width: 276
GlyphClass: 2
Flags: W
LayerCount: 2
Fore
SplineSet
205 59 m 0
 205 20 178 -5 138 -5 c 0
 99 -5 72 21 72 59 c 0
 72 97 99 123 138 123 c 0
 178 123 205 98 205 59 c 0
95 179 m 1
 84 553 l 1
 192 553 l 1
 182 179 l 1
 95 179 l 1
EndSplineSet
EndChar

StartChar: quotedbl
Encoding: 34 34 5
Width: 410
GlyphClass: 2
Flags: W
LayerCount: 2
Fore
SplineSet
256 348 m 1
 236 579 l 1
 353 579 l 1
 333 348 l 1
 256 348 l 1
77 348 m 1
 56 579 l 1
 174 579 l 1
 154 348 l 1
 77 348 l 1
EndSplineSet
EndChar

StartChar: numbersign
Encoding: 35 35 6
Width: 645
GlyphClass: 2
Flags: W
LayerCount: 2
Fore
SplineSet
271 343 m 1
 253 220 l 1
 381 220 l 1
 399 343 l 1
 271 343 l 1
594 415 m 1
 594 343 l 1
 477 343 l 1
 460 220 l 1
 594 220 l 1
 594 148 l 1
 449 148 l 1
 428 0 l 1
 349 0 l 1
 371 148 l 1
 242 148 l 1
 220 0 l 1
 141 0 l 1
 163 148 l 1
 51 148 l 1
 51 220 l 1
 173 220 l 1
 192 343 l 1
 51 343 l 1
 51 415 l 1
 202 415 l 1
 223 553 l 1
 302 553 l 1
 282 415 l 1
 410 415 l 1
 430 553 l 1
 507 553 l 1
 487 415 l 1
 594 415 l 1
EndSplineSet
EndChar

StartChar: dollar
Encoding: 36 36 7
Width: 573
GlyphClass: 2
Flags: W
AnchorPoint: "Anchor-4" 0 0 basechar 0
AnchorPoint: "Anchor-3" 0 0 basechar 0
AnchorPoint: "Anchor-2" 0 0 basechar 0
AnchorPoint: "Anchor-1" 287 860 basechar 0
AnchorPoint: "Anchor-0" 287 0 basechar 0
LayerCount: 2
Fore
SplineSet
310 70 m 1
 372 74 425 98 425 154 c 0
 425 185 402 202 369 214 c 0
 347 222 328 227 310 231 c 1
 310 70 l 1
164 399 m 0
 164 351 221 340 264 328 c 1
 264 483 l 1
 208 476 164 447 164 399 c 0
56 399 m 0
 56 506 171 559 264 565 c 1
 264 655 l 1
 310 655 l 1
 310 565 l 1
 374 561 436 537 481 490 c 0
 505 465 517 431 517 389 c 1
 410 389 l 1
 410 441 365 475 310 482 c 1
 310 320 l 1
 358 312 403 306 453 282 c 0
 509 255 532 213 532 159 c 0
 532 118 519 81 490 54 c 0
 445 9 376 -9 310 -12 c 1
 310 -102 l 1
 264 -102 l 1
 264 -12 l 1
 197 -8 126 13 83 59 c 0
 54 89 41 127 41 169 c 1
 148 169 l 1
 148 108 203 76 264 70 c 1
 264 239 l 1
 224 244 187 250 136 275 c 0
 86 299 56 340 56 399 c 0
EndSplineSet
EndChar

StartChar: percent
Encoding: 37 37 8
Width: 780
GlyphClass: 2
Flags: W
LayerCount: 2
Fore
SplineSet
669 149 m 0
 669 193 639 234 595 234 c 0
 548 234 520 191 520 149 c 0
 520 104 548 63 595 63 c 0
 643 63 669 106 669 149 c 0
738 149 m 0
 738 64 681 0 595 0 c 0
 506 0 451 66 451 149 c 0
 451 233 508 297 595 297 c 0
 683 297 738 230 738 149 c 0
111 404 m 0
 111 361 141 319 185 319 c 0
 228 319 259 360 259 404 c 0
 259 449 232 490 185 490 c 0
 136 490 111 448 111 404 c 0
594 553 m 1
 261 0 l 1
 188 0 l 1
 521 553 l 1
 594 553 l 1
41 404 m 0
 41 488 99 553 185 553 c 0
 273 553 329 485 329 404 c 0
 329 321 271 256 185 256 c 0
 96 256 41 322 41 404 c 0
EndSplineSet
EndChar

StartChar: ampersand
Encoding: 38 38 9
Width: 594
GlyphClass: 2
Flags: W
LayerCount: 2
Fore
SplineSet
213 254 m 1
 169.040039062 231.508789062 140.986328125 207.942382812 140.986328125 164.202148438 c 0
 140.986328125 99.455078125 194.556640625 70 255 70 c 0
 295 70 331 84 367 108 c 1
 213 254 l 1
247 341.000976562 m 1
 267 349.000976562 286 357.000976562 303 365.000976562 c 0
 329 378.000976562 342 397.000976562 342 424.000976562 c 0
 341 464.000976562 305 487.000976562 270 487.000976562 c 0
 230 487.000976562 198 461.000976562 198 423.000976562 c 0
 198 386.000976562 209 378.000976562 247 341.000976562 c 1
543 278.000976562 m 1
 543 222.000976562 518 157.000976562 483 111.000976562 c 1
 597 0.0009765625 l 1
 482 0.0009765625 l 1
 427 52.0009765625 l 1
 376 9.0009765625 319 -8.9990234375 251 -8.9990234375 c 2
 250 -8.9990234375 l 2
 132.018554688 -8.9990234375 43.9404296875 47.021484375 43.9404296875 161.469726562 c 0
 43.9404296875 234.96484375 92.3212890625 283.513671875 157.999023438 309.000976562 c 1
 130.999023438 340.000976562 l 2
 111.999023438 363.000976562 102.999023438 391.000976562 102.999023438 424.000976562 c 0
 102.999023438 515.000976562 178.999023438 566.000976562 266.999023438 566.000976562 c 0
 355.999023438 566.000976562 424.999023438 509.000976562 424.999023438 433.000976562 c 0
 425.071289062 430.98046875 425.107421875 428.985351562 425.107421875 427.016601562 c 0
 425.107421875 401.70703125 419.206054688 380.702148438 409 364.000976562 c 0
 386 327.000976562 343 302.000976562 301 286.000976562 c 1
 422 169.000976562 l 1
 442 202.000976562 454 241.000976562 454 278.000976562 c 1
 543 278.000976562 l 1
EndSplineSet
EndChar

StartChar: quotesingle
Encoding: 39 39 10
Width: 230
GlyphClass: 2
Flags: W
LayerCount: 2
Fore
SplineSet
77 348 m 1
 56 579 l 1
 174 579 l 1
 154 348 l 1
 77 348 l 1
EndSplineSet
EndChar

StartChar: parenleft
Encoding: 40 40 11
Width: 276
GlyphClass: 2
Flags: W
LayerCount: 2
Fore
SplineSet
264 645 m 1
 179 528 156 397 156 248 c 0
 156 96 181 -32 264 -148 c 1
 202 -148 l 1
 104 -66 69 94 69 248 c 0
 69 405 104 562 202 645 c 1
 264 645 l 1
EndSplineSet
EndChar

StartChar: parenright
Encoding: 41 41 12
Width: 277
GlyphClass: 2
Flags: W
LayerCount: 2
Fore
SplineSet
74 645 m 1
 172 563 207 402 207 248 c 0
 207 91 170 -69 74 -148 c 1
 13 -148 l 1
 96 -30 120 99 120 248 c 0
 120 400 96 528 13 645 c 1
 74 645 l 1
EndSplineSet
EndChar

StartChar: asterisk
Encoding: 42 42 13
Width: 504
GlyphClass: 2
Flags: W
LayerCount: 2
Fore
SplineSet
252 293 m 1
 169 172 l 1
 103 220 l 1
 191 335 l 1
 46 378 l 1
 71 456 l 1
 212 406 l 1
 208 553 l 1
 295 553 l 1
 291 406 l 1
 432 456 l 1
 458 378 l 1
 313 335 l 1
 401 220 l 1
 335 172 l 1
 252 293 l 1
EndSplineSet
EndChar

StartChar: plus
Encoding: 43 43 14
Width: 553
GlyphClass: 2
Flags: W
LayerCount: 2
Fore
SplineSet
233 468 m 1
 320 468 l 1
 320 297 l 1
 502 297 l 1
 502 220 l 1
 320 220 l 1
 320 38 l 1
 233 38 l 1
 233 220 l 1
 51 220 l 1
 51 297 l 1
 233 297 l 1
 233 468 l 1
EndSplineSet
EndChar

StartChar: comma
Encoding: 44 44 15
Width: 251
GlyphClass: 2
Flags: W
LayerCount: 2
Fore
SplineSet
46 -108 m 1
 87 123 l 1
 205 123 l 1
 123 -108 l 1
 46 -108 l 1
EndSplineSet
EndChar

StartChar: hyphen
Encoding: 45 45 16
Width: 400
GlyphClass: 2
Flags: W
LayerCount: 2
Fore
SplineSet
348 305 m 1
 348 223 l 1
 51 223 l 1
 51 305 l 1
 348 305 l 1
EndSplineSet
EndChar

StartChar: period
Encoding: 46 46 17
Width: 246
GlyphClass: 2
Flags: W
LayerCount: 2
Fore
SplineSet
123 -5 m 0
 80 -5 56 23 56 59 c 0
 56 98 83 123 123 123 c 0
 166 123 189 96 189 59 c 0
 189 19 163 -5 123 -5 c 0
EndSplineSet
EndChar

StartChar: slash
Encoding: 47 47 18
Width: 378
GlyphClass: 2
Flags: W
LayerCount: 2
Fore
SplineSet
20 -61 m 1
 269 553 l 1
 353 553 l 1
 105 -61 l 1
 20 -61 l 1
EndSplineSet
EndChar

StartChar: zero
Encoding: 48 48 19
Width: 583
GlyphClass: 2
Flags: W
LayerCount: 2
Fore
SplineSet
435 274 m 0
 435 387 387 479 292 479 c 0
 195 479 148 383 148 274 c 0
 148 165 193 69 292 69 c 0
 390 69 435 163 435 274 c 0
292 -10 m 0
 126 -10 44 109 44 274 c 0
 44 442 129 563 292 563 c 0
 457 563 540 438 540 274 c 0
 540 107 455 -10 292 -10 c 0
EndSplineSet
Substitution2: "'onum' Oldstyle Figures in Latin lookup 1-1" zero.osf
Substitution2: "'tnum' Tabular Numbers in Latin lookup 0-1" zero.tf
EndChar

StartChar: one
Encoding: 49 49 20
Width: 379
GlyphClass: 2
Flags: W
LayerCount: 2
Fore
SplineSet
200 553 m 1
 302 553 l 1
 302 0 l 1
 200 0 l 1
 200 461 l 1
 132 416 97 397 31 369 c 1
 31 461 l 1
 100 491 128 507 200 553 c 1
EndSplineSet
Substitution2: "'onum' Oldstyle Figures in Latin lookup 1-1" one.osf
Substitution2: "'tnum' Tabular Numbers in Latin lookup 0-1" one.tf
EndChar

StartChar: two
Encoding: 50 50 21
Width: 517
GlyphClass: 2
Flags: W
LayerCount: 2
Fore
SplineSet
41 369 m 1
 41 491 143 566 259 566 c 0
 378 566 476 504 476 389 c 0
 476 286 394 226 287 170 c 0
 242 148 193 116 171 82 c 1
 476 82 l 1
 476 0 l 1
 51 0 l 1
 52 28 l 2
 52 135 125 183 247 253 c 0
 320 295 369 331 369 389 c 0
 369 448 324 484 259 484 c 0
 188 484 148 433 148 369 c 1
 41 369 l 1
EndSplineSet
Substitution2: "'onum' Oldstyle Figures in Latin lookup 1-1" two.osf
Substitution2: "'tnum' Tabular Numbers in Latin lookup 0-1" two.tf
EndChar

StartChar: three
Encoding: 51 51 22
Width: 517
GlyphClass: 2
Flags: W
LayerCount: 2
Fore
SplineSet
259 69 m 0
 324 69 368 102 369 156 c 0
 369 218 307 246 248 246 c 2
 202 246 l 1
 202 325 l 1
 253 325 l 2
 314 325 356 352 356 402 c 0
 356 454 318 484 259 484 c 0
 191 484 151 445 151 387 c 1
 44 387 l 1
 44 501 146 566 259 566 c 0
 365 566 463 510 463 407 c 0
 463 346 427 308 376 284 c 1
 442 253 476 214 476 154 c 0
 476 44 367 -13 259 -13 c 0
 139 -13 41 55 41 174 c 1
 148 174 l 1
 148 104 195 69 259 69 c 0
EndSplineSet
Substitution2: "'onum' Oldstyle Figures in Latin lookup 1-1" three.osf
Substitution2: "'tnum' Tabular Numbers in Latin lookup 0-1" three.tf
EndChar

StartChar: four
Encoding: 52 52 23
Width: 545
GlyphClass: 2
Flags: W
LayerCount: 2
Fore
SplineSet
335 195 m 1
 335 443 l 1
 141 195 l 1
 335 195 l 1
36 192 m 1
 317 553 l 1
 438 553 l 1
 438 195 l 1
 509 195 l 1
 509 118 l 1
 438 118 l 1
 438 0 l 1
 335 0 l 1
 335 118 l 1
 36 118 l 1
 36 192 l 1
EndSplineSet
Substitution2: "'onum' Oldstyle Figures in Latin lookup 1-1" four.osf
Substitution2: "'tnum' Tabular Numbers in Latin lookup 0-1" four.tf
EndChar

StartChar: five
Encoding: 53 53 24
Width: 517
GlyphClass: 2
Flags: W
LayerCount: 2
Fore
SplineSet
259 69 m 0
 326 69 369 116 369 174 c 0
 369 234 323 282 259 282 c 0
 217 282 186 269 161 246 c 1
 69 278 l 1
 108 553 l 1
 445 553 l 1
 445 471 l 1
 193 471 l 1
 174 340 l 1
 208 358 238 364 278 364 c 0
 392 364 476 293 476 178 c 2
 476 177 l 2
 476 59 374 -13 259 -13 c 0
 140 -13 41 64 41 184 c 1
 148 184 l 1
 148 118 190 69 259 69 c 0
EndSplineSet
Substitution2: "'onum' Oldstyle Figures in Latin lookup 1-1" five.osf
Substitution2: "'tnum' Tabular Numbers in Latin lookup 0-1" five.tf
EndChar

StartChar: six
Encoding: 54 54 25
Width: 533
GlyphClass: 2
Flags: W
LayerCount: 2
Fore
SplineSet
270 69 m 0
 335 69 379 116 379 174 c 0
 379 240 329 282 269 282 c 0
 205 282 159 238 159 174 c 0
 159 114 207 69 270 69 c 0
151 296 m 1
 184 344 230.000976562 363.999023438 290.000976562 363.999023438 c 0
 400.000976562 363.999023438 486.000976562 289.999023438 486.000976562 177.999023438 c 2
 486.000976562 176.999023438 l 2
 486.000976562 61.9990234375 390.000976562 -13.0009765625 282.000976562 -13.0009765625 c 0
 115.000976562 -13.0009765625 46.0009765625 104.999023438 46.0009765625 275.999023438 c 0
 46.0009765625 449.999023438 112.000976562 565.999023438 274.000976562 565.999023438 c 0
 383.000976562 565.999023438 476.000976562 497.999023438 476.000976562 403.999023438 c 1
 369.000976562 403.999023438 l 1
 369.000976562 450.999023438 329.000976562 483.999023438 275.000976562 483.999023438 c 0
 180.650390625 483.999023438 150.787109375 403.162109375 150.787109375 309.873046875 c 0
 150.787109375 305.276367188 150.859375 300.649414062 151 296 c 1
EndSplineSet
Substitution2: "'onum' Oldstyle Figures in Latin lookup 1-1" six.osf
Substitution2: "'tnum' Tabular Numbers in Latin lookup 0-1" six.tf
EndChar

StartChar: seven
Encoding: 55 55 26
Width: 492
GlyphClass: 2
Flags: W
LayerCount: 2
Fore
SplineSet
23 471 m 1
 23 553 l 1
 468 553 l 1
 468 492 l 1
 346 337 249 171 220 0 c 1
 113 0 l 1
 144 168 232 325 345 471 c 1
 23 471 l 1
EndSplineSet
Substitution2: "'onum' Oldstyle Figures in Latin lookup 1-1" seven.osf
Substitution2: "'tnum' Tabular Numbers in Latin lookup 0-1" seven.tf
EndChar

StartChar: eight
Encoding: 56 56 27
Width: 536
GlyphClass: 2
Flags: W
LayerCount: 2
Fore
SplineSet
268 69 m 0
 334 69 383 105 383 158 c 0
 383 221 327 251 268 251 c 0
 207 251 154 218 154 158 c 0
 154 102 204 69 268 69 c 0
268 320 m 0
 327 320 366 355 366 404 c 0
 366 453 323 484 268 484 c 0
 211 484 171 450 171 404 c 0
 171 354 213 320 268 320 c 0
381 285 m 1
 450 256 491 215 491 154 c 0
 491 43 379 -13 268 -13 c 0
 155 -13 46 44 46 154 c 0
 46 217 90 258 156 286 c 1
 95 310 67 349 67 407 c 0
 67 513 161 566 268 566 c 0
 378 566 471 513 471 407 c 0
 471 349 437 307 381 285 c 1
EndSplineSet
Substitution2: "'onum' Oldstyle Figures in Latin lookup 1-1" eight
Substitution2: "'tnum' Tabular Numbers in Latin lookup 0-1" eight.tf
EndChar

StartChar: nine
Encoding: 57 57 28
Width: 533
GlyphClass: 2
Flags: W
LayerCount: 2
Fore
SplineSet
263 484 m 0
 199 484 153 435 153 379 c 0
 153 313 203 271 263 271 c 0
 327 271 373 315 373 379 c 0
 373 437 325 484 263 484 c 0
382 257 m 1
 348 207 298.999023438 189 242.999023438 189 c 0
 133.999023438 189 45.9990234375 264 45.9990234375 375 c 2
 45.9990234375 376 l 2
 45.9990234375 489 143.999023438 566 250.999023438 566 c 0
 416.999023438 566 485.999023438 447 485.999023438 276 c 0
 485.999023438 104 420.999023438 -13 258.999023438 -13 c 0
 133.999023438 -13 55.9990234375 55 55.9990234375 148 c 1
 163.999023438 148 l 1
 163.999023438 101 204.999023438 69 257.999023438 69 c 0
 351.48046875 69 382.0234375 147.430664062 382.0234375 251.887695312 c 0
 382.0234375 253.584960938 382.015625 255.2890625 382 257 c 1
EndSplineSet
Substitution2: "'onum' Oldstyle Figures in Latin lookup 1-1" nine.osf
Substitution2: "'tnum' Tabular Numbers in Latin lookup 0-1" nine.tf
EndChar

StartChar: colon
Encoding: 58 58 29
Width: 267
GlyphClass: 2
Flags: W
LayerCount: 2
Fore
SplineSet
133 -5 m 0
 90 -5 67 22 67 59 c 0
 67 99 93 123 133 123 c 0
 176 123 200 95 200 59 c 0
 200 20 173 -5 133 -5 c 0
133 333 m 0
 90 333 67 360 67 397 c 0
 67 437 93 461 133 461 c 0
 176 461 200 433 200 397 c 0
 200 358 173 333 133 333 c 0
EndSplineSet
EndChar

StartChar: semicolon
Encoding: 59 59 30
Width: 268
GlyphClass: 2
Flags: W
LayerCount: 2
Fore
SplineSet
54 -108 m 1
 95 123 l 1
 212 123 l 1
 131 -108 l 1
 54 -108 l 1
146 333 m 0
 103 333 79 361 79 397 c 0
 79 436 106 461 146 461 c 0
 189 461 212 434 212 397 c 0
 212 357 186 333 146 333 c 0
EndSplineSet
EndChar

StartChar: less
Encoding: 60 60 31
Width: 510
GlyphClass: 2
Flags: W
LayerCount: 2
Fore
SplineSet
38 297 m 1
 458 476 l 1
 458 389 l 1
 134 259 l 1
 458 128 l 1
 458 41 l 1
 38 220 l 1
 38 297 l 1
EndSplineSet
EndChar

StartChar: equal
Encoding: 61 61 32
Width: 583
GlyphClass: 2
Flags: W
LayerCount: 2
Fore
SplineSet
67 108 m 1
 67 184 l 1
 517 184 l 1
 517 108 l 1
 67 108 l 1
67 333 m 1
 67 410 l 1
 517 410 l 1
 517 333 l 1
 67 333 l 1
EndSplineSet
EndChar

StartChar: greater
Encoding: 62 62 33
Width: 509
GlyphClass: 2
Flags: W
LayerCount: 2
Fore
SplineSet
375 258 m 1
 51 389 l 1
 51 476 l 1
 471 297 l 1
 471 220 l 1
 51 41 l 1
 51 128 l 1
 375 258 l 1
EndSplineSet
EndChar

StartChar: question
Encoding: 63 63 34
Width: 494
GlyphClass: 2
Flags: W
LayerCount: 2
Fore
SplineSet
246 -5 m 0
 203 -5 179 23 179 59 c 0
 179 98 206 123 246 123 c 0
 288 123 312 95 312 59 c 0
 312 21 285 -5 246 -5 c 0
33 389 m 1
 33 503 135 566 246 566 c 0
 361 566 461 513 461 402 c 0
 461 295 369 285 321 234 c 0
 306 218 300 202 300 179 c 1
 192 179 l 1
 192 231 214 275 258 301 c 0
 291 320 322 338 340 358 c 0
 349 368 353 381 353 397 c 0
 353 455 308 484 246 484 c 0
 182 484 141 445 141 389 c 1
 33 389 l 1
EndSplineSet
EndChar

StartChar: at
Encoding: 64 64 35
Width: 915
GlyphClass: 2
Flags: W
LayerCount: 2
Fore
SplineSet
468 347 m 0
 382 347 333 268 333 183 c 0
 333 106 371 60 440 60 c 0
 527 60 578 138 578 225 c 0
 578 297 539 347 468 347 c 0
460 420 m 0
 534 420 567 397 595 347 c 1
 604 401 l 1
 686 401 l 1
 657 116 l 2
 656 111 656 106 656 102 c 0
 656 74 670 60 694 60 c 0
 767 60 797 174 797 270 c 0
 797 440 666 553 502 553 c 0
 289 553 123 383 123 179 c 0
 123 -9 269 -132 462 -132 c 0
 536 -132 559 -128 629 -108 c 1
 629 -164 l 1
 552 -187 521 -193 463 -193 c 0
 227 -193 51 -45 51 179 c 0
 51 430 248 620 492 620 c 0
 702 620 869 484 869 275 c 0
 869 128 805 1 676 1 c 0
 627 1 582 27 573 72 c 1
 538 13 488 -10 417 -10 c 0
 299 -10 243 69 243 179 c 0
 243 314 330 420 460 420 c 0
EndSplineSet
EndChar

StartChar: A
Encoding: 65 65 36
Width: 655
GlyphClass: 2
Flags: W
AnchorPoint: "Anchor-9" 0 0 basechar 0
AnchorPoint: "Anchor-8" 0 0 basechar 0
AnchorPoint: "Anchor-7" 328 860 basechar 0
AnchorPoint: "Anchor-6" 640 10 basechar 0
AnchorPoint: "Anchor-5" 328 0 basechar 0
LayerCount: 2
Fore
SplineSet
326 450 m 1
 210 198 l 1
 440 198 l 1
 326 450 l 1
376 553 m 1
 643 0 l 1
 529 0 l 1
 474 121 l 1
 175 121 l 1
 120 0 l 1
 13 0 l 1
 279 553 l 1
 376 553 l 1
EndSplineSet
EndChar

StartChar: B
Encoding: 66 66 37
Width: 607
GlyphClass: 2
Flags: W
AnchorPoint: "Anchor-9" 0 0 basechar 0
AnchorPoint: "Anchor-8" 0 0 basechar 0
AnchorPoint: "Anchor-7" 304 860 basechar 0
AnchorPoint: "Anchor-6" 0 0 basechar 0
AnchorPoint: "Anchor-5" 304 0 basechar 0
LayerCount: 2
Fore
SplineSet
174 243 m 1
 174 82 l 1
 348 82 l 2
 420 82 461 102 461 160 c 0
 461 223 412 243 348 243 c 2
 174 243 l 1
174 471 m 1
 174 320 l 1
 333 320 l 2
 397 320 435 345 435 395 c 0
 435 448 394 471 333 471 c 2
 174 471 l 1
568 159 m 0
 568 41 468 0 343 0 c 2
 72 0 l 1
 72 553 l 1
 333 553 l 2
 456 553 543 499 543 394 c 0
 543 347 517 309 472 284 c 1
 532 259 568 219 568 159 c 0
EndSplineSet
EndChar

StartChar: C
Encoding: 67 67 38
Width: 637
GlyphClass: 2
Flags: W
AnchorPoint: "Anchor-9" 0 0 basechar 0
AnchorPoint: "Anchor-8" 0 0 basechar 0
AnchorPoint: "Anchor-7" 335 860 basechar 0
AnchorPoint: "Anchor-6" 0 0 basechar 0
AnchorPoint: "Anchor-5" 335 0 basechar 0
LayerCount: 2
Fore
SplineSet
504 358 m 1
 479 433 416 484 335 484 c 0
 223 484 148 396 148 276 c 0
 148 155 225 69 335 69 c 0
 418 69 480 122 504 195 c 1
 607 195 l 1
 574 66 472 -15 335 -15 c 0
 160 -15 41 109 41 276 c 0
 41 445 161 568 335 568 c 0
 475 568 575 485 607 358 c 1
 504 358 l 1
EndSplineSet
EndChar

StartChar: D
Encoding: 68 68 39
Width: 663
GlyphClass: 2
Flags: W
AnchorPoint: "Anchor-9" 0 0 basechar 0
AnchorPoint: "Anchor-8" 156 276 basechar 0
AnchorPoint: "Anchor-7" 332 860 basechar 0
AnchorPoint: "Anchor-6" 0 0 basechar 0
AnchorPoint: "Anchor-5" 332 0 basechar 0
LayerCount: 2
Fore
SplineSet
517 276 m 0
 517 331 499 377 463 415 c 0
 428 452 374 471 302 471 c 2
 174 471 l 1
 174 82 l 1
 302 82 l 2
 374 82 428 101 463 138 c 0
 499 176 517 222 517 276 c 0
72 0 m 1
 72 553 l 1
 302 553 l 2
 408 553 488 526 541 471 c 0
 595 416 622 351 622 276 c 0
 622 201 595 137 541 82 c 0
 488 27 408 0 302 0 c 2
 72 0 l 1
EndSplineSet
EndChar

StartChar: E
Encoding: 69 69 40
Width: 569
GlyphClass: 2
Flags: W
AnchorPoint: "Anchor-9" 0 0 basechar 0
AnchorPoint: "Anchor-8" 0 0 basechar 0
AnchorPoint: "Anchor-7" 285 860 basechar 0
AnchorPoint: "Anchor-6" 395 10 basechar 0
AnchorPoint: "Anchor-5" 285 0 basechar 0
LayerCount: 2
Fore
SplineSet
72 553 m 1
 522 553 l 1
 522 471 l 1
 174 471 l 1
 174 323 l 1
 486 323 l 1
 486 241 l 1
 174 241 l 1
 174 82 l 1
 522 82 l 1
 522 0 l 1
 72 0 l 1
 72 553 l 1
EndSplineSet
EndChar

StartChar: F
Encoding: 70 70 41
Width: 561
GlyphClass: 2
Flags: W
AnchorPoint: "Anchor-9" 0 0 basechar 0
AnchorPoint: "Anchor-8" 0 0 basechar 0
AnchorPoint: "Anchor-7" 281 860 basechar 0
AnchorPoint: "Anchor-6" 0 0 basechar 0
AnchorPoint: "Anchor-5" 281 0 basechar 0
LayerCount: 2
Fore
SplineSet
72 553 m 1
 522 553 l 1
 522 471 l 1
 174 471 l 1
 174 307 l 1
 486 307 l 1
 486 225 l 1
 174 225 l 1
 174 0 l 1
 72 0 l 1
 72 553 l 1
EndSplineSet
EndChar

StartChar: G
Encoding: 71 71 42
Width: 661
GlyphClass: 2
Flags: W
AnchorPoint: "Anchor-9" 0 0 basechar 0
AnchorPoint: "Anchor-8" 0 0 basechar 0
AnchorPoint: "Anchor-7" 331 860 basechar 0
AnchorPoint: "Anchor-6" 0 0 basechar 0
AnchorPoint: "Anchor-5" 331 0 basechar 0
LayerCount: 2
Fore
SplineSet
498 379 m 1
 480 447 416 483 336 484 c 0
 221 484 148 397 148 276 c 0
 148 155 229 69 339 69 c 0
 436 69 504 128 521 215 c 1
 324 215 l 1
 324 292 l 1
 605 292 l 1
 605 0 l 1
 529 0 l 1
 527 13 525 37 523 70 c 1
 518 64 l 2
 477 11 416 -15 336 -15 c 0
 161 -15 41 110 41 276 c 0
 41 445 161 568 334 568 c 0
 407 568 467 549 514 511 c 0
 561 473 589 429 598 379 c 1
 498 379 l 1
EndSplineSet
EndChar

StartChar: H
Encoding: 72 72 43
Width: 696
GlyphClass: 2
Flags: W
AnchorPoint: "Anchor-9" 0 0 basechar 0
AnchorPoint: "Anchor-8" 348 430 basechar 0
AnchorPoint: "Anchor-7" 348 860 basechar 0
AnchorPoint: "Anchor-6" 0 0 basechar 0
AnchorPoint: "Anchor-5" 348 0 basechar 0
LayerCount: 2
Fore
SplineSet
72 553 m 1
 174 553 l 1
 174 323 l 1
 522 323 l 1
 522 553 l 1
 625 553 l 1
 625 0 l 1
 522 0 l 1
 522 241 l 1
 174 241 l 1
 174 0 l 1
 72 0 l 1
 72 553 l 1
EndSplineSet
EndChar

StartChar: I
Encoding: 73 73 44
Width: 256
GlyphClass: 2
Flags: W
AnchorPoint: "Anchor-9" 0 0 basechar 0
AnchorPoint: "Anchor-8" 0 0 basechar 0
AnchorPoint: "Anchor-7" 128 860 basechar 0
AnchorPoint: "Anchor-6" 179 10 basechar 0
AnchorPoint: "Anchor-5" 128 0 basechar 0
LayerCount: 2
Fore
SplineSet
77 553 m 1
 179 553 l 1
 179 0 l 1
 77 0 l 1
 77 553 l 1
EndSplineSet
EndChar

StartChar: J
Encoding: 74 74 45
Width: 520
GlyphClass: 2
Flags: W
AnchorPoint: "Anchor-9" 0 0 basechar 0
AnchorPoint: "Anchor-8" 0 0 basechar 0
AnchorPoint: "Anchor-7" 260 860 basechar 0
AnchorPoint: "Anchor-6" 0 0 basechar 0
AnchorPoint: "Anchor-5" 260 0 basechar 0
LayerCount: 2
Fore
SplineSet
125 184 m 1
 125 113 171 72 239 72 c 0
 270 72 296 82 318 102 c 0
 340 122 351 156 351 205 c 2
 351 553 l 1
 453 553 l 1
 453 205 l 2
 453 128 432 73 390 40 c 0
 349 7 298 -10 238 -10 c 0
 180 -10 131 5 90 36 c 0
 49 67 28 116 28 184 c 1
 125 184 l 1
EndSplineSet
EndChar

StartChar: K
Encoding: 75 75 46
Width: 640
GlyphClass: 2
Flags: W
AnchorPoint: "Anchor-9" 0 0 basechar 0
AnchorPoint: "Anchor-8" 0 0 basechar 0
AnchorPoint: "Anchor-7" 320 860 basechar 0
AnchorPoint: "Anchor-6" 0 0 basechar 0
AnchorPoint: "Anchor-5" 320 0 basechar 0
LayerCount: 2
Fore
SplineSet
374 346 m 1
 630 0 l 1
 504 0 l 1
 300 279 l 1
 174 165 l 1
 174 0 l 1
 72 0 l 1
 72 553 l 1
 174 553 l 1
 174 286 l 1
 471 553 l 1
 602 553 l 1
 374 346 l 1
EndSplineSet
EndChar

StartChar: L
Encoding: 76 76 47
Width: 523
GlyphClass: 2
Flags: W
AnchorPoint: "Anchor-9" 503 860 basechar 0
AnchorPoint: "Anchor-8" 121 329 basechar 0
AnchorPoint: "Anchor-7" 262 860 basechar 0
AnchorPoint: "Anchor-6" 0 0 basechar 0
AnchorPoint: "Anchor-5" 262 0 basechar 0
LayerCount: 2
Fore
SplineSet
492 82 m 1
 492 0 l 1
 72 0 l 1
 72 553 l 1
 174 553 l 1
 174 82 l 1
 492 82 l 1
EndSplineSet
EndChar

StartChar: M
Encoding: 77 77 48
Width: 819
GlyphClass: 2
Flags: W
AnchorPoint: "Anchor-9" 0 0 basechar 0
AnchorPoint: "Anchor-8" 0 0 basechar 0
AnchorPoint: "Anchor-7" 410 860 basechar 0
AnchorPoint: "Anchor-6" 0 0 basechar 0
AnchorPoint: "Anchor-5" 410 0 basechar 0
LayerCount: 2
Fore
SplineSet
645 213 m 1
 651 453 l 1
 456 0 l 1
 370 0 l 1
 168 453 l 1
 174 213 l 1
 174 0 l 1
 72 0 l 1
 72 553 l 1
 226 553 l 1
 413 112 l 1
 595 553 l 1
 748 553 l 1
 748 0 l 1
 645 0 l 1
 645 213 l 1
EndSplineSet
EndChar

StartChar: N
Encoding: 78 78 49
Width: 696
GlyphClass: 2
Flags: W
AnchorPoint: "Anchor-9" 0 0 basechar 0
AnchorPoint: "Anchor-8" 0 0 basechar 0
AnchorPoint: "Anchor-7" 348 860 basechar 0
AnchorPoint: "Anchor-6" 0 0 basechar 0
AnchorPoint: "Anchor-5" 348 0 basechar 0
LayerCount: 2
Fore
SplineSet
72 553 m 1
 189 553 l 1
 522 123 l 1
 522 553 l 1
 625 553 l 1
 625 0 l 1
 507 0 l 1
 174 430 l 1
 174 0 l 1
 72 0 l 1
 72 553 l 1
EndSplineSet
EndChar

StartChar: O
Encoding: 79 79 50
Width: 671
GlyphClass: 2
Flags: W
AnchorPoint: "Anchor-9" 651 860 basechar 0
AnchorPoint: "Anchor-8" 336 277 basechar 0
AnchorPoint: "Anchor-7" 336 860 basechar 0
AnchorPoint: "Anchor-6" 419 10 basechar 0
AnchorPoint: "Anchor-5" 336 0 basechar 0
LayerCount: 2
Fore
SplineSet
522 276 m 0
 522 399 447 484 335 484 c 0
 223 484 148 396 148 276 c 0
 148 155 225 69 335 69 c 0
 448 69 522 156 522 276 c 0
335 -15 m 0
 160 -15 41 109 41 276 c 0
 41 445 161 568 335 568 c 0
 512 568 630 444 630 276 c 0
 630 107 509 -15 335 -15 c 0
EndSplineSet
EndChar

StartChar: P
Encoding: 80 80 51
Width: 612
GlyphClass: 2
Flags: W
AnchorPoint: "Anchor-9" 0 0 basechar 0
AnchorPoint: "Anchor-8" 0 0 basechar 0
AnchorPoint: "Anchor-7" 306 860 basechar 0
AnchorPoint: "Anchor-6" 0 0 basechar 0
AnchorPoint: "Anchor-5" 306 0 basechar 0
LayerCount: 2
Fore
SplineSet
353 287 m 2
 426 287 471 308 471 379 c 0
 471 450 426 471 353 471 c 2
 174 471 l 1
 174 287 l 1
 353 287 l 2
579 379 m 2
 577 259 483 205 353 205 c 2
 174 205 l 1
 174 0 l 1
 72 0 l 1
 72 553 l 1
 353 553 l 2
 481 553 579 500 579 380 c 2
 579 379 l 2
EndSplineSet
EndChar

StartChar: Q
Encoding: 81 81 52
Width: 666
GlyphClass: 2
Flags: W
AnchorPoint: "Anchor-9" 0 0 basechar 0
AnchorPoint: "Anchor-8" 0 0 basechar 0
AnchorPoint: "Anchor-7" 333 860 basechar 0
AnchorPoint: "Anchor-6" 0 0 basechar 0
AnchorPoint: "Anchor-5" 333 0 basechar 0
LayerCount: 2
Fore
SplineSet
148 276 m 0
 148 160 219 72 333 72 c 0
 366 72 395 79 421 93 c 1
 336 178 l 1
 388 230 l 1
 477 141 l 1
 504 177 517 222 517 276 c 0
 517 394 447 481 333 481 c 0
 219 481 148 393 148 276 c 0
333 -13 m 0
 244 -13 173 15 120 70 c 0
 67 126 41 195 41 276 c 0
 41 358 67 427 120 483 c 0
 173 538 244 566 333 566 c 0
 422 566 492 538 545 483 c 0
 598 427 625 358 625 276 c 0
 625 195 599 127 547 72 c 1
 598 20 l 1
 546 -32 l 1
 488 25 l 1
 445 0 393 -13 333 -13 c 0
EndSplineSet
EndChar

StartChar: R
Encoding: 82 82 53
Width: 617
GlyphClass: 2
Flags: W
AnchorPoint: "Anchor-9" 0 0 basechar 0
AnchorPoint: "Anchor-8" 0 0 basechar 0
AnchorPoint: "Anchor-7" 309 860 basechar 0
AnchorPoint: "Anchor-6" 0 0 basechar 0
AnchorPoint: "Anchor-5" 309 0 basechar 0
LayerCount: 2
Fore
SplineSet
338 297 m 2
 407 297 456 318 456 384 c 0
 456 450 407 471 338 471 c 2
 174 471 l 1
 174 297 l 1
 338 297 l 2
338 553 m 2
 465 553 563 502 563 384 c 0
 563 333 544 292 506 261 c 0
 484 243 455 231 420 223 c 1
 589 0 l 1
 466 0 l 1
 308 215 l 1
 174 215 l 1
 174 0 l 1
 72 0 l 1
 72 553 l 1
 338 553 l 2
EndSplineSet
EndChar

StartChar: S
Encoding: 83 83 54
Width: 573
GlyphClass: 2
Flags: W
AnchorPoint: "Anchor-9" 0 0 basechar 0
AnchorPoint: "Anchor-8" 0 0 basechar 0
AnchorPoint: "Anchor-7" 287 860 basechar 0
AnchorPoint: "Anchor-6" 0 0 basechar 0
AnchorPoint: "Anchor-5" 287 0 basechar 0
LayerCount: 2
Fore
SplineSet
56 399 m 0
 56 514 186 566 287 566 c 0
 359 566 431 543 481 490 c 0
 505 465 517 431 517 389 c 1
 410 389 l 1
 410 448 352 484 287 484 c 0
 220 484 164 453 164 399 c 0
 164 369 186 351 219 341 c 0
 307 311 373 321 453 282 c 0
 509 255 532 213 532 159 c 0
 532 118 519 81 490 54 c 0
 440 4 359 -13 287 -13 c 0
 214 -13 131 8 83 59 c 0
 54 89 41 127 41 169 c 1
 148 169 l 1
 148 100 218 69 287 69 c 0
 359 69 425 91 425 154 c 0
 425 185 402 202 369 214 c 0
 277 248 227 230 136 275 c 0
 86 299 56 340 56 399 c 0
EndSplineSet
EndChar

StartChar: T
Encoding: 84 84 55
Width: 589
GlyphClass: 2
Flags: W
AnchorPoint: "Anchor-9" 0 0 basechar 0
AnchorPoint: "Anchor-8" 295 280 basechar 0
AnchorPoint: "Anchor-7" 295 860 basechar 0
AnchorPoint: "Anchor-6" 0 0 basechar 0
AnchorPoint: "Anchor-5" 305 0 basechar 0
LayerCount: 2
Fore
SplineSet
243 471 m 1
 23 471 l 1
 23 553 l 1
 566 553 l 1
 566 471 l 1
 346 471 l 1
 346 0 l 1
 243 0 l 1
 243 471 l 1
EndSplineSet
EndChar

StartChar: U
Encoding: 85 85 56
Width: 666
GlyphClass: 2
Flags: W
AnchorPoint: "Anchor-9" 646 860 basechar 0
AnchorPoint: "Anchor-8" 0 0 basechar 0
AnchorPoint: "Anchor-7" 334 860 basechar 0
AnchorPoint: "Anchor-6" 403 10 basechar 0
AnchorPoint: "Anchor-5" 333 0 basechar 0
LayerCount: 2
Fore
SplineSet
334 -13 m 0
 165 -13 67 90 67 282 c 2
 67 553 l 1
 169 553 l 1
 169 282 l 2
 169 155 225 72 334 72 c 0
 445 72 497 155 497 282 c 2
 497 553 l 1
 599 553 l 1
 599 282 l 2
 599 90 501 -13 334 -13 c 0
EndSplineSet
EndChar

StartChar: V
Encoding: 86 86 57
Width: 660
GlyphClass: 2
Flags: W
AnchorPoint: "Anchor-9" 0 0 basechar 0
AnchorPoint: "Anchor-8" 0 0 basechar 0
AnchorPoint: "Anchor-7" 330 860 basechar 0
AnchorPoint: "Anchor-6" 0 0 basechar 0
AnchorPoint: "Anchor-5" 330 0 basechar 0
LayerCount: 2
Fore
SplineSet
648 553 m 1
 381 0 l 1
 279 0 l 1
 13 553 l 1
 128 553 l 1
 332 103 l 1
 538 553 l 1
 648 553 l 1
EndSplineSet
EndChar

StartChar: W
Encoding: 87 87 58
Width: 820
GlyphClass: 2
Flags: W
AnchorPoint: "Anchor-9" 0 0 basechar 0
AnchorPoint: "Anchor-8" 0 0 basechar 0
AnchorPoint: "Anchor-7" 410 860 basechar 0
AnchorPoint: "Anchor-6" 0 0 basechar 0
AnchorPoint: "Anchor-5" 410 0 basechar 0
LayerCount: 2
Fore
SplineSet
806 553 m 1
 648 0 l 1
 540 0 l 1
 410 414 l 1
 279 0 l 1
 177 0 l 1
 13 553 l 1
 126 553 l 1
 234 148 l 1
 366 553 l 1
 458 553 l 1
 592 140 l 1
 699 553 l 1
 806 553 l 1
EndSplineSet
EndChar

StartChar: X
Encoding: 88 88 59
Width: 583
GlyphClass: 2
Flags: W
AnchorPoint: "Anchor-9" 0 0 basechar 0
AnchorPoint: "Anchor-8" 0 0 basechar 0
AnchorPoint: "Anchor-7" 292 860 basechar 0
AnchorPoint: "Anchor-6" 0 0 basechar 0
AnchorPoint: "Anchor-5" 292 0 basechar 0
LayerCount: 2
Fore
SplineSet
292 345 m 1
 440 553 l 1
 558 553 l 1
 362 282 l 1
 568 0 l 1
 451 0 l 1
 292 220 l 1
 133 0 l 1
 15 0 l 1
 50 48 119 141 222 282 c 1
 26 553 l 1
 143 553 l 1
 292 345 l 1
EndSplineSet
EndChar

StartChar: Y
Encoding: 89 89 60
Width: 590
GlyphClass: 2
Flags: W
AnchorPoint: "Anchor-9" 0 0 basechar 0
AnchorPoint: "Anchor-8" 0 0 basechar 0
AnchorPoint: "Anchor-7" 295 860 basechar 0
AnchorPoint: "Anchor-6" 0 0 basechar 0
AnchorPoint: "Anchor-5" 295 0 basechar 0
LayerCount: 2
Fore
SplineSet
244 208 m 1
 15 553 l 1
 139 553 l 1
 296 297 l 1
 456 553 l 1
 574 553 l 1
 346 210 l 1
 346 0 l 1
 244 0 l 1
 244 208 l 1
EndSplineSet
EndChar

StartChar: Z
Encoding: 90 90 61
Width: 553
GlyphClass: 2
Flags: W
AnchorPoint: "Anchor-9" 0 0 basechar 0
AnchorPoint: "Anchor-8" 0 0 basechar 0
AnchorPoint: "Anchor-7" 277 860 basechar 0
AnchorPoint: "Anchor-6" 0 0 basechar 0
AnchorPoint: "Anchor-5" 277 0 basechar 0
LayerCount: 2
Fore
SplineSet
502 82 m 1
 502 0 l 1
 51 0 l 1
 51 61 l 1
 369 471 l 1
 51 471 l 1
 51 553 l 1
 502 553 l 1
 502 492 l 1
 184 82 l 1
 502 82 l 1
EndSplineSet
EndChar

StartChar: bracketleft
Encoding: 91 91 62
Width: 258
GlyphClass: 2
Flags: W
LayerCount: 2
Fore
SplineSet
72 640 m 1
 243 640 l 1
 243 579 l 1
 156 579 l 1
 156 -92 l 1
 243 -92 l 1
 243 -154 l 1
 72 -154 l 1
 72 640 l 1
EndSplineSet
EndChar

StartChar: backslash
Encoding: 92 92 63
Width: 379
GlyphClass: 2
Flags: W
LayerCount: 2
Fore
SplineSet
274 -61 m 1
 26 553 l 1
 110 553 l 1
 358 -61 l 1
 274 -61 l 1
EndSplineSet
EndChar

StartChar: bracketright
Encoding: 93 93 64
Width: 259
GlyphClass: 2
Flags: W
LayerCount: 2
Fore
SplineSet
187 640 m 1
 187 -154 l 1
 15 -154 l 1
 15 -92 l 1
 102 -92 l 1
 102 579 l 1
 15 579 l 1
 15 640 l 1
 187 640 l 1
EndSplineSet
EndChar

StartChar: asciicircum
Encoding: 94 94 65
Width: 450
GlyphClass: 2
Flags: W
LayerCount: 2
Fore
SplineSet
265 553 m 1
 410 256 l 1
 323 256 l 1
 225 466 l 1
 128 256 l 1
 41 256 l 1
 185 553 l 1
 265 553 l 1
EndSplineSet
EndChar

StartChar: underscore
Encoding: 95 95 66
Width: 481
GlyphClass: 2
Flags: W
LayerCount: 2
Fore
SplineSet
15 -92 m 1
 15 -15 l 1
 466 -15 l 1
 466 -92 l 1
 15 -92 l 1
EndSplineSet
EndChar

StartChar: grave
Encoding: 96 96 67
Width: 307
GlyphClass: 2
Flags: W
LayerCount: 2
Fore
SplineSet
169 425 m 1
 41 579 l 1
 169 579 l 1
 261 425 l 1
 169 425 l 1
EndSplineSet
EndChar

StartChar: a
Encoding: 97 97 68
Width: 555
GlyphClass: 2
Flags: W
AnchorPoint: "Anchor-9" 0 0 basechar 0
AnchorPoint: "Anchor-8" 0 0 basechar 0
AnchorPoint: "Anchor-7" 278 456 basechar 0
AnchorPoint: "Anchor-6" 499 10 basechar 0
AnchorPoint: "Anchor-5" 278 0 basechar 0
LayerCount: 2
Fore
SplineSet
384 199 m 1
 261 200 l 2
 198 199 148 183 148 128 c 0
 148 80 194 61 251 61 c 0
 338 61 384 108 384 199 c 1
274 463 m 0
 408 463 484 410 484 276 c 2
 484 100 l 2
 484 68 486 45 490 30 c 2
 497 8 l 1
 497 0 l 1
 397 0 l 1
 394 10 386 39 386 58 c 1
 372 41 l 2
 343 7 294 -10 225 -10 c 0
 118 -10 46 39 46 133 c 0
 46 235 140 266 261 266 c 2
 384 266 l 1
 384 294 l 2
 384 357 342 381 274 381 c 0
 220 381 166 363 166 315 c 1
 64 315 l 1
 64 356 82 391 119 420 c 0
 155 449 207 463 274 463 c 0
EndSplineSet
EndChar

StartChar: b
Encoding: 98 98 69
Width: 581
GlyphClass: 2
Flags: W
AnchorPoint: "Anchor-9" 0 0 basechar 0
AnchorPoint: "Anchor-8" 0 0 basechar 0
AnchorPoint: "Anchor-7" 291 456 basechar 0
AnchorPoint: "Anchor-6" 0 0 basechar 0
AnchorPoint: "Anchor-5" 291 0 basechar 0
LayerCount: 2
Fore
SplineSet
172 228 m 0
 172 138 221 69 307 69 c 0
 394 69 440 137 440 228 c 0
 440 316 393 387 307 387 c 0
 218 387 172 315 172 228 c 0
172 394 m 1
 201 442 253 466 325 466 c 0
 464 466 540 363 540 228 c 0
 540 90 462 -10 325 -10 c 0
 255 -10 205 12 175 57 c 2
 168 68 l 1
 164 0 l 1
 72 0 l 1
 72 625 l 1
 172 625 l 1
 172 394 l 1
EndSplineSet
EndChar

StartChar: c
Encoding: 99 99 70
Width: 542
GlyphClass: 2
Flags: W
AnchorPoint: "Anchor-9" 0 0 basechar 0
AnchorPoint: "Anchor-8" 0 0 basechar 0
AnchorPoint: "Anchor-7" 280 456 basechar 0
AnchorPoint: "Anchor-6" 0 0 basechar 0
AnchorPoint: "Anchor-5" 286 0 basechar 0
LayerCount: 2
Fore
SplineSet
284 -10 m 0
 133 -10 41 86 41 228 c 0
 41 371 137 466 284 466 c 0
 400 466 485 394 507 289 c 1
 450 289 l 1
 409 290 l 1
 391 347 344 384 284 384 c 0
 198 384 143 317 143 228 c 0
 143 135 202 71 284 71 c 0
 347 71 392 112 409 166 c 1
 507 166 l 1
 484 59 399 -10 284 -10 c 0
EndSplineSet
EndChar

StartChar: d
Encoding: 100 100 71
Width: 581
GlyphClass: 2
Flags: W
AnchorPoint: "Anchor-9" 662 681 basechar 0
AnchorPoint: "Anchor-8" 427 533 basechar 0
AnchorPoint: "Anchor-7" 291 456 basechar 0
AnchorPoint: "Anchor-6" 0 0 basechar 0
AnchorPoint: "Anchor-5" 291 0 basechar 0
LayerCount: 2
Fore
SplineSet
274 387 m 0
 186 387 141 313 141 228 c 0
 141 137 187 69 274 69 c 0
 363 69 410 143 410 228 c 0
 410 316 361 387 274 387 c 0
256 466 m 0
 327 466 377 444 406 399 c 2
 410 393 l 1
 410 625 l 1
 509 625 l 1
 509 0 l 1
 417 0 l 1
 413 68 l 1
 406 57 l 2
 377 12 327 -10 256 -10 c 0
 118 -10 41 94 41 228 c 0
 41 364 120 466 256 466 c 0
EndSplineSet
EndChar

StartChar: e
Encoding: 101 101 72
Width: 551
GlyphClass: 2
Flags: W
AnchorPoint: "Anchor-9" 0 0 basechar 0
AnchorPoint: "Anchor-8" 0 0 basechar 0
AnchorPoint: "Anchor-7" 276 456 basechar 0
AnchorPoint: "Anchor-6" 351 10 basechar 0
AnchorPoint: "Anchor-5" 276 0 basechar 0
LayerCount: 2
Fore
SplineSet
405 266 m 1
 394 336 349 384 276 384 c 0
 201 384 157 335 146 266 c 1
 405 266 l 1
41 228 m 0
 41 368 133 466 276 466 c 0
 418 466 510 365 510 228 c 2
 510 200 l 1
 145 200 l 1
 154 122 204 72 282 72 c 0
 329 72 364 92 389 131 c 1
 502 131 l 1
 466 39 384 -10 282 -10 c 0
 129 -10 41 89 41 228 c 0
EndSplineSet
EndChar

StartChar: f
Encoding: 102 102 73
Width: 353
GlyphClass: 2
Flags: W
AnchorPoint: "Anchor-9" 0 0 basechar 0
AnchorPoint: "Anchor-8" 0 0 basechar 0
AnchorPoint: "Anchor-7" 177 456 basechar 0
AnchorPoint: "Anchor-6" 0 0 basechar 0
AnchorPoint: "Anchor-5" 177 0 basechar 0
LayerCount: 2
Fore
SplineSet
33 381 m 1
 33 456 l 1
 110 456 l 1
 110 574 157 627 277 627 c 0
 294 627 310 625 341 620 c 1
 341 540 l 1
 312 544 298 545 277 545 c 0
 222 545 210 514 210 456 c 1
 323 456 l 1
 323 381 l 1
 210 381 l 1
 210 0 l 1
 110 0 l 1
 110 381 l 1
 33 381 l 1
EndSplineSet
EndChar

StartChar: g
Encoding: 103 103 74
Width: 581
GlyphClass: 2
Flags: W
AnchorPoint: "Anchor-9" 0 0 basechar 0
AnchorPoint: "Anchor-8" 0 0 basechar 0
AnchorPoint: "Anchor-7" 291 456 basechar 0
AnchorPoint: "Anchor-6" 0 0 basechar 0
AnchorPoint: "Anchor-5" 291 0 basechar 0
LayerCount: 2
Fore
SplineSet
274 387 m 0
 187 387 141 316 141 233 c 0
 141 141 191 79 274 79 c 0
 362 79 410 150 410 233 c 0
 410 318 360 387 274 387 c 0
410 71 m 1
 379 25 332 0 256 0 c 0
 119 0 41 101 41 233 c 0
 41 367 121 466 256 466 c 0
 327 466 377 444 406 401 c 2
 416 386 l 1
 420 456 l 1
 509 456 l 1
 509 38 l 2
 509 -103 419 -174 282 -174 c 0
 213 -174 161 -162 126 -137 c 0
 91 -112 72 -83 68 -49 c 1
 171 -49 l 1
 181 -86 235 -95 280 -95 c 0
 356 -95 410 -57 410 20 c 2
 410 71 l 1
EndSplineSet
EndChar

StartChar: h
Encoding: 104 104 75
Width: 580
GlyphClass: 2
Flags: W
AnchorPoint: "Anchor-9" 0 0 basechar 0
AnchorPoint: "Anchor-8" 150 533 basechar 0
AnchorPoint: "Anchor-7" 290 456 basechar 0
AnchorPoint: "Anchor-6" 0 0 basechar 0
AnchorPoint: "Anchor-5" 290 0 basechar 0
LayerCount: 2
Fore
SplineSet
172 394 m 1
 204 439 259 463 325 463 c 0
 448 463 512 392 512 264 c 2
 512 0 l 1
 412 0 l 1
 412 264 l 2
 412 306 401 336 378 354 c 0
 355 372 329 381 300 381 c 0
 270 381 241 372 213 354 c 0
 186 336 172 306 172 264 c 2
 172 0 l 1
 72 0 l 1
 72 625 l 1
 172 625 l 1
 172 394 l 1
EndSplineSet
EndChar

StartChar: i
Encoding: 105 105 76
Width: 240
GlyphClass: 2
Flags: W
AnchorPoint: "Anchor-9" 0 0 basechar 0
AnchorPoint: "Anchor-8" 0 0 basechar 0
AnchorPoint: "Anchor-7" 121 645 basechar 0
AnchorPoint: "Anchor-6" 0 0 basechar 0
AnchorPoint: "Anchor-5" 120 0 basechar 0
LayerCount: 2
Fore
SplineSet
170 456 m 1
 170 0 l 1
 70 0 l 1
 70 456 l 1
 170 456 l 1
52 581 m 0
 52 619 79 645 118 645 c 0
 161 645 185 617 185 581 c 0
 185 542 158 517 118 517 c 0
 76 517 52 545 52 581 c 0
EndSplineSet
EndChar

StartChar: j
Encoding: 106 106 77
Width: 241
GlyphClass: 2
Flags: W
LayerCount: 2
Fore
SplineSet
17 -90 m 0
 63 -90 71 -54 71 0 c 2
 71 456 l 1
 170 456 l 1
 171 0 l 2
 170 -67 157 -112 131 -136 c 0
 104 -160 70 -172 28 -172 c 0
 3 -172 -21 -169 -40 -164 c 1
 -40 -84 l 1
 -20 -88 -7 -90 17 -90 c 0
52 581 m 0
 52 619 79 645 118 645 c 0
 161 645 185 617 185 581 c 0
 185 542 158 517 118 517 c 0
 76 517 52 545 52 581 c 0
EndSplineSet
EndChar

StartChar: k
Encoding: 107 107 78
Width: 535
GlyphClass: 2
Flags: W
AnchorPoint: "Anchor-9" 0 0 basechar 0
AnchorPoint: "Anchor-8" 0 0 basechar 0
AnchorPoint: "Anchor-7" 268 456 basechar 0
AnchorPoint: "Anchor-6" 0 0 basechar 0
AnchorPoint: "Anchor-5" 268 0 basechar 0
LayerCount: 2
Fore
SplineSet
172 625 m 1
 172 247 l 1
 379 456 l 1
 502 456 l 1
 314 269 l 1
 528 0 l 1
 410 0 l 1
 249 204 l 1
 172 127 l 1
 172 0 l 1
 72 0 l 1
 72 625 l 1
 172 625 l 1
EndSplineSet
EndChar

StartChar: l
Encoding: 108 108 79
Width: 243
GlyphClass: 2
Flags: W
AnchorPoint: "Anchor-9" 327 625 basechar 0
AnchorPoint: "Anchor-8" 122 312 basechar 0
AnchorPoint: "Anchor-7" 143 625 basechar 0
AnchorPoint: "Anchor-6" 0 0 basechar 0
AnchorPoint: "Anchor-5" 122 0 basechar 0
LayerCount: 2
Fore
SplineSet
172 625 m 1
 172 0 l 1
 72 0 l 1
 72 625 l 1
 172 625 l 1
EndSplineSet
EndChar

StartChar: m
Encoding: 109 109 80
Width: 848
GlyphClass: 2
Flags: W
AnchorPoint: "Anchor-9" 0 0 basechar 0
AnchorPoint: "Anchor-8" 0 0 basechar 0
AnchorPoint: "Anchor-7" 424 456 basechar 0
AnchorPoint: "Anchor-6" 0 0 basechar 0
AnchorPoint: "Anchor-5" 424 0 basechar 0
LayerCount: 2
Fore
SplineSet
161 456 m 1
 166 383 l 1
 193 435 247 463 307 463 c 0
 375 463 428 434 454 382 c 1
 486 439 548 463 612 463 c 0
 729 463 781 388 781 264 c 2
 781 0 l 1
 681 0 l 1
 681 264 l 2
 681 339 648 381 586 381 c 0
 519 381 476 336 476 264 c 2
 476 0 l 1
 376 0 l 1
 376 264 l 2
 376 339 343 381 282 381 c 0
 214 381 172 337 172 264 c 2
 172 0 l 1
 72 0 l 1
 72 456 l 1
 161 456 l 1
EndSplineSet
EndChar

StartChar: n
Encoding: 110 110 81
Width: 580
GlyphClass: 2
Flags: W
AnchorPoint: "Anchor-9" 0 0 basechar 0
AnchorPoint: "Anchor-8" 0 0 basechar 0
AnchorPoint: "Anchor-7" 290 456 basechar 0
AnchorPoint: "Anchor-6" 0 0 basechar 0
AnchorPoint: "Anchor-5" 290 0 basechar 0
LayerCount: 2
Fore
SplineSet
161 456 m 1
 165 384 l 1
 198 440 262 463 325 463 c 0
 448 463 512 392 512 264 c 2
 512 0 l 1
 412 0 l 1
 412 264 l 2
 412 340 367 381 300 381 c 0
 227 381 172 339 172 264 c 2
 172 0 l 1
 72 0 l 1
 72 456 l 1
 161 456 l 1
EndSplineSet
EndChar

StartChar: o
Encoding: 111 111 82
Width: 568
GlyphClass: 2
Flags: W
AnchorPoint: "Anchor-9" 548 456 basechar 0
AnchorPoint: "Anchor-8" 284 228 basechar 0
AnchorPoint: "Anchor-7" 284 456 basechar 0
AnchorPoint: "Anchor-6" 511 10 basechar 0
AnchorPoint: "Anchor-5" 284 0 basechar 0
LayerCount: 2
Fore
SplineSet
425 228 m 0
 425 317 371 384 284 384 c 0
 198 384 143 317 143 228 c 0
 143 138 197 72 284 72 c 0
 375 72 425 141 425 228 c 0
41 228 m 0
 41 297 63 354 106 399 c 0
 149 444 209 466 284 466 c 0
 359 466 419 444 462 399 c 0
 505 354 527 297 527 228 c 0
 527 159 505 102 462 57 c 0
 419 12 360 -10 285 -10 c 2
 284 -10 l 2
 209 -10 149 12 106 57 c 0
 63 102 41 159 41 228 c 0
EndSplineSet
EndChar

StartChar: p
Encoding: 112 112 83
Width: 581
GlyphClass: 2
Flags: W
AnchorPoint: "Anchor-9" 0 0 basechar 0
AnchorPoint: "Anchor-8" 0 0 basechar 0
AnchorPoint: "Anchor-7" 291 456 basechar 0
AnchorPoint: "Anchor-6" 0 0 basechar 0
AnchorPoint: "Anchor-5" 291 0 basechar 0
LayerCount: 2
Fore
SplineSet
172 228 m 0
 172 138 221 69 307 69 c 0
 394 69 440 137 440 228 c 0
 440 316 393 387 307 387 c 0
 218 387 172 315 172 228 c 0
540 228 m 0
 540 90 462 -10 325 -10 c 0
 253 -10 205 12 172 62 c 1
 172 -164 l 1
 72 -164 l 1
 72 456 l 1
 161 456 l 1
 165 383 l 1
 205 444 244 466 325 466 c 0
 464 466 540 362 540 228 c 0
EndSplineSet
EndChar

StartChar: q
Encoding: 113 113 84
Width: 581
GlyphClass: 2
Flags: W
AnchorPoint: "Anchor-9" 0 0 basechar 0
AnchorPoint: "Anchor-8" 0 0 basechar 0
AnchorPoint: "Anchor-7" 291 456 basechar 0
AnchorPoint: "Anchor-6" 0 0 basechar 0
AnchorPoint: "Anchor-5" 291 0 basechar 0
LayerCount: 2
Fore
SplineSet
274 387 m 0
 186 387 141 313 141 228 c 0
 141 137 187 69 274 69 c 0
 363 69 410 143 410 228 c 0
 410 316 361 387 274 387 c 0
256 466 m 0
 327 466 377 444 406 399 c 2
 415 384 l 1
 420 456 l 1
 509 456 l 1
 509 -164 l 1
 410 -164 l 1
 410 63 l 1
 406 57 l 2
 377 12 327 -10 256 -10 c 0
 118 -10 41 94 41 228 c 0
 41 364 120 466 256 466 c 0
EndSplineSet
EndChar

StartChar: r
Encoding: 114 114 85
Width: 382
GlyphClass: 2
Flags: W
AnchorPoint: "Anchor-9" 0 0 basechar 0
AnchorPoint: "Anchor-8" 0 0 basechar 0
AnchorPoint: "Anchor-7" 191 456 basechar 0
AnchorPoint: "Anchor-6" 0 0 basechar 0
AnchorPoint: "Anchor-5" 132 0 basechar 0
LayerCount: 2
Fore
SplineSet
165 384 m 1
 196 433 252 463 323 463 c 2
 340 463 l 1
 356 461 l 1
 356 360 l 1
 329 366 l 2
 319 367 308 368 297 368 c 0
 269 368 241 360 213 345 c 0
 186 330 172 301 172 258 c 2
 172 0 l 1
 72 0 l 1
 72 456 l 1
 161 456 l 1
 165 384 l 1
EndSplineSet
EndChar

StartChar: s
Encoding: 115 115 86
Width: 497
GlyphClass: 2
Flags: W
AnchorPoint: "Anchor-9" 0 0 basechar 0
AnchorPoint: "Anchor-8" 0 0 basechar 0
AnchorPoint: "Anchor-7" 249 456 basechar 0
AnchorPoint: "Anchor-6" 0 0 basechar 0
AnchorPoint: "Anchor-5" 257 0 basechar 0
LayerCount: 2
Fore
SplineSet
247 387 m 0
 197 387 152 365 152 329 c 0
 152 306 165 292 192 285 c 0
 268 265 340 262 391 236 c 0
 433 216 457 180 457 131 c 0
 457 32 354 -10 247 -10 c 0
 144 -10 41 34 41 131 c 1
 143 131 l 1
 144 87 198 69 247 69 c 0
 295 69 354 84 354 126 c 0
 354 151 336 166 308 175 c 0
 235 200 187 188 115 224 c 0
 72 245 49 280 49 329 c 0
 49 420 139 466 247 466 c 0
 355 466 444 410 444 315 c 1
 341 315 l 1
 341 360 291 387 247 387 c 0
EndSplineSet
EndChar

StartChar: t
Encoding: 116 116 87
Width: 355
GlyphClass: 2
Flags: W
AnchorPoint: "Anchor-9" 377 681 basechar 0
AnchorPoint: "Anchor-8" 178 280 basechar 0
AnchorPoint: "Anchor-7" 178 560 basechar 0
AnchorPoint: "Anchor-6" 0 0 basechar 0
AnchorPoint: "Anchor-5" 275 0 basechar 0
LayerCount: 2
Fore
SplineSet
200 169 m 2
 200 107 212 79 266 79 c 0
 283 79 298 80 311 82 c 2
 330 84 l 1
 330 5 l 1
 311 1 l 2
 298 -2 283 -3 266 -3 c 0
 213 -3 172 9 143 33 c 0
 114 57 100 102 100 169 c 2
 100 381 l 1
 26 381 l 1
 26 456 l 1
 100 456 l 1
 100 563 l 1
 200 563 l 1
 200 456 l 1
 315 456 l 1
 315 381 l 1
 200 381 l 1
 200 169 l 2
EndSplineSet
EndChar

StartChar: u
Encoding: 117 117 88
Width: 580
GlyphClass: 2
Flags: W
AnchorPoint: "Anchor-9" 560 456 basechar 0
AnchorPoint: "Anchor-8" 0 0 basechar 0
AnchorPoint: "Anchor-7" 290 456 basechar 0
AnchorPoint: "Anchor-6" 508 10 basechar 0
AnchorPoint: "Anchor-5" 290 0 basechar 0
LayerCount: 2
Fore
SplineSet
255 -8 m 0
 132 -8 68 63 68 192 c 2
 68 456 l 1
 168 456 l 1
 168 192 l 2
 168 150 179 120 202 101 c 0
 225 83 251 74 281 74 c 0
 310 74 339 83 367 101 c 0
 395 120 409 150 409 192 c 2
 409 456 l 1
 508 456 l 1
 508 0 l 1
 416 0 l 1
 412 67 l 1
 383 19 323 -8 255 -8 c 0
EndSplineSet
EndChar

StartChar: v
Encoding: 118 118 89
Width: 527
GlyphClass: 2
Flags: W
AnchorPoint: "Anchor-9" 0 0 basechar 0
AnchorPoint: "Anchor-8" 0 0 basechar 0
AnchorPoint: "Anchor-7" 264 456 basechar 0
AnchorPoint: "Anchor-6" 0 0 basechar 0
AnchorPoint: "Anchor-5" 264 0 basechar 0
LayerCount: 2
Fore
SplineSet
218 0 m 1
 13 456 l 1
 123 456 l 1
 265 109 l 1
 410 456 l 1
 515 456 l 1
 310 0 l 1
 218 0 l 1
EndSplineSet
EndChar

StartChar: w
Encoding: 119 119 90
Width: 732
GlyphClass: 2
Flags: W
AnchorPoint: "Anchor-9" 0 0 basechar 0
AnchorPoint: "Anchor-8" 0 0 basechar 0
AnchorPoint: "Anchor-7" 366 456 basechar 0
AnchorPoint: "Anchor-6" 0 0 basechar 0
AnchorPoint: "Anchor-5" 366 0 basechar 0
LayerCount: 2
Fore
SplineSet
720 456 m 1
 582 0 l 1
 485 0 l 1
 368 343 l 1
 250 0 l 1
 156 0 l 1
 13 456 l 1
 121 456 l 1
 208 137 l 1
 320 456 l 1
 421 456 l 1
 533 136 l 1
 617 456 l 1
 720 456 l 1
EndSplineSet
EndChar

StartChar: x
Encoding: 120 120 91
Width: 517
GlyphClass: 2
Flags: W
AnchorPoint: "Anchor-9" 0 0 basechar 0
AnchorPoint: "Anchor-8" 0 0 basechar 0
AnchorPoint: "Anchor-7" 259 456 basechar 0
AnchorPoint: "Anchor-6" 0 0 basechar 0
AnchorPoint: "Anchor-5" 259 0 basechar 0
LayerCount: 2
Fore
SplineSet
259 290 m 1
 384 456 l 1
 494 456 l 1
 325 229 l 1
 502 0 l 1
 392 0 l 1
 259 170 l 1
 125 0 l 1
 15 0 l 1
 192 229 l 1
 23 456 l 1
 133 456 l 1
 259 290 l 1
EndSplineSet
EndChar

StartChar: y
Encoding: 121 121 92
Width: 527
GlyphClass: 2
Flags: W
AnchorPoint: "Anchor-9" 0 0 basechar 0
AnchorPoint: "Anchor-8" 0 0 basechar 0
AnchorPoint: "Anchor-7" 264 456 basechar 0
AnchorPoint: "Anchor-6" 0 0 basechar 0
AnchorPoint: "Anchor-5" 264 0 basechar 0
LayerCount: 2
Fore
SplineSet
311 0 m 2
 284 -58 259 -101 235 -129 c 0
 212 -156 179 -170 138 -170 c 0
 117 -170 91 -167 73 -160 c 1
 73 -79 l 1
 94 -85 107 -86 130 -86 c 0
 176 -86 190 -57 217 2 c 1
 13 456 l 1
 123 456 l 1
 266 109 l 1
 410 456 l 1
 515 456 l 1
 311 0 l 2
EndSplineSet
EndChar

StartChar: z
Encoding: 122 122 93
Width: 522
GlyphClass: 2
Flags: W
AnchorPoint: "Anchor-9" 0 0 basechar 0
AnchorPoint: "Anchor-8" 0 0 basechar 0
AnchorPoint: "Anchor-7" 261 456 basechar 0
AnchorPoint: "Anchor-6" 0 0 basechar 0
AnchorPoint: "Anchor-5" 261 0 basechar 0
LayerCount: 2
Fore
SplineSet
53 62 m 1
 338 376 l 1
 51 376 l 1
 51 456 l 1
 471 456 l 1
 471 394 l 1
 184 79 l 1
 471 79 l 1
 471 0 l 1
 51 0 l 1
 51 61 l 1
 53 62 l 1
EndSplineSet
EndChar

StartChar: braceleft
Encoding: 123 123 94
Width: 305
GlyphClass: 2
Flags: W
CounterMasks: 1 00
LayerCount: 2
Fore
SplineSet
123 138 m 2
 123 186 90 220 41 220 c 1
 41 266 l 1
 89 266 123 299 123 348 c 2
 123 532 l 2
 123 596 172 640 228 640 c 2
 289 640 l 1
 289 594 l 1
 264 594 l 2
 223 594 207 577 207 535 c 2
 207 346 l 2
 207 298 187 254 143 243 c 1
 184 233 207 188 207 141 c 2
 207 -49 l 2
 207 -89 224 -108 264 -108 c 2
 289 -108 l 1
 289 -154 l 1
 228 -154 l 2
 169 -154 123 -107 123 -46 c 2
 123 138 l 2
EndSplineSet
EndChar

StartChar: bar
Encoding: 124 124 95
Width: 233
GlyphClass: 2
Flags: W
LayerCount: 2
Fore
SplineSet
77 553 m 1
 156 553 l 1
 156 -87 l 1
 77 -87 l 1
 77 553 l 1
EndSplineSet
EndChar

StartChar: braceright
Encoding: 125 125 96
Width: 304
GlyphClass: 2
Flags: W
CounterMasks: 1 00
LayerCount: 2
Fore
SplineSet
15 -154 m 1
 15 -108 l 1
 41 -108 l 2
 81 -108 97 -89 97 -49 c 2
 97 141 l 2
 97 185 120 233 161 243 c 1
 117 255 97 303 97 346 c 2
 97 535 l 2
 97 579 78 594 41 594 c 2
 15 594 l 1
 15 640 l 1
 77 640 l 2
 135 640 182 593 182 532 c 2
 182 348 l 2
 182 300 215 266 264 266 c 1
 264 220 l 1
 216 220 182 187 182 138 c 2
 182 -46 l 2
 182 -110 133 -154 77 -154 c 2
 15 -154 l 1
EndSplineSet
EndChar

StartChar: asciitilde
Encoding: 126 126 97
Width: 552
GlyphClass: 2
Flags: W
LayerCount: 2
Fore
SplineSet
51 199 m 1
 52 272 127 327 193 327 c 0
 227 327 257 318 284 299 c 0
 311 280 336 270 360 270 c 0
 400 270 438 293 442 323 c 1
 501 323 l 1
 500 253 425 195 359 195 c 0
 324 195 293 205 267 224 c 0
 242 243 217 252 193 252 c 0
 150 252 116 230 110 199 c 1
 51 199 l 1
EndSplineSet
EndChar

StartChar: exclamdown
Encoding: 161 161 98
Width: 276
GlyphClass: 2
Flags: W
LayerCount: 2
Fore
SplineSet
182 276 m 1
 192 -97 l 1
 84 -97 l 1
 95 276 l 1
 182 276 l 1
205 397 m 0
 205 358 178 333 138 333 c 0
 96 333 72 361 72 397 c 0
 72 435 99 461 138 461 c 0
 181 461 205 433 205 397 c 0
EndSplineSet
EndChar

StartChar: cent
Encoding: 162 162 99
Width: 542
GlyphClass: 2
Flags: W
AnchorPoint: "Anchor-4" 0 0 basechar 0
AnchorPoint: "Anchor-3" 0 0 basechar 0
AnchorPoint: "Anchor-2" 0 0 basechar 0
AnchorPoint: "Anchor-1" 280 456 basechar 0
AnchorPoint: "Anchor-0" 286 0 basechar 0
LayerCount: 2
Fore
SplineSet
143 228 m 0
 143 148 186 90 250 75 c 1
 250 380 l 1
 184 365 143 305 143 228 c 0
297 72 m 1
 353 77 393 116 409 166 c 1
 507 166 l 1
 485 63 405 -5 297 -10 c 1
 297 -97 l 1
 250 -97 l 1
 250 -8 l 1
 119 5 41 97 41 228 c 0
 41 360 122 451 250 464 c 1
 250 553 l 1
 297 553 l 1
 297 466 l 1
 406 461 486 390 507 289 c 1
 450 289 l 1
 409 290 l 1
 392 343 351 378 297 383 c 1
 297 72 l 1
EndSplineSet
EndChar

StartChar: sterling
Encoding: 163 163 100
Width: 553
GlyphClass: 2
Flags: W
LayerCount: 2
Fore
SplineSet
113 348 m 2
 113 485 188 563 315 563 c 0
 439 563 517 495 517 369 c 1
 420 369 l 1
 420 442 381 481 317 481 c 0
 246 481 215 429 215 348 c 2
 215 289 l 1
 369 289 l 1
 369 218 l 1
 215 218 l 1
 215 169 l 2
 215 133 209 98 184 82 c 1
 517 82 l 1
 517 0 l 1
 51 0 l 1
 51 82 l 1
 56 82 l 2
 99 82 113 112 113 159 c 2
 113 218 l 1
 51 218 l 1
 51 289 l 1
 113 289 l 1
 113 348 l 2
EndSplineSet
EndChar

StartChar: currency
Encoding: 164 164 101
Width: 557
GlyphClass: 2
Flags: W
LayerCount: 2
Fore
SplineSet
279 61 m 0
 370 61 441 134 441 226 c 0
 441 322 374 396 279 396 c 0
 185 396 116 324 116 226 c 0
 116 130 192 61 279 61 c 0
508 415 m 1
 460 366 l 1
 490 324 506 272 506 228 c 0
 506 181 487 127 458 89 c 1
 506 42 l 1
 462 -2 l 1
 415 46 l 1
 377 18 325 0 279 0 c 0
 233 0 180 18 142 45 c 1
 95 -2 l 1
 51 41 l 1
 98 89 l 1
 70 128 51 180 51 228 c 0
 51 278 71 330 97 366 c 1
 49 415 l 1
 92 458 l 1
 141 409 l 1
 179 438 232 456 279 456 c 0
 328 456 381 436 416 409 c 1
 465 458 l 1
 508 415 l 1
EndSplineSet
EndChar

StartChar: yen
Encoding: 165 165 102
Width: 590
GlyphClass: 2
Flags: W
LayerCount: 2
Fore
SplineSet
348 133 m 1
 471 133 l 1
 471 77 l 1
 348 77 l 1
 348 0 l 1
 246 0 l 1
 246 77 l 1
 123 77 l 1
 123 133 l 1
 246 133 l 1
 246 189 l 1
 123 189 l 1
 123 246 l 1
 240 246 l 1
 36 553 l 1
 154 553 l 1
 298 319 l 1
 443 553 l 1
 558 553 l 1
 354 246 l 1
 471 246 l 1
 471 189 l 1
 348 189 l 1
 348 133 l 1
EndSplineSet
EndChar

StartChar: brokenbar
Encoding: 166 166 103
Width: 233
GlyphClass: 2
Flags: W
LayerCount: 2
Fore
SplineSet
156 205 m 1
 156 -87 l 1
 77 -87 l 1
 77 205 l 1
 156 205 l 1
77 275 m 1
 77 553 l 1
 156 553 l 1
 156 275 l 1
 77 275 l 1
EndSplineSet
EndChar

StartChar: section
Encoding: 167 167 104
Width: 555
GlyphClass: 2
Flags: W
LayerCount: 2
Fore
SplineSet
212 277 m 1
 173 261 156 242 156 210 c 0
 156 159 230 143 313 131 c 0
 329 129 345 126 359 122 c 1
 398 137 415 159 415 189 c 0
 415 239 339 258 258 268 c 0
 242 270 226 273 212 277 c 1
287 -91 m 0
 347 -91 399 -61 399 -14 c 0
 399 37 335 46 253 60 c 0
 142 81 61 107 61 206 c 0
 61 257 81 279 129 310 c 1
 90 336 73 367 73 413 c 0
 73 514 181 566 279 566 c 0
 343 566 411 542 453 497 c 0
 474 474 485 443 485 404 c 1
 387 404 l 1
 387 458 338 491 279 491 c 0
 219 491 171 461 171 413 c 0
 171 365 245 348 326 337 c 0
 427 326 509 285 509 193 c 0
 509 141 490 120 442 89 c 1
 480 64 498 32 498 -14 c 0
 498 -112 392 -166 287 -166 c 0
 176 -166 76 -110 76 -5 c 1
 174 -5 l 1
 174 -58 226 -91 287 -91 c 0
EndSplineSet
EndChar

StartChar: copyright
Encoding: 169 169 105
Width: 660
GlyphClass: 2
Flags: W
LayerCount: 2
Fore
SplineSet
428 323 m 1
 415 364 380 391 336 391 c 0
 275 391 235 343 235 279 c 0
 235 216 274 166 336 166 c 0
 381 166 417 197 428 234 c 1
 484 234 l 1
 465 164 412 120 336 120 c 0
 238 120 177 189 177 279 c 0
 177 371 242 437 336 437 c 0
 415 437 466 392 484 323 c 1
 428 323 l 1
330 512 m 0
 194 512 95 412 95 276 c 0
 95 142 194 41 330 41 c 0
 468 41 566 145 566 276 c 0
 566 410 467 512 330 512 c 0
620 276 m 0
 620 115 495 -10 330 -10 c 0
 163 -10 41 116 41 276 c 0
 41 440 166 563 330 563 c 0
 498 563 620 436 620 276 c 0
EndSplineSet
EndChar

StartChar: ordfeminine
Encoding: 170 170 106
Width: 411
GlyphClass: 2
Flags: W
LayerCount: 2
Fore
SplineSet
119 313 m 0
 119 278 152 266 191 266 c 0
 252 266 285 298 285 364 c 1
 198 364 l 2
 154 364 119 352 119 313 c 0
207 492 m 0
 171 492 131 481 131 445 c 1
 59 445 l 1
 59 515 129 550 207 550 c 0
 302 550 356 513 356 418 c 2
 356 293 l 2
 356 270 357 254 360 243 c 2
 365 228 l 1
 365 222 l 1
 294 222 l 1
 290 241 l 2
 288 247 287 254 286 263 c 1
 277 251 l 2
 256 227 221 215 173 215 c 0
 100 215 46 249 46 317 c 0
 46 391 115 411 198 411 c 2
 285 411 l 1
 285 431 l 2
 285 477 251 492 207 492 c 0
EndSplineSet
EndChar

StartChar: guillemotleft
Encoding: 171 171 107
Width: 463
GlyphClass: 2
Flags: W
LayerCount: 2
Fore
SplineSet
320 230 m 1
 417 26 l 1
 346 26 l 1
 218 230 l 1
 346 435 l 1
 417 435 l 1
 320 230 l 1
143 230 m 1
 160 196 192 128 241 26 c 1
 169 26 l 1
 41 230 l 1
 169 435 l 1
 241 435 l 1
 224 401 192 333 143 230 c 1
EndSplineSet
EndChar

StartChar: registered
Encoding: 174 174 108
Width: 660
GlyphClass: 2
Flags: W
LayerCount: 2
Fore
SplineSet
414 337 m 0
 414 372 388 384 350 384 c 2
 261 384 l 1
 261 290 l 1
 350 290 l 2
 392 290 414 305 414 337 c 0
395 250 m 1
 486 129 l 1
 420 129 l 1
 335 245 l 1
 261 245 l 1
 261 129 l 1
 206 129 l 1
 206 429 l 1
 350 429 l 2
 423 429 472 398 472 337 c 0
 472 290 442 260 395 250 c 1
330 512 m 0
 194 512 95 412 95 276 c 0
 95 142 194 41 330 41 c 0
 468 41 566 145 566 276 c 0
 566 410 467 512 330 512 c 0
620 276 m 0
 620 115 495 -10 330 -10 c 0
 163 -10 41 116 41 276 c 0
 41 443 169 563 330 563 c 0
 498 563 620 436 620 276 c 0
EndSplineSet
EndChar

StartChar: degree
Encoding: 176 176 109
Width: 327
GlyphClass: 2
Flags: W
LayerCount: 2
Fore
SplineSet
102 436 m 0
 102 400 128 374 164 374 c 0
 203 374 225 402 225 436 c 0
 225 473 202 499 164 499 c 0
 124 499 102 470 102 436 c 0
46 436 m 0
 46 506 93 553 164 553 c 0
 238 553 282 503 282 436 c 0
 282 367 234 320 164 320 c 0
 91 320 46 369 46 436 c 0
EndSplineSet
EndChar

StartChar: uni00B2
Encoding: 178 178 110
Width: 356
GlyphClass: 2
Flags: W
LayerCount: 2
Fore
SplineSet
178 499 m 0
 138 499 114 473 114 433 c 1
 46 433 l 1
 46 474 61 504 90 523 c 0
 119 541 149 550 178 550 c 0
 209 550 238 542 267 526 c 0
 296 511 310 484 310 446 c 0
 310 400 284 372 257 352 c 0
 238 339 219 327 198 316 c 0
 171 303 149 289 132 268 c 1
 307 268 l 1
 307 215 l 1
 52 215 l 1
 53 232 l 2
 53 277 79 306 106 326 c 0
 147 356 208 376 235 419 c 0
 240 427 242 436 242 446 c 0
 242 481 215 499 178 499 c 0
EndSplineSet
EndChar

StartChar: uni00B3
Encoding: 179 179 111
Width: 347
GlyphClass: 2
Flags: W
LayerCount: 2
Fore
SplineSet
110 318 m 1
 110 279 134 258 174 258 c 0
 209 258 238 275 238 307 c 0
 238 344 205 358 168 358 c 2
 140 358 l 1
 140 410 l 1
 171 410 l 2
 204 410 230 422 230 453 c 0
 230 485 210 499 174 499 c 0
 136 499 111 480 111 444 c 1
 43 444 l 1
 43 481 57 508 85 525 c 0
 113 542 143 550 174 550 c 0
 205 550 233 543 260 528 c 0
 287 513 300 489 300 456 c 0
 300 416 275 398 247 383 c 1
 277 369 306 346 306 306 c 0
 306 272 292 247 263 231 c 0
 235 215 205 207 174 207 c 0
 141 207 111 216 83 233 c 0
 55 250 41 278 41 318 c 1
 110 318 l 1
EndSplineSet
EndChar

StartChar: paragraph
Encoding: 182 182 112
Width: 601
GlyphClass: 2
Flags: W
LayerCount: 2
Fore
SplineSet
223 -164 m 1
 223 207 l 1
 112 216 36 273 36 379 c 2
 36 380 l 2
 36 499 133 553 261 553 c 2
 530 553 l 1
 530 -164 l 1
 430 -164 l 1
 430 476 l 1
 323 476 l 1
 323 -164 l 1
 223 -164 l 1
EndSplineSet
EndChar

StartChar: periodcentered
Encoding: 183 183 113
Width: 246
GlyphClass: 2
Flags: W
LayerCount: 2
Fore
SplineSet
189 261 m 0
 189 222 163 197 123 197 c 0
 83 197 56 222 56 261 c 0
 56 300 83 325 123 325 c 0
 163 325 189 300 189 261 c 0
EndSplineSet
EndChar

StartChar: uni00B9
Encoding: 185 185 114
Width: 260
GlyphClass: 2
Flags: W
LayerCount: 2
Fore
SplineSet
52 500 m 2
 68 506 93 520 128 543 c 1
 194 543 l 1
 194 215 l 1
 128 215 l 1
 128 486 l 1
 93 464 68 450 52 443 c 2
 28 433 l 1
 28 490 l 1
 52 500 l 2
EndSplineSet
EndChar

StartChar: ordmasculine
Encoding: 186 186 115
Width: 432
GlyphClass: 2
Flags: W
LayerCount: 2
Fore
SplineSet
316 382 m 0
 316 446 279 493 217 493 c 0
 151 493 117 442 117 382 c 0
 117 315 158 272 217 272 c 0
 281 272 316 323 316 382 c 0
45 382 m 0
 45 484 112 551 217 551 c 0
 319 551 389 485 389 382 c 0
 389 281 322 214 217 214 c 0
 110 214 45 283 45 382 c 0
EndSplineSet
EndChar

StartChar: guillemotright
Encoding: 187 187 116
Width: 463
GlyphClass: 2
Flags: W
LayerCount: 2
Fore
SplineSet
294 26 m 1
 223 26 l 1
 320 230 l 1
 304 265 272 333 223 435 c 1
 294 435 l 1
 422 230 l 1
 294 26 l 1
118 26 m 1
 46 26 l 1
 143 230 l 1
 127 265 95 333 46 435 c 1
 118 435 l 1
 246 230 l 1
 118 26 l 1
EndSplineSet
EndChar

StartChar: questiondown
Encoding: 191 191 117
Width: 474
GlyphClass: 2
Flags: W
LayerCount: 2
Fore
SplineSet
248 -28 m 0
 308 -28 353 9 353 67 c 1
 461 67 l 1
 461 21 445 -16 422 -40 c 0
 387 -82 319 -110 248 -110 c 0
 167 -110 107 -85 66 -42 c 0
 44 -18 33 14 33 54 c 0
 33 84 41 110 55 127 c 0
 66 144 81 158 99 169 c 0
 131 188 159 205 181 232 c 0
 190 244 195 259 195 276 c 1
 302 276 l 1
 302 198 256 163 207 137 c 0
 189 128 174 117 162 106 c 0
 149 95 141 80 141 59 c 0
 141 0 185 -28 248 -28 c 0
182 397 m 0
 182 435 209 461 248 461 c 0
 288 461 315 436 315 397 c 0
 315 358 288 333 248 333 c 0
 209 333 182 359 182 397 c 0
EndSplineSet
EndChar

StartChar: Agrave
Encoding: 192 192 118
Width: 655
GlyphClass: 2
Flags: W
AnchorPoint: "Anchor-9" 0 0 basechar 0
AnchorPoint: "Anchor-8" 0 0 basechar 0
AnchorPoint: "Anchor-7" 328 860 basechar 0
AnchorPoint: "Anchor-6" 640 10 basechar 0
AnchorPoint: "Anchor-5" 328 0 basechar 0
LayerCount: 2
Fore
SplineSet
326 450 m 1
 210 198 l 1
 440 198 l 1
 326 450 l 1
376 553 m 1
 643 0 l 1
 529 0 l 1
 474 121 l 1
 175 121 l 1
 120 0 l 1
 13 0 l 1
 279 553 l 1
 376 553 l 1
289 604 m 1
 161 758 l 1
 289 758 l 1
 381 604 l 1
 289 604 l 1
EndSplineSet
EndChar

StartChar: Aacute
Encoding: 193 193 119
Width: 655
GlyphClass: 2
Flags: W
AnchorPoint: "Anchor-9" 0 0 basechar 0
AnchorPoint: "Anchor-8" 0 0 basechar 0
AnchorPoint: "Anchor-7" 328 860 basechar 0
AnchorPoint: "Anchor-6" 640 10 basechar 0
AnchorPoint: "Anchor-5" 328 0 basechar 0
LayerCount: 2
Fore
SplineSet
326 450 m 1
 210 198 l 1
 440 198 l 1
 326 450 l 1
376 553 m 1
 643 0 l 1
 529 0 l 1
 474 121 l 1
 175 121 l 1
 120 0 l 1
 13 0 l 1
 279 553 l 1
 376 553 l 1
274 604 m 1
 366 758 l 1
 494 758 l 1
 366 604 l 1
 274 604 l 1
EndSplineSet
EndChar

StartChar: Acircumflex
Encoding: 194 194 120
Width: 655
GlyphClass: 2
Flags: W
AnchorPoint: "Anchor-9" 0 0 basechar 0
AnchorPoint: "Anchor-8" 0 0 basechar 0
AnchorPoint: "Anchor-7" 328 860 basechar 0
AnchorPoint: "Anchor-6" 640 10 basechar 0
AnchorPoint: "Anchor-5" 328 0 basechar 0
LayerCount: 2
Fore
SplineSet
326 450 m 1
 210 198 l 1
 440 198 l 1
 326 450 l 1
376 553 m 1
 643 0 l 1
 529 0 l 1
 474 121 l 1
 175 121 l 1
 120 0 l 1
 13 0 l 1
 279 553 l 1
 376 553 l 1
328 696 m 1
 248 604 l 1
 172 604 l 1
 274 758 l 1
 381 758 l 1
 484 604 l 1
 407 604 l 1
 328 696 l 1
EndSplineSet
EndChar

StartChar: Atilde
Encoding: 195 195 121
Width: 655
GlyphClass: 2
Flags: W
AnchorPoint: "Anchor-9" 0 0 basechar 0
AnchorPoint: "Anchor-8" 0 0 basechar 0
AnchorPoint: "Anchor-7" 328 860 basechar 0
AnchorPoint: "Anchor-6" 640 10 basechar 0
AnchorPoint: "Anchor-5" 328 0 basechar 0
LayerCount: 2
Fore
SplineSet
326 450 m 1
 210 198 l 1
 440 198 l 1
 326 450 l 1
376 553 m 1
 643 0 l 1
 529 0 l 1
 474 121 l 1
 175 121 l 1
 120 0 l 1
 13 0 l 1
 279 553 l 1
 376 553 l 1
502 722 m 1
 502 659 451 604 389 604 c 0
 364 604 340 613 319 630 c 0
 298 647 278 655 261 655 c 0
 246 655 234 650 225 639 c 0
 216 628 212 618 212 609 c 1
 154 609 l 1
 154 643 165 671 188 694 c 0
 211 716 237 727 266 727 c 0
 292 727 316 718 337 701 c 0
 358 684 377 676 394 676 c 0
 409 676 421 681 430 692 c 0
 439 703 443 713 443 722 c 1
 502 722 l 1
EndSplineSet
EndChar

StartChar: Adieresis
Encoding: 196 196 122
Width: 655
GlyphClass: 2
Flags: W
AnchorPoint: "Anchor-9" 0 0 basechar 0
AnchorPoint: "Anchor-8" 0 0 basechar 0
AnchorPoint: "Anchor-7" 328 860 basechar 0
AnchorPoint: "Anchor-6" 640 10 basechar 0
AnchorPoint: "Anchor-5" 328 0 basechar 0
LayerCount: 2
Fore
SplineSet
326 450 m 1
 210 198 l 1
 440 198 l 1
 326 450 l 1
376 553 m 1
 643 0 l 1
 529 0 l 1
 474 121 l 1
 175 121 l 1
 120 0 l 1
 13 0 l 1
 279 553 l 1
 376 553 l 1
377 666 m 0
 377 701 405 727 441 727 c 0
 477 727 505 701 505 666 c 0
 505 631 477 604 441 604 c 0
 405 604 377 631 377 666 c 0
151 666 m 0
 151 701 179 727 215 727 c 0
 251 727 279 702 279 666 c 0
 279 630 252 604 215 604 c 0
 179 604 151 631 151 666 c 0
EndSplineSet
EndChar

StartChar: Aring
Encoding: 197 197 123
Width: 655
GlyphClass: 2
Flags: W
AnchorPoint: "Anchor-9" 0 0 basechar 0
AnchorPoint: "Anchor-8" 0 0 basechar 0
AnchorPoint: "Anchor-7" 328 860 basechar 0
AnchorPoint: "Anchor-6" 640 10 basechar 0
AnchorPoint: "Anchor-5" 328 0 basechar 0
LayerCount: 2
Fore
SplineSet
326 450 m 1
 210 198 l 1
 440 198 l 1
 326 450 l 1
376 553 m 1
 643 0 l 1
 529 0 l 1
 474 121 l 1
 175 121 l 1
 120 0 l 1
 13 0 l 1
 279 553 l 1
 376 553 l 1
282 686 m 0
 282 661 301 643 328 643 c 0
 357 643 374 665 374 686 c 0
 374 709 354 730 328 730 c 0
 299 730 282 708 282 686 c 0
230 686 m 0
 230 741 273 778 328 778 c 0
 383 778 425 741 425 686 c 0
 425 629 379 594 328 594 c 0
 275 594 230 631 230 686 c 0
EndSplineSet
EndChar

StartChar: AE
Encoding: 198 198 124
Width: 937
GlyphClass: 2
Flags: W
LayerCount: 2
Fore
SplineSet
443 198 m 1
 443 484 l 1
 253 198 l 1
 443 198 l 1
10 0 m 1
 377 553 l 1
 891 553 l 1
 891 471 l 1
 543 471 l 1
 543 323 l 1
 855 323 l 1
 855 241 l 1
 543 241 l 1
 543 82 l 1
 891 82 l 1
 891 0 l 1
 443 0 l 1
 443 121 l 1
 201 121 l 1
 121 0 l 1
 10 0 l 1
EndSplineSet
EndChar

StartChar: Ccedilla
Encoding: 199 199 125
Width: 637
GlyphClass: 2
Flags: W
AnchorPoint: "Anchor-9" 0 0 basechar 0
AnchorPoint: "Anchor-8" 0 0 basechar 0
AnchorPoint: "Anchor-7" 335 860 basechar 0
AnchorPoint: "Anchor-6" 0 0 basechar 0
AnchorPoint: "Anchor-5" 343 -234 basechar 0
LayerCount: 2
Fore
SplineSet
335 69 m 0
 418 69 480 122 504 195 c 1
 607 195 l 1
 576 73 483 -6 357 -14 c 1
 350 -40 l 1
 400 -47 429 -76 429 -132 c 0
 429 -194 370 -234 293 -234 c 0
 282 -234 270 -233 257 -232 c 1
 257 -178 l 1
 267.189453125 -179.372070312 277.340820312 -180.12890625 287.077148438 -180.12890625 c 0
 327.029296875 -180.12890625 360 -167.377929688 360 -132 c 0
 360 -97.2294921875 329.022460938 -86.7392578125 281.623046875 -86.7392578125 c 0
 277.219726562 -86.7392578125 272.674804688 -86.830078125 268 -87 c 1
 287 -12 l 1
 138 9 41 125 41 276 c 0
 41 445 161 568 335 568 c 0
 475 568 575 485 607 358 c 1
 504 358 l 1
 479 433 416 484 335 484 c 0
 223 484 148 396 148 276 c 0
 148 155 225 69 335 69 c 0
EndSplineSet
EndChar

StartChar: Egrave
Encoding: 200 200 126
Width: 569
GlyphClass: 2
Flags: W
AnchorPoint: "Anchor-9" 0 0 basechar 0
AnchorPoint: "Anchor-8" 0 0 basechar 0
AnchorPoint: "Anchor-7" 238 758 basechar 0
AnchorPoint: "Anchor-6" 395 10 basechar 0
AnchorPoint: "Anchor-5" 285 0 basechar 0
LayerCount: 2
Fore
SplineSet
72 553 m 1
 522 553 l 1
 522 471 l 1
 174 471 l 1
 174 323 l 1
 486 323 l 1
 486 241 l 1
 174 241 l 1
 174 82 l 1
 522 82 l 1
 522 0 l 1
 72 0 l 1
 72 553 l 1
256 604 m 1
 128 758 l 1
 256 758 l 1
 348 604 l 1
 256 604 l 1
EndSplineSet
EndChar

StartChar: Eacute
Encoding: 201 201 127
Width: 600
GlyphClass: 2
Flags: W
AnchorPoint: "Anchor-9" 0 0 basechar 0
AnchorPoint: "Anchor-8" 0 0 basechar 0
AnchorPoint: "Anchor-7" 331 758 basechar 0
AnchorPoint: "Anchor-6" 395 10 basechar 0
AnchorPoint: "Anchor-5" 285 0 basechar 0
LayerCount: 2
Fore
SplineSet
522 471 m 1
 174 471 l 1
 174 323 l 1
 486 323 l 1
 486 241 l 1
 174 241 l 1
 174 82 l 1
 522 82 l 1
 522 0 l 1
 72 0 l 1
 72 553 l 1
 522 553 l 1
 522 471 l 1
441 758 m 1
 313 604 l 1
 221 604 l 1
 313 758 l 1
 441 758 l 1
EndSplineSet
EndChar

StartChar: Ecircumflex
Encoding: 202 202 128
Width: 600
GlyphClass: 2
Flags: W
AnchorPoint: "Anchor-9" 0 0 basechar 0
AnchorPoint: "Anchor-8" 0 0 basechar 0
AnchorPoint: "Anchor-7" 294 758 basechar 0
AnchorPoint: "Anchor-6" 395 10 basechar 0
AnchorPoint: "Anchor-5" 285 0 basechar 0
LayerCount: 2
Fore
SplineSet
522 471 m 1
 174 471 l 1
 174 323 l 1
 486 323 l 1
 486 241 l 1
 174 241 l 1
 174 82 l 1
 522 82 l 1
 522 0 l 1
 72 0 l 1
 72 553 l 1
 522 553 l 1
 522 471 l 1
294 696 m 1
 214 604 l 1
 138 604 l 1
 240 758 l 1
 347 758 l 1
 450 604 l 1
 373 604 l 1
 294 696 l 1
EndSplineSet
EndChar

StartChar: Edieresis
Encoding: 203 203 129
Width: 569
GlyphClass: 2
Flags: W
AnchorPoint: "Anchor-9" 0 0 basechar 0
AnchorPoint: "Anchor-8" 0 0 basechar 0
AnchorPoint: "Anchor-7" 285 860 basechar 0
AnchorPoint: "Anchor-6" 395 10 basechar 0
AnchorPoint: "Anchor-5" 285 0 basechar 0
LayerCount: 2
Fore
SplineSet
72 553 m 1
 522 553 l 1
 522 471 l 1
 174 471 l 1
 174 323 l 1
 486 323 l 1
 486 241 l 1
 174 241 l 1
 174 82 l 1
 522 82 l 1
 522 0 l 1
 72 0 l 1
 72 553 l 1
334 666 m 0
 334 701 362 727 398 727 c 0
 434 727 462 701 462 666 c 0
 462 631 434 604 398 604 c 0
 362 604 334 631 334 666 c 0
108 666 m 0
 108 701 136 727 172 727 c 0
 208 727 236 702 236 666 c 0
 236 630 209 604 172 604 c 0
 136 604 108 631 108 666 c 0
EndSplineSet
EndChar

StartChar: Igrave
Encoding: 204 204 130
Width: 256
GlyphClass: 2
Flags: W
AnchorPoint: "Anchor-9" 0 0 basechar 0
AnchorPoint: "Anchor-8" 0 0 basechar 0
AnchorPoint: "Anchor-7" 81 758 basechar 0
AnchorPoint: "Anchor-6" 179 10 basechar 0
AnchorPoint: "Anchor-5" 128 0 basechar 0
LayerCount: 2
Fore
SplineSet
77 553 m 1
 179 553 l 1
 179 0 l 1
 77 0 l 1
 77 553 l 1
99 604 m 1
 -29 758 l 1
 99 758 l 1
 191 604 l 1
 99 604 l 1
EndSplineSet
EndChar

StartChar: Iacute
Encoding: 205 205 131
Width: 256
GlyphClass: 2
Flags: W
AnchorPoint: "Anchor-9" 0 0 basechar 0
AnchorPoint: "Anchor-8" 0 0 basechar 0
AnchorPoint: "Anchor-7" 166 758 basechar 0
AnchorPoint: "Anchor-6" 179 10 basechar 0
AnchorPoint: "Anchor-5" 128 0 basechar 0
LayerCount: 2
Fore
SplineSet
77 553 m 1
 179 553 l 1
 179 0 l 1
 77 0 l 1
 77 553 l 1
56 604 m 1
 148 758 l 1
 276 758 l 1
 148 604 l 1
 56 604 l 1
EndSplineSet
EndChar

StartChar: Icircumflex
Encoding: 206 206 132
Width: 256
GlyphClass: 2
Flags: W
AnchorPoint: "Anchor-9" 0 0 basechar 0
AnchorPoint: "Anchor-8" 0 0 basechar 0
AnchorPoint: "Anchor-7" 128 758 basechar 0
AnchorPoint: "Anchor-6" 179 10 basechar 0
AnchorPoint: "Anchor-5" 128 0 basechar 0
LayerCount: 2
Fore
SplineSet
77 553 m 1
 179 553 l 1
 179 0 l 1
 77 0 l 1
 77 553 l 1
128 696 m 1
 48 604 l 1
 -28 604 l 1
 74 758 l 1
 181 758 l 1
 284 604 l 1
 207 604 l 1
 128 696 l 1
EndSplineSet
EndChar

StartChar: Idieresis
Encoding: 207 207 133
Width: 238
GlyphClass: 2
Flags: W
AnchorPoint: "Anchor-9" 0 0 basechar 0
AnchorPoint: "Anchor-8" 0 0 basechar 0
AnchorPoint: "Anchor-7" 128 860 basechar 0
AnchorPoint: "Anchor-6" 179 10 basechar 0
AnchorPoint: "Anchor-5" 128 0 basechar 0
LayerCount: 2
Fore
SplineSet
77 553 m 1
 179 553 l 1
 179 0 l 1
 77 0 l 1
 77 553 l 1
176 666 m 0
 176 701 204 727 240 727 c 0
 276 727 304 701 304 666 c 0
 304 631 276 604 240 604 c 0
 204 604 176 631 176 666 c 0
-50 666 m 0
 -50 701 -22 727 14 727 c 0
 50 727 78 702 78 666 c 0
 78 630 51 604 14 604 c 0
 -22 604 -50 631 -50 666 c 0
EndSplineSet
EndChar

StartChar: Eth
Encoding: 208 208 134
Width: 663
GlyphClass: 2
Flags: W
AnchorPoint: "Anchor-9" 0 0 basechar 0
AnchorPoint: "Anchor-8" 156 276 basechar 0
AnchorPoint: "Anchor-7" 332 860 basechar 0
AnchorPoint: "Anchor-6" 0 0 basechar 0
AnchorPoint: "Anchor-5" 332 0 basechar 0
LayerCount: 2
Fore
SplineSet
463 138 m 0
 499 176 517 222 517 276 c 0
 517 331 499 377 463 415 c 0
 428 452 374 471 302 471 c 2
 174 471 l 1
 174 313 l 1
 281 313 l 1
 281 238 l 1
 174 238 l 1
 174 82 l 1
 302 82 l 2
 374 82 428 101 463 138 c 0
541 471 m 0
 595 416 622 351 622 276 c 0
 622 201 595 137 541 82 c 0
 488 27 408 0 302 0 c 2
 72 0 l 1
 72 238 l 1
 31 238 l 1
 31 313 l 1
 72 313 l 1
 72 553 l 1
 302 553 l 2
 408 553 488 526 541 471 c 0
EndSplineSet
EndChar

StartChar: Ntilde
Encoding: 209 209 135
Width: 696
GlyphClass: 2
Flags: W
AnchorPoint: "Anchor-9" 0 0 basechar 0
AnchorPoint: "Anchor-8" 0 0 basechar 0
AnchorPoint: "Anchor-7" 348 727 basechar 0
AnchorPoint: "Anchor-6" 0 0 basechar 0
AnchorPoint: "Anchor-5" 348 0 basechar 0
LayerCount: 2
Fore
SplineSet
72 553 m 1
 189 553 l 1
 522 123 l 1
 522 553 l 1
 625 553 l 1
 625 0 l 1
 507 0 l 1
 174 430 l 1
 174 0 l 1
 72 0 l 1
 72 553 l 1
522 722 m 1
 522 659 471 604 409 604 c 0
 384 604 360 613 339 630 c 0
 318 647 298 655 281 655 c 0
 266 655 254 650 245 639 c 0
 236 628 232 618 232 609 c 1
 174 609 l 1
 174 643 185 671 208 694 c 0
 231 716 257 727 286 727 c 0
 312 727 336 718 357 701 c 0
 378 684 397 676 414 676 c 0
 429 676 441 681 450 692 c 0
 459 703 463 713 463 722 c 1
 522 722 l 1
EndSplineSet
EndChar

StartChar: Ograve
Encoding: 210 210 136
Width: 671
GlyphClass: 2
Flags: W
AnchorPoint: "Anchor-9" 651 860 basechar 0
AnchorPoint: "Anchor-8" 336 277 basechar 0
AnchorPoint: "Anchor-7" 289 758 basechar 0
AnchorPoint: "Anchor-6" 419 10 basechar 0
AnchorPoint: "Anchor-5" 336 0 basechar 0
LayerCount: 2
Fore
SplineSet
522 276 m 0
 522 399 447 484 335 484 c 0
 223 484 148 396 148 276 c 0
 148 155 225 69 335 69 c 0
 448 69 522 156 522 276 c 0
335 -15 m 0
 160 -15 41 109 41 276 c 0
 41 445 161 568 335 568 c 0
 512 568 630 444 630 276 c 0
 630 107 509 -15 335 -15 c 0
307 604 m 1
 179 758 l 1
 307 758 l 1
 399 604 l 1
 307 604 l 1
EndSplineSet
EndChar

StartChar: Oacute
Encoding: 211 211 137
Width: 671
GlyphClass: 2
Flags: W
AnchorPoint: "Anchor-9" 651 860 basechar 0
AnchorPoint: "Anchor-8" 336 277 basechar 0
AnchorPoint: "Anchor-7" 374 758 basechar 0
AnchorPoint: "Anchor-6" 419 10 basechar 0
AnchorPoint: "Anchor-5" 336 0 basechar 0
LayerCount: 2
Fore
SplineSet
522 276 m 0
 522 399 447 484 335 484 c 0
 223 484 148 396 148 276 c 0
 148 155 225 69 335 69 c 0
 448 69 522 156 522 276 c 0
335 -15 m 0
 160 -15 41 109 41 276 c 0
 41 445 161 568 335 568 c 0
 512 568 630 444 630 276 c 0
 630 107 509 -15 335 -15 c 0
264 604 m 1
 356 758 l 1
 484 758 l 1
 356 604 l 1
 264 604 l 1
EndSplineSet
EndChar

StartChar: Ocircumflex
Encoding: 212 212 138
Width: 671
GlyphClass: 2
Flags: W
AnchorPoint: "Anchor-9" 651 860 basechar 0
AnchorPoint: "Anchor-8" 336 277 basechar 0
AnchorPoint: "Anchor-7" 336 758 basechar 0
AnchorPoint: "Anchor-6" 419 10 basechar 0
AnchorPoint: "Anchor-5" 336 0 basechar 0
LayerCount: 2
Fore
SplineSet
522 276 m 0
 522 399 447 484 335 484 c 0
 223 484 148 396 148 276 c 0
 148 155 225 69 335 69 c 0
 448 69 522 156 522 276 c 0
335 -15 m 0
 160 -15 41 109 41 276 c 0
 41 445 161 568 335 568 c 0
 512 568 630 444 630 276 c 0
 630 107 509 -15 335 -15 c 0
336 696 m 1
 256 604 l 1
 180 604 l 1
 282 758 l 1
 389 758 l 1
 492 604 l 1
 415 604 l 1
 336 696 l 1
EndSplineSet
EndChar

StartChar: Otilde
Encoding: 213 213 139
Width: 671
GlyphClass: 2
Flags: W
AnchorPoint: "Anchor-9" 651 860 basechar 0
AnchorPoint: "Anchor-8" 336 277 basechar 0
AnchorPoint: "Anchor-7" 336 727 basechar 0
AnchorPoint: "Anchor-6" 419 10 basechar 0
AnchorPoint: "Anchor-5" 336 0 basechar 0
LayerCount: 2
Fore
SplineSet
522 276 m 0
 522 399 447 484 335 484 c 0
 223 484 148 396 148 276 c 0
 148 155 225 69 335 69 c 0
 448 69 522 156 522 276 c 0
335 -15 m 0
 160 -15 41 109 41 276 c 0
 41 445 161 568 335 568 c 0
 512 568 630 444 630 276 c 0
 630 107 509 -15 335 -15 c 0
510 722 m 1
 510 659 459 604 397 604 c 0
 372 604 348 613 327 630 c 0
 306 647 286 655 269 655 c 0
 254 655 242 650 233 639 c 0
 224 628 220 618 220 609 c 1
 162 609 l 1
 162 643 173 671 196 694 c 0
 219 716 245 727 274 727 c 0
 300 727 324 718 345 701 c 0
 366 684 385 676 402 676 c 0
 417 676 429 681 438 692 c 0
 447 703 451 713 451 722 c 1
 510 722 l 1
EndSplineSet
EndChar

StartChar: Odieresis
Encoding: 214 214 140
Width: 671
GlyphClass: 2
Flags: W
AnchorPoint: "Anchor-9" 651 860 basechar 0
AnchorPoint: "Anchor-8" 336 277 basechar 0
AnchorPoint: "Anchor-7" 336 860 basechar 0
AnchorPoint: "Anchor-6" 419 10 basechar 0
AnchorPoint: "Anchor-5" 336 0 basechar 0
LayerCount: 2
Fore
SplineSet
522 276 m 0
 522 399 447 484 335 484 c 0
 223 484 148 396 148 276 c 0
 148 155 225 69 335 69 c 0
 448 69 522 156 522 276 c 0
335 -15 m 0
 160 -15 41 109 41 276 c 0
 41 445 161 568 335 568 c 0
 512 568 630 444 630 276 c 0
 630 107 509 -15 335 -15 c 0
385 666 m 0
 385 701 413 727 449 727 c 0
 485 727 513 701 513 666 c 0
 513 631 485 604 449 604 c 0
 413 604 385 631 385 666 c 0
159 666 m 0
 159 701 187 727 223 727 c 0
 259 727 287 702 287 666 c 0
 287 630 260 604 223 604 c 0
 187 604 159 631 159 666 c 0
EndSplineSet
EndChar

StartChar: multiply
Encoding: 215 215 141
Width: 485
GlyphClass: 2
Flags: W
LayerCount: 2
Fore
SplineSet
56 391 m 1
 65 400 84 418 111 445 c 1
 243 313 l 1
 375 445 l 1
 429 391 l 1
 297 258 l 1
 429 126 l 1
 375 72 l 1
 243 204 l 1
 111 72 l 1
 102 81 83 99 56 126 c 1
 189 259 l 1
 56 391 l 1
EndSplineSet
EndChar

StartChar: Oslash
Encoding: 216 216 142
Width: 671
GlyphClass: 2
Flags: W
AnchorPoint: "Anchor-9" 651 860 basechar 0
AnchorPoint: "Anchor-8" 336 277 basechar 0
AnchorPoint: "Anchor-7" 336 860 basechar 0
AnchorPoint: "Anchor-6" 419 10 basechar 0
AnchorPoint: "Anchor-5" 336 0 basechar 0
LayerCount: 2
Fore
SplineSet
335 69 m 0
 448 69 522 156 522 276 c 0
 522 330 508 376 482 411 c 1
 230 101 l 1
 259 80 295 69 335 69 c 0
148 276 m 0
 148 223 163 177 189 141 c 1
 441 452 l 1
 412 473 376 484 335 484 c 0
 223 484 148 396 148 276 c 0
545 489 m 1
 599 436 630 362 630 276 c 0
 630 107 509 -15 335 -15 c 0
 272 -15 217 1 171 29 c 1
 126 -27 l 5
 81 9 l 5
 126 64 l 1
 72 116 41 191 41 276 c 0
 41 445 161 568 335 568 c 0
 398 568 454 552 500 524 c 1
 546 581 l 1
 591 545 l 1
 545 489 l 1
EndSplineSet
EndChar

StartChar: Ugrave
Encoding: 217 217 143
Width: 666
GlyphClass: 2
Flags: W
AnchorPoint: "Anchor-9" 646 860 basechar 0
AnchorPoint: "Anchor-8" 0 0 basechar 0
AnchorPoint: "Anchor-7" 287 758 basechar 0
AnchorPoint: "Anchor-6" 403 10 basechar 0
AnchorPoint: "Anchor-5" 333 0 basechar 0
LayerCount: 2
Fore
SplineSet
334 -13 m 0
 165 -13 67 90 67 282 c 2
 67 553 l 1
 169 553 l 1
 169 282 l 2
 169 155 225 72 334 72 c 0
 445 72 497 155 497 282 c 2
 497 553 l 1
 599 553 l 1
 599 282 l 2
 599 90 501 -13 334 -13 c 0
305 604 m 1
 177 758 l 1
 305 758 l 1
 397 604 l 1
 305 604 l 1
EndSplineSet
EndChar

StartChar: Uacute
Encoding: 218 218 144
Width: 666
GlyphClass: 2
Flags: W
AnchorPoint: "Anchor-9" 646 860 basechar 0
AnchorPoint: "Anchor-8" 0 0 basechar 0
AnchorPoint: "Anchor-7" 372 758 basechar 0
AnchorPoint: "Anchor-6" 403 10 basechar 0
AnchorPoint: "Anchor-5" 333 0 basechar 0
LayerCount: 2
Fore
SplineSet
334 -13 m 0
 165 -13 67 90 67 282 c 2
 67 553 l 1
 169 553 l 1
 169 282 l 2
 169 155 225 72 334 72 c 0
 445 72 497 155 497 282 c 2
 497 553 l 1
 599 553 l 1
 599 282 l 2
 599 90 501 -13 334 -13 c 0
262 604 m 1
 354 758 l 1
 482 758 l 1
 354 604 l 1
 262 604 l 1
EndSplineSet
EndChar

StartChar: Ucircumflex
Encoding: 219 219 145
Width: 666
GlyphClass: 2
Flags: W
AnchorPoint: "Anchor-9" 646 860 basechar 0
AnchorPoint: "Anchor-8" 0 0 basechar 0
AnchorPoint: "Anchor-7" 334 758 basechar 0
AnchorPoint: "Anchor-6" 403 10 basechar 0
AnchorPoint: "Anchor-5" 333 0 basechar 0
LayerCount: 2
Fore
SplineSet
334 -13 m 0
 165 -13 67 90 67 282 c 2
 67 553 l 1
 169 553 l 1
 169 282 l 2
 169 155 225 72 334 72 c 0
 445 72 497 155 497 282 c 2
 497 553 l 1
 599 553 l 1
 599 282 l 2
 599 90 501 -13 334 -13 c 0
334 696 m 1
 254 604 l 1
 178 604 l 1
 280 758 l 1
 387 758 l 1
 490 604 l 1
 413 604 l 1
 334 696 l 1
EndSplineSet
EndChar

StartChar: Udieresis
Encoding: 220 220 146
Width: 666
GlyphClass: 2
Flags: W
AnchorPoint: "Anchor-9" 646 860 basechar 0
AnchorPoint: "Anchor-8" 0 0 basechar 0
AnchorPoint: "Anchor-7" 334 860 basechar 0
AnchorPoint: "Anchor-6" 403 10 basechar 0
AnchorPoint: "Anchor-5" 333 0 basechar 0
LayerCount: 2
Fore
SplineSet
334 -13 m 0
 165 -13 67 90 67 282 c 2
 67 553 l 1
 169 553 l 1
 169 282 l 2
 169 155 225 72 334 72 c 0
 445 72 497 155 497 282 c 2
 497 553 l 1
 599 553 l 1
 599 282 l 2
 599 90 501 -13 334 -13 c 0
383 666 m 0
 383 701 411 727 447 727 c 0
 483 727 511 701 511 666 c 0
 511 631 483 604 447 604 c 0
 411 604 383 631 383 666 c 0
157 666 m 0
 157 701 185 727 221 727 c 0
 257 727 285 702 285 666 c 0
 285 630 258 604 221 604 c 0
 185 604 157 631 157 666 c 0
EndSplineSet
EndChar

StartChar: Yacute
Encoding: 221 221 147
Width: 590
GlyphClass: 2
Flags: W
AnchorPoint: "Anchor-9" 0 0 basechar 0
AnchorPoint: "Anchor-8" 0 0 basechar 0
AnchorPoint: "Anchor-7" 295 860 basechar 0
AnchorPoint: "Anchor-6" 0 0 basechar 0
AnchorPoint: "Anchor-5" 295 0 basechar 0
LayerCount: 2
Fore
SplineSet
244 208 m 1
 15 553 l 1
 139 553 l 1
 296 297 l 1
 456 553 l 1
 574 553 l 1
 346 210 l 1
 346 0 l 1
 244 0 l 1
 244 208 l 1
211 604 m 1
 303 758 l 1
 431 758 l 1
 303 604 l 1
 211 604 l 1
EndSplineSet
EndChar

StartChar: Thorn
Encoding: 222 222 148
Width: 612
GlyphClass: 2
Flags: W
AnchorPoint: "Anchor-9" 0 0 basechar 0
AnchorPoint: "Anchor-8" 0 0 basechar 0
AnchorPoint: "Anchor-7" 306 860 basechar 0
AnchorPoint: "Anchor-6" 0 0 basechar 0
AnchorPoint: "Anchor-5" 306 0 basechar 0
LayerCount: 2
Fore
SplineSet
471 379 m 0
 471 447 429 471 353 471 c 2
 174 471 l 1
 174 287 l 1
 353 287 l 2
 431 287 471 313 471 379 c 0
174 205 m 1
 174 0 l 1
 72 0 l 1
 72 758 l 1
 174 758 l 1
 174 553 l 1
 353 553 l 2
 487 553 579 496 579 380 c 2
 579 379 l 2
 577 259 483 205 353 205 c 2
 174 205 l 1
EndSplineSet
EndChar

StartChar: germandbls
Encoding: 223 223 149
Width: 558
GlyphClass: 2
Flags: W
LayerCount: 2
Fore
SplineSet
367 340 m 0
 367 315 384 299 411 282 c 0
 491 230 522 207 522 131 c 0
 522 36 451 -5 359 -5 c 0
 315 -5 265 5 233 26 c 1
 233 105 l 1
 277 83 307 74 353 74 c 0
 394 74 424 96 424 135 c 0
 424 177 405 185 309 247 c 0
 284 264 271 291 271 330 c 0
 271 377 292 406 324 436 c 0
 336 447 342 463 342 486 c 0
 342 529 302 551 262 551 c 0
 195 551 172 508 172 445 c 2
 172 0 l 1
 72 0 l 1
 72 438 l 2
 72 563 147 630 264 630 c 0
 354 630 434 578 434 490 c 0
 434 467 427 439 415 421 c 0
 389 382 367 379 367 340 c 0
EndSplineSet
EndChar

StartChar: agrave
Encoding: 224 224 150
Width: 555
GlyphClass: 2
Flags: W
AnchorPoint: "Anchor-9" 0 0 basechar 0
AnchorPoint: "Anchor-8" 0 0 basechar 0
AnchorPoint: "Anchor-7" 222 671 basechar 0
AnchorPoint: "Anchor-6" 499 10 basechar 0
AnchorPoint: "Anchor-5" 278 0 basechar 0
LayerCount: 2
Fore
SplineSet
384 199 m 1
 261 200 l 2
 198 199 148 183 148 128 c 0
 148 80 194 61 251 61 c 0
 338 61 384 108 384 199 c 1
274 463 m 0
 408 463 484 410 484 276 c 2
 484 100 l 2
 484 68 486 45 490 30 c 2
 497 8 l 1
 497 0 l 1
 397 0 l 1
 394 10 386 39 386 58 c 1
 372 41 l 2
 343 7 294 -10 225 -10 c 0
 118 -10 46 39 46 133 c 0
 46 235 140 266 261 266 c 2
 384 266 l 1
 384 294 l 2
 384 357 342 381 274 381 c 0
 220 381 166 363 166 315 c 1
 64 315 l 1
 64 356 82 391 119 420 c 0
 155 449 207 463 274 463 c 0
240 517 m 1
 112 671 l 1
 240 671 l 1
 332 517 l 1
 240 517 l 1
EndSplineSet
EndChar

StartChar: aacute
Encoding: 225 225 151
Width: 555
GlyphClass: 2
Flags: W
AnchorPoint: "Anchor-9" 0 0 basechar 0
AnchorPoint: "Anchor-8" 0 0 basechar 0
AnchorPoint: "Anchor-7" 313 671 basechar 0
AnchorPoint: "Anchor-6" 499 10 basechar 0
AnchorPoint: "Anchor-5" 278 0 basechar 0
LayerCount: 2
Fore
SplineSet
384 199 m 1
 261 200 l 2
 198 199 148 183 148 128 c 0
 148 80 194 61 251 61 c 0
 338 61 384 108 384 199 c 1
274 463 m 0
 408 463 484 410 484 276 c 2
 484 100 l 2
 484 68 486 45 490 30 c 2
 497 8 l 1
 497 0 l 1
 397 0 l 1
 394 10 386 39 386 58 c 1
 372 41 l 2
 343 7 294 -10 225 -10 c 0
 118 -10 46 39 46 133 c 0
 46 235 140 266 261 266 c 2
 384 266 l 1
 384 294 l 2
 384 357 342 381 274 381 c 0
 220 381 166 363 166 315 c 1
 64 315 l 1
 64 356 82 391 119 420 c 0
 155 449 207 463 274 463 c 0
203 517 m 1
 295 671 l 1
 423 671 l 1
 295 517 l 1
 203 517 l 1
EndSplineSet
EndChar

StartChar: acircumflex
Encoding: 226 226 152
Width: 555
GlyphClass: 2
Flags: W
AnchorPoint: "Anchor-9" 0 0 basechar 0
AnchorPoint: "Anchor-8" 0 0 basechar 0
AnchorPoint: "Anchor-7" 272 671 basechar 0
AnchorPoint: "Anchor-6" 499 10 basechar 0
AnchorPoint: "Anchor-5" 278 0 basechar 0
LayerCount: 2
Fore
SplineSet
384 199 m 1
 261 200 l 2
 198 199 148 183 148 128 c 0
 148 80 194 61 251 61 c 0
 338 61 384 108 384 199 c 1
274 463 m 0
 408 463 484 410 484 276 c 2
 484 100 l 2
 484 68 486 45 490 30 c 2
 497 8 l 1
 497 0 l 1
 397 0 l 1
 394 10 386 39 386 58 c 1
 372 41 l 2
 343 7 294 -10 225 -10 c 0
 118 -10 46 39 46 133 c 0
 46 235 140 266 261 266 c 2
 384 266 l 1
 384 294 l 2
 384 357 342 381 274 381 c 0
 220 381 166 363 166 315 c 1
 64 315 l 1
 64 356 82 391 119 420 c 0
 155 449 207 463 274 463 c 0
272 608 m 1
 193 517 l 1
 116 517 l 1
 218 671 l 1
 326 671 l 1
 428 517 l 1
 351 517 l 1
 272 608 l 1
EndSplineSet
EndChar

StartChar: atilde
Encoding: 227 227 153
Width: 555
GlyphClass: 2
Flags: W
AnchorPoint: "Anchor-9" 0 0 basechar 0
AnchorPoint: "Anchor-8" 0 0 basechar 0
AnchorPoint: "Anchor-7" 278 640 basechar 0
AnchorPoint: "Anchor-6" 499 10 basechar 0
AnchorPoint: "Anchor-5" 278 0 basechar 0
LayerCount: 2
Fore
SplineSet
384 199 m 1
 261 200 l 2
 198 199 148 183 148 128 c 0
 148 80 194 61 251 61 c 0
 338 61 384 108 384 199 c 1
274 463 m 0
 408 463 484 410 484 276 c 2
 484 100 l 2
 484 68 486 45 490 30 c 2
 497 8 l 1
 497 0 l 1
 397 0 l 1
 394 10 386 39 386 58 c 1
 372 41 l 2
 343 7 294 -10 225 -10 c 0
 118 -10 46 39 46 133 c 0
 46 235 140 266 261 266 c 2
 384 266 l 1
 384 294 l 2
 384 357 342 381 274 381 c 0
 220 381 166 363 166 315 c 1
 64 315 l 1
 64 356 82 391 119 420 c 0
 155 449 207 463 274 463 c 0
103 522 m 1
 103 590 157 640 216 640 c 0
 277 640 295 589 344 589 c 0
 373 589 393 615 393 635 c 1
 452 635 l 1
 452 567 398 517 339 517 c 0
 278 517 260 568 211 568 c 0
 182 568 162 542 162 522 c 1
 103 522 l 1
EndSplineSet
EndChar

StartChar: adieresis
Encoding: 228 228 154
Width: 555
GlyphClass: 2
Flags: W
AnchorPoint: "Anchor-9" 0 0 basechar 0
AnchorPoint: "Anchor-8" 0 0 basechar 0
AnchorPoint: "Anchor-7" 278 640 basechar 0
AnchorPoint: "Anchor-6" 499 10 basechar 0
AnchorPoint: "Anchor-5" 278 0 basechar 0
LayerCount: 2
Fore
SplineSet
384 199 m 1
 261 200 l 2
 198 199 148 183 148 128 c 0
 148 80 194 61 251 61 c 0
 338 61 384 108 384 199 c 1
274 463 m 0
 408 463 484 410 484 276 c 2
 484 100 l 2
 484 68 486 45 490 30 c 2
 497 8 l 1
 497 0 l 1
 397 0 l 1
 394 10 386 39 386 58 c 1
 372 41 l 2
 343 7 294 -10 225 -10 c 0
 118 -10 46 39 46 133 c 0
 46 235 140 266 261 266 c 2
 384 266 l 1
 384 294 l 2
 384 357 342 381 274 381 c 0
 220 381 166 363 166 315 c 1
 64 315 l 1
 64 356 82 391 119 420 c 0
 155 449 207 463 274 463 c 0
455 579 m 0
 455 543 427 517 391 517 c 0
 352 517 327 546 327 579 c 0
 327 613 354 640 391 640 c 0
 430 640 455 611 455 579 c 0
229 579 m 0
 229 543 202 517 165 517 c 0
 126 517 101 546 101 579 c 0
 101 613 128 640 165 640 c 0
 204 640 229 611 229 579 c 0
EndSplineSet
EndChar

StartChar: aring
Encoding: 229 229 155
Width: 555
GlyphClass: 2
Flags: W
AnchorPoint: "Anchor-9" 0 0 basechar 0
AnchorPoint: "Anchor-8" 0 0 basechar 0
AnchorPoint: "Anchor-7" 278 701 basechar 0
AnchorPoint: "Anchor-6" 499 10 basechar 0
AnchorPoint: "Anchor-5" 278 0 basechar 0
LayerCount: 2
Fore
SplineSet
384 199 m 1
 261 200 l 2
 198 199 148 183 148 128 c 0
 148 80 194 61 251 61 c 0
 338 61 384 108 384 199 c 1
274 463 m 0
 408 463 484 410 484 276 c 2
 484 100 l 2
 484 68 486 45 490 30 c 2
 497 8 l 1
 497 0 l 1
 397 0 l 1
 394 10 386 39 386 58 c 1
 372 41 l 2
 343 7 294 -10 225 -10 c 0
 118 -10 46 39 46 133 c 0
 46 235 140 266 261 266 c 2
 384 266 l 1
 384 294 l 2
 384 357 342 381 274 381 c 0
 220 381 166 363 166 315 c 1
 64 315 l 1
 64 356 82 391 119 420 c 0
 155 449 207 463 274 463 c 0
232 609 m 0
 232 584 251 566 278 566 c 0
 307 566 324 587 324 609 c 0
 324 635 305 653 278 653 c 0
 248 653 232 632 232 609 c 0
181 609 m 0
 181 667 226 701 278 701 c 0
 333 701 375 664 375 609 c 0
 375 555 332 517 278 517 c 0
 224 517 181 554 181 609 c 0
EndSplineSet
EndChar

StartChar: ae
Encoding: 230 230 156
Width: 881
GlyphClass: 2
Flags: W
LayerCount: 2
Fore
SplineSet
384 199 m 1
 261 200 l 2
 198 199 148 183 148 128 c 0
 148 80 194 61 251 61 c 0
 338 61 384 108 384 199 c 1
735 266 m 1
 724 336 679 384 607 384 c 0
 531 384 488 335 477 266 c 1
 735 266 l 1
64 315 m 1
 64 412 162 463 274 463 c 0
 341 463 405 448 438 402 c 1
 483 445 542 466 607 466 c 0
 746 466 840 367 840 228 c 0
 840 211 840 206 839 200 c 1
 476 200 l 1
 485 122 535 72 612 72 c 0
 659 72 694 92 719 131 c 1
 832 131 l 1
 796 39 714 -10 612 -10 c 0
 531 -10 467 19 424 76 c 1
 387 13 309 -10 225 -10 c 0
 118 -10 46 39 46 133 c 0
 46 235 140 266 261 266 c 2
 384 266 l 1
 384 294 l 2
 384 357 343 381 274 381 c 0
 220 381 166 362 166 315 c 1
 64 315 l 1
EndSplineSet
EndChar

StartChar: ccedilla
Encoding: 231 231 157
Width: 542
GlyphClass: 2
Flags: W
AnchorPoint: "Anchor-9" 0 0 basechar 0
AnchorPoint: "Anchor-8" 0 0 basechar 0
AnchorPoint: "Anchor-7" 280 456 basechar 0
AnchorPoint: "Anchor-6" 0 0 basechar 0
AnchorPoint: "Anchor-5" 294 -234 basechar 0
LayerCount: 2
Fore
SplineSet
284 71 m 0
 347 71 392 112 409 166 c 1
 507 166 l 1
 486 67 411 0 309 -9 c 1
 301 -40 l 1
 351 -47 380 -76 380 -132 c 0
 380 -194 321 -234 244 -234 c 0
 233 -234 221 -233 208 -232 c 1
 208 -178 l 1
 218.189453125 -179.372070312 228.340820312 -180.12890625 238.077148438 -180.12890625 c 0
 278.029296875 -180.12890625 311 -167.377929688 311 -132 c 0
 311 -97.2294921875 280.022460938 -86.7392578125 232.623046875 -86.7392578125 c 0
 228.219726562 -86.7392578125 223.674804688 -86.830078125 219 -87 c 1
 239 -7 l 1
 115 10 41 101 41 228 c 0
 41 371 137 466 284 466 c 0
 400 466 485 394 507 289 c 1
 450 289 l 1
 409 290 l 1
 391 347 344 384 284 384 c 0
 198 384 143 317 143 228 c 0
 143 135 202 71 284 71 c 0
EndSplineSet
EndChar

StartChar: egrave
Encoding: 232 232 158
Width: 551
GlyphClass: 2
Flags: W
AnchorPoint: "Anchor-9" 0 0 basechar 0
AnchorPoint: "Anchor-8" 0 0 basechar 0
AnchorPoint: "Anchor-7" 276 456 basechar 0
AnchorPoint: "Anchor-6" 351 10 basechar 0
AnchorPoint: "Anchor-5" 276 0 basechar 0
LayerCount: 2
Fore
SplineSet
405 266 m 1
 394 336 349 384 276 384 c 0
 201 384 157 335 146 266 c 1
 405 266 l 1
41 228 m 0
 41 368 133 466 276 466 c 0
 418 466 510 365 510 228 c 2
 510 200 l 1
 145 200 l 1
 154 122 204 72 282 72 c 0
 329 72 364 92 389 131 c 1
 502 131 l 1
 466 39 384 -10 282 -10 c 0
 129 -10 41 89 41 228 c 0
251 517 m 1
 123 671 l 1
 251 671 l 1
 343 517 l 1
 251 517 l 1
EndSplineSet
EndChar

StartChar: eacute
Encoding: 233 233 159
Width: 551
GlyphClass: 2
Flags: W
AnchorPoint: "Anchor-9" 0 0 basechar 0
AnchorPoint: "Anchor-8" 0 0 basechar 0
AnchorPoint: "Anchor-7" 311 671 basechar 0
AnchorPoint: "Anchor-6" 351 10 basechar 0
AnchorPoint: "Anchor-5" 276 0 basechar 0
LayerCount: 2
Fore
SplineSet
405 266 m 1
 394 336 349 384 276 384 c 0
 201 384 157 335 146 266 c 1
 405 266 l 1
41 228 m 0
 41 368 133 466 276 466 c 0
 418 466 510 365 510 228 c 2
 510 200 l 1
 145 200 l 1
 154 122 204 72 282 72 c 0
 329 72 364 92 389 131 c 1
 502 131 l 1
 466 39 384 -10 282 -10 c 0
 129 -10 41 89 41 228 c 0
201 517 m 1
 293 671 l 1
 421 671 l 1
 293 517 l 1
 201 517 l 1
EndSplineSet
EndChar

StartChar: ecircumflex
Encoding: 234 234 160
Width: 551
GlyphClass: 2
Flags: W
AnchorPoint: "Anchor-9" 0 0 basechar 0
AnchorPoint: "Anchor-8" 0 0 basechar 0
AnchorPoint: "Anchor-7" 270 671 basechar 0
AnchorPoint: "Anchor-6" 351 10 basechar 0
AnchorPoint: "Anchor-5" 276 0 basechar 0
LayerCount: 2
Fore
SplineSet
405 266 m 1
 394 336 349 384 276 384 c 0
 201 384 157 335 146 266 c 1
 405 266 l 1
41 228 m 0
 41 368 133 466 276 466 c 0
 418 466 510 365 510 228 c 2
 510 200 l 1
 145 200 l 1
 154 122 204 72 282 72 c 0
 329 72 364 92 389 131 c 1
 502 131 l 1
 466 39 384 -10 282 -10 c 0
 129 -10 41 89 41 228 c 0
270 608 m 1
 191 517 l 1
 114 517 l 1
 216 671 l 1
 324 671 l 1
 426 517 l 1
 349 517 l 1
 270 608 l 1
EndSplineSet
EndChar

StartChar: edieresis
Encoding: 235 235 161
Width: 551
GlyphClass: 2
Flags: W
AnchorPoint: "Anchor-9" 0 0 basechar 0
AnchorPoint: "Anchor-8" 0 0 basechar 0
AnchorPoint: "Anchor-7" 276 640 basechar 0
AnchorPoint: "Anchor-6" 351 10 basechar 0
AnchorPoint: "Anchor-5" 276 0 basechar 0
LayerCount: 2
Fore
SplineSet
277 384 m 2
 275 384 l 2
 235 384 204 370 182 346 c 0
 180 341 174 335 170 331 c 0
 157 311 152 292 146 266 c 1
 405 266 l 1
 402 281 399 295 393 307 c 0
 389 323 377 338 367 348 c 0
 345 371 315 384 277 384 c 2
282 -10 m 2
 130 -10 41 88 41 228 c 0
 41 318 78 385 133 423 c 0
 171 452 219 466 276 466 c 0
 384 466 460 408 492 327 c 0
 504 298 510 265 510 228 c 2
 510 200 l 1
 145 200 l 1
 152 126 201 72 281 72 c 2
 282 72 l 2
 332 72 370 97 389 131 c 1
 502 131 l 1
 469 48 395 -10 283 -10 c 2
 282 -10 l 2
389 517 m 0
 350 517 325 546 325 579 c 0
 325 613 352 640 389 640 c 0
 428 640 453 611 453 579 c 0
 453 543 425 517 389 517 c 0
163 517 m 0
 124 517 99 546 99 579 c 0
 99 613 126 640 163 640 c 0
 202 640 227 611 227 579 c 0
 227 543 200 517 163 517 c 0
EndSplineSet
EndChar

StartChar: igrave
Encoding: 236 236 162
Width: 254
GlyphClass: 2
Flags: W
AnchorPoint: "Anchor-9" 0 0 basechar 0
AnchorPoint: "Anchor-8" 0 0 basechar 0
AnchorPoint: "Anchor-7" 127 456 basechar 0
AnchorPoint: "Anchor-6" 182 10 basechar 0
AnchorPoint: "Anchor-5" 127 0 basechar 0
LayerCount: 2
Fore
SplineSet
182 456 m 1
 182 0 l 1
 82 0 l 1
 82 456 l 1
 182 456 l 1
87 517 m 1
 -41 671 l 1
 87 671 l 1
 179 517 l 1
 87 517 l 1
EndSplineSet
EndChar

StartChar: iacute
Encoding: 237 237 163
Width: 254
GlyphClass: 2
Flags: W
AnchorPoint: "Anchor-9" 0 0 basechar 0
AnchorPoint: "Anchor-8" 0 0 basechar 0
AnchorPoint: "Anchor-7" 162 671 basechar 0
AnchorPoint: "Anchor-6" 182 10 basechar 0
AnchorPoint: "Anchor-5" 127 0 basechar 0
LayerCount: 2
Fore
SplineSet
182 456 m 1
 182 0 l 1
 82 0 l 1
 82 456 l 1
 182 456 l 1
52 517 m 1
 144 671 l 1
 272 671 l 1
 144 517 l 1
 52 517 l 1
EndSplineSet
EndChar

StartChar: icircumflex
Encoding: 238 238 164
Width: 254
GlyphClass: 2
Flags: W
AnchorPoint: "Anchor-9" 0 0 basechar 0
AnchorPoint: "Anchor-8" 0 0 basechar 0
AnchorPoint: "Anchor-7" 121 671 basechar 0
AnchorPoint: "Anchor-6" 182 10 basechar 0
AnchorPoint: "Anchor-5" 127 0 basechar 0
LayerCount: 2
Fore
SplineSet
182 456 m 1
 182 0 l 1
 82 0 l 1
 82 456 l 1
 182 456 l 1
121 608 m 1
 42 517 l 1
 -35 517 l 1
 67 671 l 1
 175 671 l 1
 277 517 l 1
 200 517 l 1
 121 608 l 1
EndSplineSet
EndChar

StartChar: idieresis
Encoding: 239 239 165
Width: 254
GlyphClass: 2
Flags: W
AnchorPoint: "Anchor-9" 0 0 basechar 0
AnchorPoint: "Anchor-8" 0 0 basechar 0
AnchorPoint: "Anchor-7" 127 640 basechar 0
AnchorPoint: "Anchor-6" 182 10 basechar 0
AnchorPoint: "Anchor-5" 127 0 basechar 0
LayerCount: 2
Fore
SplineSet
182 456 m 1
 182 0 l 1
 82 0 l 1
 82 456 l 1
 182 456 l 1
304 579 m 0
 304 543 276 517 240 517 c 0
 201 517 176 546 176 579 c 0
 176 613 203 640 240 640 c 0
 279 640 304 611 304 579 c 0
78 579 m 0
 78 543 51 517 14 517 c 0
 -25 517 -50 546 -50 579 c 0
 -50 613 -23 640 14 640 c 0
 53 640 78 611 78 579 c 0
EndSplineSet
EndChar

StartChar: eth
Encoding: 240 240 166
Width: 568
GlyphClass: 2
Flags: W
AnchorPoint: "Anchor-9" 548 456 basechar 0
AnchorPoint: "Anchor-8" 284 228 basechar 0
AnchorPoint: "Anchor-7" 284 456 basechar 0
AnchorPoint: "Anchor-6" 511 10 basechar 0
AnchorPoint: "Anchor-5" 284 0 basechar 0
LayerCount: 2
Fore
SplineSet
425 228 m 0
 425 317 371 384 284 384 c 0
 198 384 143 317 143 228 c 0
 143 138 197 72 284 72 c 0
 375 72 425 141 425 228 c 0
41 228 m 0
 41 297 63 354 106 399 c 0
 149 444 209 466 284 466 c 0
 359 466 419 444 462 399 c 0
 505 354 527 297 527 228 c 0
 527 159 505 102 462 57 c 0
 419 12 360 -10 285 -10 c 2
 284 -10 l 2
 209 -10 149 12 106 57 c 0
 63 102 41 159 41 228 c 0
EndSplineSet
EndChar

StartChar: ntilde
Encoding: 241 241 167
Width: 580
GlyphClass: 2
Flags: W
AnchorPoint: "Anchor-9" 0 0 basechar 0
AnchorPoint: "Anchor-8" 0 0 basechar 0
AnchorPoint: "Anchor-7" 290 640 basechar 0
AnchorPoint: "Anchor-6" 0 0 basechar 0
AnchorPoint: "Anchor-5" 290 0 basechar 0
LayerCount: 2
Fore
SplineSet
161 456 m 1
 165 384 l 1
 198 440 262 463 325 463 c 0
 448 463 512 392 512 264 c 2
 512 0 l 1
 412 0 l 1
 412 264 l 2
 412 340 367 381 300 381 c 0
 227 381 172 339 172 264 c 2
 172 0 l 1
 72 0 l 1
 72 456 l 1
 161 456 l 1
115 522 m 1
 115 590 169 640 228 640 c 0
 289 640 307 589 356 589 c 0
 385 589 405 615 405 635 c 1
 464 635 l 1
 464 567 410 517 351 517 c 0
 290 517 272 568 223 568 c 0
 194 568 174 542 174 522 c 1
 115 522 l 1
EndSplineSet
EndChar

StartChar: ograve
Encoding: 242 242 168
Width: 568
GlyphClass: 2
Flags: W
AnchorPoint: "Anchor-9" 548 456 basechar 0
AnchorPoint: "Anchor-8" 284 228 basechar 0
AnchorPoint: "Anchor-7" 284 456 basechar 0
AnchorPoint: "Anchor-6" 511 10 basechar 0
AnchorPoint: "Anchor-5" 284 0 basechar 0
LayerCount: 2
Fore
SplineSet
425 228 m 0
 425 317 371 384 284 384 c 0
 198 384 143 317 143 228 c 0
 143 138 197 72 284 72 c 0
 375 72 425 141 425 228 c 0
41 228 m 0
 41 297 63 354 106 399 c 0
 149 444 209 466 284 466 c 0
 359 466 419 444 462 399 c 0
 505 354 527 297 527 228 c 0
 527 159 505 102 462 57 c 0
 419 12 360 -10 285 -10 c 2
 284 -10 l 2
 209 -10 149 12 106 57 c 0
 63 102 41 159 41 228 c 0
251 517 m 1
 123 671 l 1
 251 671 l 1
 343 517 l 1
 251 517 l 1
EndSplineSet
EndChar

StartChar: oacute
Encoding: 243 243 169
Width: 568
GlyphClass: 2
Flags: W
AnchorPoint: "Anchor-9" 548 456 basechar 0
AnchorPoint: "Anchor-8" 284 228 basechar 0
AnchorPoint: "Anchor-7" 319 671 basechar 0
AnchorPoint: "Anchor-6" 511 10 basechar 0
AnchorPoint: "Anchor-5" 284 0 basechar 0
LayerCount: 2
Fore
SplineSet
425 228 m 0
 425 317 371 384 284 384 c 0
 198 384 143 317 143 228 c 0
 143 138 197 72 284 72 c 0
 375 72 425 141 425 228 c 0
41 228 m 0
 41 297 63 354 106 399 c 0
 149 444 209 466 284 466 c 0
 359 466 419 444 462 399 c 0
 505 354 527 297 527 228 c 0
 527 159 505 102 462 57 c 0
 419 12 360 -10 285 -10 c 2
 284 -10 l 2
 209 -10 149 12 106 57 c 0
 63 102 41 159 41 228 c 0
209 517 m 1
 301 671 l 1
 429 671 l 1
 301 517 l 1
 209 517 l 1
EndSplineSet
EndChar

StartChar: ocircumflex
Encoding: 244 244 170
Width: 568
GlyphClass: 2
Flags: W
AnchorPoint: "Anchor-9" 548 456 basechar 0
AnchorPoint: "Anchor-8" 284 228 basechar 0
AnchorPoint: "Anchor-7" 284 456 basechar 0
AnchorPoint: "Anchor-6" 511 10 basechar 0
AnchorPoint: "Anchor-5" 284 0 basechar 0
LayerCount: 2
Fore
SplineSet
425 228 m 0
 425 317 371 384 284 384 c 0
 198 384 143 317 143 228 c 0
 143 138 197 72 284 72 c 0
 375 72 425 141 425 228 c 0
41 228 m 0
 41 297 63 354 106 399 c 0
 149 444 209 466 284 466 c 0
 359 466 419 444 462 399 c 0
 505 354 527 297 527 228 c 0
 527 159 505 102 462 57 c 0
 419 12 360 -10 285 -10 c 2
 284 -10 l 2
 209 -10 149 12 106 57 c 0
 63 102 41 159 41 228 c 0
281 608 m 1
 202 517 l 1
 125 517 l 1
 227 671 l 1
 335 671 l 1
 437 517 l 1
 360 517 l 1
 281 608 l 1
EndSplineSet
EndChar

StartChar: otilde
Encoding: 245 245 171
Width: 568
GlyphClass: 2
Flags: W
AnchorPoint: "Anchor-9" 548 456 basechar 0
AnchorPoint: "Anchor-8" 284 228 basechar 0
AnchorPoint: "Anchor-7" 284 640 basechar 0
AnchorPoint: "Anchor-6" 511 10 basechar 0
AnchorPoint: "Anchor-5" 284 0 basechar 0
LayerCount: 2
Fore
SplineSet
425 228 m 0
 425 317 371 384 284 384 c 0
 198 384 143 317 143 228 c 0
 143 138 197 72 284 72 c 0
 375 72 425 141 425 228 c 0
41 228 m 0
 41 297 63 354 106 399 c 0
 149 444 209 466 284 466 c 0
 359 466 419 444 462 399 c 0
 505 354 527 297 527 228 c 0
 527 159 505 102 462 57 c 0
 419 12 360 -10 285 -10 c 2
 284 -10 l 2
 209 -10 149 12 106 57 c 0
 63 102 41 159 41 228 c 0
109 522 m 1
 109 590 163 640 222 640 c 0
 283 640 301 589 350 589 c 0
 379 589 399 615 399 635 c 1
 458 635 l 1
 458 567 404 517 345 517 c 0
 284 517 266 568 217 568 c 0
 188 568 168 542 168 522 c 1
 109 522 l 1
EndSplineSet
EndChar

StartChar: odieresis
Encoding: 246 246 172
Width: 568
GlyphClass: 2
Flags: W
AnchorPoint: "Anchor-9" 548 456 basechar 0
AnchorPoint: "Anchor-8" 284 228 basechar 0
AnchorPoint: "Anchor-7" 284 640 basechar 0
AnchorPoint: "Anchor-6" 511 10 basechar 0
AnchorPoint: "Anchor-5" 284 0 basechar 0
LayerCount: 2
Fore
SplineSet
425 228 m 0
 425 317 371 384 284 384 c 0
 198 384 143 317 143 228 c 0
 143 138 197 72 284 72 c 0
 375 72 425 141 425 228 c 0
41 228 m 0
 41 297 63 354 106 399 c 0
 149 444 209 466 284 466 c 0
 359 466 419 444 462 399 c 0
 505 354 527 297 527 228 c 0
 527 159 505 102 462 57 c 0
 419 12 360 -10 285 -10 c 2
 284 -10 l 2
 209 -10 149 12 106 57 c 0
 63 102 41 159 41 228 c 0
461 579 m 0
 461 543 433 517 397 517 c 0
 358 517 333 546 333 579 c 0
 333 613 360 640 397 640 c 0
 436 640 461 611 461 579 c 0
235 579 m 0
 235 543 208 517 171 517 c 0
 132 517 107 546 107 579 c 0
 107 613 134 640 171 640 c 0
 210 640 235 611 235 579 c 0
EndSplineSet
EndChar

StartChar: divide
Encoding: 247 247 173
Width: 553
GlyphClass: 2
Flags: W
CounterMasks: 1 00
LayerCount: 2
Fore
SplineSet
343 100 m 0
 343 61 316 36 276 36 c 0
 237 36 210 62 210 100 c 0
 210 138 237 164 276 164 c 0
 316 164 343 139 343 100 c 0
51 220 m 1
 51 297 l 1
 502 297 l 1
 502 220 l 1
 51 220 l 1
343 417 m 0
 343 378 316 353 276 353 c 0
 237 353 210 379 210 417 c 0
 210 455 237 481 276 481 c 0
 316 481 343 456 343 417 c 0
EndSplineSet
EndChar

StartChar: oslash
Encoding: 248 248 174
Width: 568
GlyphClass: 2
Flags: HW
AnchorPoint: "Anchor-9" 548 456 basechar 0
AnchorPoint: "Anchor-8" 284 228 basechar 0
AnchorPoint: "Anchor-7" 284 456 basechar 0
AnchorPoint: "Anchor-6" 511 10 basechar 0
AnchorPoint: "Anchor-5" 284 0 basechar 0
LayerCount: 2
Fore
SplineSet
41 228 m 0
 41 297 63 354 106 399 c 0
 149 444 209 466 284 466 c 0
 359 466 419 444 462 399 c 0
 505 354 527 297 527 228 c 0
 527 159 505 102 462 57 c 0
 419 12 360 -10 285 -10 c 2
 284 -10 l 2
 209 -10 149 12 106 57 c 0
 63 102 41 159 41 228 c 0
425 228 m 0
 425 317 371 384 284 384 c 0
 198 384 143 317 143 228 c 0
 143 138 197 72 284 72 c 0
 375 72 425 141 425 228 c 0
499.69140625 444.635742188 m 1
 114 -20 l 1
 75.1826171875 12.88671875 l 1
 460 477 l 1
 499.69140625 444.635742188 l 1
EndSplineSet
EndChar

StartChar: ugrave
Encoding: 249 249 175
Width: 580
GlyphClass: 2
Flags: W
AnchorPoint: "Anchor-9" 560 456 basechar 0
AnchorPoint: "Anchor-8" 0 0 basechar 0
AnchorPoint: "Anchor-7" 290 456 basechar 0
AnchorPoint: "Anchor-6" 508 10 basechar 0
AnchorPoint: "Anchor-5" 290 0 basechar 0
LayerCount: 2
Fore
SplineSet
255 -8 m 0
 132 -8 68 63 68 192 c 2
 68 456 l 1
 168 456 l 1
 168 192 l 2
 168 150 179 120 202 101 c 0
 225 83 251 74 281 74 c 0
 310 74 339 83 367 101 c 0
 395 120 409 150 409 192 c 2
 409 456 l 1
 508 456 l 1
 508 0 l 1
 416 0 l 1
 412 67 l 1
 383 19 323 -8 255 -8 c 0
263 517 m 1
 135 671 l 1
 263 671 l 1
 355 517 l 1
 263 517 l 1
EndSplineSet
EndChar

StartChar: uacute
Encoding: 250 250 176
Width: 580
GlyphClass: 2
Flags: W
AnchorPoint: "Anchor-9" 560 456 basechar 0
AnchorPoint: "Anchor-8" 0 0 basechar 0
AnchorPoint: "Anchor-7" 325 671 basechar 0
AnchorPoint: "Anchor-6" 508 10 basechar 0
AnchorPoint: "Anchor-5" 290 0 basechar 0
LayerCount: 2
Fore
SplineSet
255 -8 m 0
 132 -8 68 63 68 192 c 2
 68 456 l 1
 168 456 l 1
 168 192 l 2
 168 150 179 120 202 101 c 0
 225 83 251 74 281 74 c 0
 310 74 339 83 367 101 c 0
 395 120 409 150 409 192 c 2
 409 456 l 1
 508 456 l 1
 508 0 l 1
 416 0 l 1
 412 67 l 1
 383 19 323 -8 255 -8 c 0
215 517 m 1
 307 671 l 1
 435 671 l 1
 307 517 l 1
 215 517 l 1
EndSplineSet
EndChar

StartChar: ucircumflex
Encoding: 251 251 177
Width: 580
GlyphClass: 2
Flags: W
AnchorPoint: "Anchor-9" 560 456 basechar 0
AnchorPoint: "Anchor-8" 0 0 basechar 0
AnchorPoint: "Anchor-7" 284 671 basechar 0
AnchorPoint: "Anchor-6" 508 10 basechar 0
AnchorPoint: "Anchor-5" 290 0 basechar 0
LayerCount: 2
Fore
SplineSet
255 -8 m 0
 132 -8 68 63 68 192 c 2
 68 456 l 1
 168 456 l 1
 168 192 l 2
 168 150 179 120 202 101 c 0
 225 83 251 74 281 74 c 0
 310 74 339 83 367 101 c 0
 395 120 409 150 409 192 c 2
 409 456 l 1
 508 456 l 1
 508 0 l 1
 416 0 l 1
 412 67 l 1
 383 19 323 -8 255 -8 c 0
284 608 m 1
 205 517 l 1
 128 517 l 1
 230 671 l 1
 338 671 l 1
 440 517 l 1
 363 517 l 1
 284 608 l 1
EndSplineSet
EndChar

StartChar: udieresis
Encoding: 252 252 178
Width: 580
GlyphClass: 2
Flags: W
AnchorPoint: "Anchor-9" 560 456 basechar 0
AnchorPoint: "Anchor-8" 0 0 basechar 0
AnchorPoint: "Anchor-7" 290 640 basechar 0
AnchorPoint: "Anchor-6" 508 10 basechar 0
AnchorPoint: "Anchor-5" 290 0 basechar 0
LayerCount: 2
Fore
SplineSet
255 -8 m 0
 132 -8 68 63 68 192 c 2
 68 456 l 1
 168 456 l 1
 168 192 l 2
 168 150 179 120 202 101 c 0
 225 83 251 74 281 74 c 0
 310 74 339 83 367 101 c 0
 395 120 409 150 409 192 c 2
 409 456 l 1
 508 456 l 1
 508 0 l 1
 416 0 l 1
 412 67 l 1
 383 19 323 -8 255 -8 c 0
467 579 m 0
 467 543 439 517 403 517 c 0
 364 517 339 546 339 579 c 0
 339 613 366 640 403 640 c 0
 442 640 467 611 467 579 c 0
241 579 m 0
 241 543 214 517 177 517 c 0
 138 517 113 546 113 579 c 0
 113 613 140 640 177 640 c 0
 216 640 241 611 241 579 c 0
EndSplineSet
EndChar

StartChar: yacute
Encoding: 253 253 179
Width: 527
GlyphClass: 2
Flags: W
AnchorPoint: "Anchor-9" 0 0 basechar 0
AnchorPoint: "Anchor-8" 0 0 basechar 0
AnchorPoint: "Anchor-7" 264 456 basechar 0
AnchorPoint: "Anchor-6" 0 0 basechar 0
AnchorPoint: "Anchor-5" 264 0 basechar 0
LayerCount: 2
Fore
SplineSet
311 0 m 2
 284 -58 259 -101 235 -129 c 0
 212 -156 179 -170 138 -170 c 0
 117 -170 91 -167 73 -160 c 1
 73 -79 l 1
 94 -85 107 -86 130 -86 c 0
 176 -86 190 -57 217 2 c 1
 13 456 l 1
 123 456 l 1
 266 109 l 1
 410 456 l 1
 515 456 l 1
 311 0 l 2
205 517 m 1
 297 671 l 1
 425 671 l 1
 297 517 l 1
 205 517 l 1
EndSplineSet
EndChar

StartChar: thorn
Encoding: 254 254 180
Width: 581
GlyphClass: 2
Flags: W
AnchorPoint: "Anchor-9" 0 0 basechar 0
AnchorPoint: "Anchor-8" 0 0 basechar 0
AnchorPoint: "Anchor-7" 291 456 basechar 0
AnchorPoint: "Anchor-6" 0 0 basechar 0
AnchorPoint: "Anchor-5" 291 0 basechar 0
LayerCount: 2
Fore
SplineSet
172 228 m 0
 172 138 221 69 307 69 c 0
 394 69 440 137 440 228 c 0
 440 316 393 387 307 387 c 0
 218 387 172 315 172 228 c 0
540 228 m 0
 540 90 462 -10 325 -10 c 0
 253 -10 205 12 172 62 c 1
 172 -164 l 1
 72 -164 l 1
 72 625 l 1
 161 625 l 1
 165 383 l 1
 205 444 244 466 325 466 c 0
 464 466 540 362 540 228 c 0
EndSplineSet
EndChar

StartChar: ydieresis
Encoding: 255 255 181
Width: 527
GlyphClass: 2
Flags: W
AnchorPoint: "Anchor-9" 0 0 basechar 0
AnchorPoint: "Anchor-8" 0 0 basechar 0
AnchorPoint: "Anchor-7" 264 640 basechar 0
AnchorPoint: "Anchor-6" 0 0 basechar 0
AnchorPoint: "Anchor-5" 264 0 basechar 0
LayerCount: 2
Fore
SplineSet
311 0 m 2
 284 -58 259 -101 235 -129 c 0
 212 -156 179 -170 138 -170 c 0
 117 -170 91 -167 73 -160 c 1
 73 -79 l 1
 94 -85 107 -86 130 -86 c 0
 176 -86 190 -57 217 2 c 1
 13 456 l 1
 123 456 l 1
 266 109 l 1
 410 456 l 1
 515 456 l 1
 311 0 l 2
441 579 m 0
 441 543 413 517 377 517 c 0
 338 517 313 546 313 579 c 0
 313 613 340 640 377 640 c 0
 416 640 441 611 441 579 c 0
215 579 m 0
 215 543 188 517 151 517 c 0
 112 517 87 546 87 579 c 0
 87 613 114 640 151 640 c 0
 190 640 215 611 215 579 c 0
EndSplineSet
EndChar

StartChar: Amacron
Encoding: 256 256 182
Width: 655
GlyphClass: 2
Flags: W
AnchorPoint: "Anchor-9" 0 0 basechar 0
AnchorPoint: "Anchor-8" 0 0 basechar 0
AnchorPoint: "Anchor-7" 328 688 basechar 0
AnchorPoint: "Anchor-6" 640 10 basechar 0
AnchorPoint: "Anchor-5" 328 0 basechar 0
LayerCount: 2
Fore
SplineSet
326 450 m 1
 210 198 l 1
 440 198 l 1
 326 450 l 1
376 553 m 1
 643 0 l 1
 529 0 l 1
 474 121 l 1
 175 121 l 1
 120 0 l 1
 13 0 l 1
 279 553 l 1
 376 553 l 1
187 681 m 1
 467 681 l 1
 467 604 l 1
 187 604 l 1
 187 681 l 1
EndSplineSet
EndChar

StartChar: amacron
Encoding: 257 257 183
Width: 555
GlyphClass: 2
Flags: W
AnchorPoint: "Anchor-9" 0 0 basechar 0
AnchorPoint: "Anchor-8" 0 0 basechar 0
AnchorPoint: "Anchor-7" 278 601 basechar 0
AnchorPoint: "Anchor-6" 499 10 basechar 0
AnchorPoint: "Anchor-5" 278 0 basechar 0
LayerCount: 2
Fore
SplineSet
384 199 m 1
 261 200 l 2
 198 199 148 183 148 128 c 0
 148 80 194 61 251 61 c 0
 338 61 384 108 384 199 c 1
274 463 m 0
 408 463 484 410 484 276 c 2
 484 100 l 2
 484 68 486 45 490 30 c 2
 497 8 l 1
 497 0 l 1
 397 0 l 1
 394 10 386 39 386 58 c 1
 372 41 l 2
 343 7 294 -10 225 -10 c 0
 118 -10 46 39 46 133 c 0
 46 235 140 266 261 266 c 2
 384 266 l 1
 384 294 l 2
 384 357 342 381 274 381 c 0
 220 381 166 363 166 315 c 1
 64 315 l 1
 64 356 82 391 119 420 c 0
 155 449 207 463 274 463 c 0
137 594 m 1
 417 594 l 1
 417 517 l 1
 137 517 l 1
 137 594 l 1
EndSplineSet
EndChar

StartChar: Abreve
Encoding: 258 258 184
Width: 655
GlyphClass: 2
Flags: W
AnchorPoint: "Anchor-9" 0 0 basechar 0
AnchorPoint: "Anchor-8" 0 0 basechar 0
AnchorPoint: "Anchor-7" 328 1074 basechar 0
AnchorPoint: "Anchor-6" 640 10 basechar 0
AnchorPoint: "Anchor-5" 0 0 basechar 0
LayerCount: 2
Fore
SplineSet
326 450 m 1
 210 198 l 1
 440 198 l 1
 326 450 l 1
376 553 m 1
 643 0 l 1
 529 0 l 1
 474 121 l 1
 175 121 l 1
 120 0 l 1
 13 0 l 1
 279 553 l 1
 376 553 l 1
500 758 m 1
 500 657 433 597 328 597 c 0
 221 597 156 659 156 758 c 1
 228 758 l 1
 228 691 269 655 328 655 c 0
 392 655 427 699 427 758 c 1
 500 758 l 1
EndSplineSet
EndChar

StartChar: abreve
Encoding: 259 259 185
Width: 555
GlyphClass: 2
Flags: W
AnchorPoint: "Anchor-9" 0 0 basechar 0
AnchorPoint: "Anchor-8" 0 0 basechar 0
AnchorPoint: "Anchor-7" 278 670 basechar 0
AnchorPoint: "Anchor-6" 499 10 basechar 0
AnchorPoint: "Anchor-5" 278 0 basechar 0
LayerCount: 2
Fore
SplineSet
384 199 m 1
 261 200 l 2
 198 199 148 183 148 128 c 0
 148 80 194 61 251 61 c 0
 338 61 384 108 384 199 c 1
274 463 m 0
 408 463 484 410 484 276 c 2
 484 100 l 2
 484 68 486 45 490 30 c 2
 497 8 l 1
 497 0 l 1
 397 0 l 1
 394 10 386 39 386 58 c 1
 372 41 l 2
 343 7 294 -10 225 -10 c 0
 118 -10 46 39 46 133 c 0
 46 235 140 266 261 266 c 2
 384 266 l 1
 384 294 l 2
 384 357 342 381 274 381 c 0
 220 381 166 363 166 315 c 1
 64 315 l 1
 64 356 82 391 119 420 c 0
 155 449 207 463 274 463 c 0
450 670 m 1
 450 569 383 509 278 509 c 0
 171 509 106 571 106 670 c 1
 178 670 l 1
 178 603 219 567 278 567 c 0
 342 567 377 611 377 670 c 1
 450 670 l 1
EndSplineSet
EndChar

StartChar: Aogonek
Encoding: 260 260 186
Width: 655
GlyphClass: 2
Flags: W
AnchorPoint: "Anchor-9" 0 0 basechar 0
AnchorPoint: "Anchor-8" 0 0 basechar 0
AnchorPoint: "Anchor-7" 328 860 basechar 0
AnchorPoint: "Anchor-6" 640 10 basechar 0
AnchorPoint: "Anchor-5" 328 0 basechar 0
LayerCount: 2
Fore
SplineSet
210 198 m 1
 440 198 l 1
 326 450 l 1
 210 198 l 1
647 -95 m 1
 648 -170.999023438 l 1
 635 -171.999023438 623 -172.999023438 612 -172.999023438 c 0
 534 -172.999023438 477 -132.999023438 477 -69.9990234375 c 0
 477 -27.9990234375 491 -1.9990234375 523 13.0009765625 c 1
 474 121.000976562 l 1
 175 121.000976562 l 1
 120 0.0009765625 l 1
 13 0.0009765625 l 1
 279 553.000976562 l 1
 376 553.000976562 l 1
 643 0.0009765625 l 1
 616 0.0009765625 l 2
 574 -1.9990234375 552 -14.9990234375 552 -47.9990234375 c 0
 552 -84.36328125 579.49609375 -97.60546875 616.2109375 -97.60546875 c 0
 625.940429688 -97.60546875 636.31640625 -96.67578125 647 -95 c 1
EndSplineSet
EndChar

StartChar: aogonek
Encoding: 261 261 187
Width: 555
GlyphClass: 2
Flags: W
AnchorPoint: "Anchor-9" 0 0 basechar 0
AnchorPoint: "Anchor-8" 0 0 basechar 0
AnchorPoint: "Anchor-7" 278 456 basechar 0
AnchorPoint: "Anchor-6" 499 10 basechar 0
AnchorPoint: "Anchor-5" 278 0 basechar 0
LayerCount: 2
Fore
SplineSet
251 61 m 0
 338 61 384 108 384 199 c 1
 261 200 l 2
 198 199 148 183 148 128 c 0
 148 80 194 61 251 61 c 0
274 463 m 0
 408 463 484 410.000976562 484 276.000976562 c 2
 484 100.000976562 l 2
 484 68.0009765625 486 45.0009765625 490 30.0009765625 c 2
 497 8.0009765625 l 1
 497 0.0009765625 l 1
 475 0.0009765625 l 2
 433 -1.9990234375 411 -14.9990234375 411 -47.9990234375 c 0
 411 -84.36328125 438.49609375 -97.60546875 475.2109375 -97.60546875 c 0
 484.940429688 -97.60546875 495.31640625 -96.67578125 506 -95 c 1
 507 -171 l 1
 494 -172 482 -173 471 -173 c 0
 393 -173 336 -133 336 -70 c 0
 336 -24 354 4 393 17 c 1
 391 29 386 43 386 58 c 1
 372 41 l 2
 343 7 294 -10 225 -10 c 0
 118 -10 46 39 46 133 c 0
 46 235 140 266 261 266 c 2
 384 266 l 1
 384 294 l 2
 384 357 342 381 274 381 c 0
 220 381 166 363 166 315 c 1
 64 315 l 1
 64 356 82 391 119 420 c 0
 155 449 207 463 274 463 c 0
EndSplineSet
EndChar

StartChar: Cacute
Encoding: 262 262 188
Width: 637
GlyphClass: 2
Flags: W
AnchorPoint: "Anchor-9" 0 0 basechar 0
AnchorPoint: "Anchor-8" 0 0 basechar 0
AnchorPoint: "Anchor-7" 373 758 basechar 0
AnchorPoint: "Anchor-6" 0 0 basechar 0
AnchorPoint: "Anchor-5" 335 0 basechar 0
LayerCount: 2
Fore
SplineSet
504 358 m 1
 479 433 416 484 335 484 c 0
 223 484 148 396 148 276 c 0
 148 155 225 69 335 69 c 0
 418 69 480 122 504 195 c 1
 607 195 l 1
 574 66 472 -15 335 -15 c 0
 160 -15 41 109 41 276 c 0
 41 445 161 568 335 568 c 0
 475 568 575 485 607 358 c 1
 504 358 l 1
263 604 m 1
 355 758 l 1
 483 758 l 1
 355 604 l 1
 263 604 l 1
EndSplineSet
EndChar

StartChar: cacute
Encoding: 263 263 189
Width: 542
GlyphClass: 2
Flags: W
AnchorPoint: "Anchor-9" 0 0 basechar 0
AnchorPoint: "Anchor-8" 0 0 basechar 0
AnchorPoint: "Anchor-7" 315 671 basechar 0
AnchorPoint: "Anchor-6" 0 0 basechar 0
AnchorPoint: "Anchor-5" 286 0 basechar 0
LayerCount: 2
Fore
SplineSet
284 -10 m 0
 133 -10 41 86 41 228 c 0
 41 371 137 466 284 466 c 0
 400 466 485 394 507 289 c 1
 450 289 l 1
 409 290 l 1
 391 347 344 384 284 384 c 0
 198 384 143 317 143 228 c 0
 143 135 202 71 284 71 c 0
 347 71 392 112 409 166 c 1
 507 166 l 1
 484 59 399 -10 284 -10 c 0
205 517 m 1
 297 671 l 1
 425 671 l 1
 297 517 l 1
 205 517 l 1
EndSplineSet
EndChar

StartChar: Cdotaccent
Encoding: 266 266 190
Width: 637
GlyphClass: 2
Flags: W
AnchorPoint: "Anchor-9" 0 0 basechar 0
AnchorPoint: "Anchor-8" 0 0 basechar 0
AnchorPoint: "Anchor-7" 335 645 basechar 0
AnchorPoint: "Anchor-6" 0 0 basechar 0
AnchorPoint: "Anchor-5" 0 0 basechar 0
LayerCount: 2
Fore
SplineSet
504 358 m 1
 479 433 416 484 335 484 c 0
 223 484 148 396 148 276 c 0
 148 155 225 69 335 69 c 0
 418 69 480 122 504 195 c 1
 607 195 l 1
 574 66 472 -15 335 -15 c 0
 160 -15 41 109 41 276 c 0
 41 445 161 568 335 568 c 0
 475 568 575 485 607 358 c 1
 504 358 l 1
268 689 m 0
 268 727 295 753 334 753 c 0
 377 753 401 725 401 689 c 0
 401 650 374 625 334 625 c 0
 292 625 268 653 268 689 c 0
EndSplineSet
EndChar

StartChar: cdotaccent
Encoding: 267 267 191
Width: 542
GlyphClass: 2
Flags: W
AnchorPoint: "Anchor-9" 0 0 basechar 0
AnchorPoint: "Anchor-8" 0 0 basechar 0
AnchorPoint: "Anchor-7" 280 644 basechar 0
AnchorPoint: "Anchor-6" 0 0 basechar 0
AnchorPoint: "Anchor-5" 286 0 basechar 0
LayerCount: 2
Fore
SplineSet
284 -10 m 0
 133 -10 41 86 41 228 c 0
 41 371 137 466 284 466 c 0
 400 466 485 394 507 289 c 1
 450 289 l 1
 409 290 l 1
 391 347 344 384 284 384 c 0
 198 384 143 317 143 228 c 0
 143 135 202 71 284 71 c 0
 347 71 392 112 409 166 c 1
 507 166 l 1
 484 59 399 -10 284 -10 c 0
213 580 m 0
 213 618 240 644 279 644 c 0
 322 644 346 616 346 580 c 0
 346 541 319 516 279 516 c 0
 237 516 213 544 213 580 c 0
EndSplineSet
EndChar

StartChar: Ccaron
Encoding: 268 268 192
Width: 637
GlyphClass: 2
Flags: W
AnchorPoint: "Anchor-9" 0 0 basechar 0
AnchorPoint: "Anchor-8" 0 0 basechar 0
AnchorPoint: "Anchor-7" 335 860 basechar 0
AnchorPoint: "Anchor-6" 0 0 basechar 0
AnchorPoint: "Anchor-5" 335 0 basechar 0
LayerCount: 2
Fore
SplineSet
504 358 m 1
 479 433 416 484 335 484 c 0
 223 484 148 396 148 276 c 0
 148 155 225 69 335 69 c 0
 418 69 480 122 504 195 c 1
 607 195 l 1
 574 66 472 -15 335 -15 c 0
 160 -15 41 109 41 276 c 0
 41 445 161 568 335 568 c 0
 475 568 575 485 607 358 c 1
 504 358 l 1
281 604 m 1
 178 758 l 1
 255 758 l 1
 334 666 l 1
 414 758 l 1
 491 758 l 1
 388 604 l 1
 281 604 l 1
EndSplineSet
EndChar

StartChar: ccaron
Encoding: 269 269 193
Width: 542
GlyphClass: 2
Flags: W
AnchorPoint: "Anchor-9" 0 0 basechar 0
AnchorPoint: "Anchor-8" 0 0 basechar 0
AnchorPoint: "Anchor-7" 280 671 basechar 0
AnchorPoint: "Anchor-6" 0 0 basechar 0
AnchorPoint: "Anchor-5" 286 0 basechar 0
LayerCount: 2
Fore
SplineSet
284 -10 m 0
 133 -10 41 86 41 228 c 0
 41 371 137 466 284 466 c 0
 400 466 485 394 507 289 c 1
 450 289 l 1
 409 290 l 1
 391 347 344 384 284 384 c 0
 198 384 143 317 143 228 c 0
 143 135 202 71 284 71 c 0
 347 71 392 112 409 166 c 1
 507 166 l 1
 484 59 399 -10 284 -10 c 0
227 517 m 1
 204 551 169 602 124 671 c 1
 201 671 l 1
 280 579 l 1
 302 604 328 635 360 671 c 1
 436 671 l 1
 334 517 l 1
 227 517 l 1
EndSplineSet
EndChar

StartChar: Dcaron
Encoding: 270 270 194
Width: 663
GlyphClass: 2
Flags: W
AnchorPoint: "Anchor-9" 0 0 basechar 0
AnchorPoint: "Anchor-8" 156 276 basechar 0
AnchorPoint: "Anchor-7" 332 860 basechar 0
AnchorPoint: "Anchor-6" 0 0 basechar 0
AnchorPoint: "Anchor-5" 332 0 basechar 0
LayerCount: 2
Fore
SplineSet
517 276 m 0
 517 331 499 377 463 415 c 0
 428 452 374 471 302 471 c 2
 174 471 l 1
 174 82 l 1
 302 82 l 2
 374 82 428 101 463 138 c 0
 499 176 517 222 517 276 c 0
72 0 m 1
 72 553 l 1
 302 553 l 2
 408 553 488 526 541 471 c 0
 595 416 622 351 622 276 c 0
 622 201 595 137 541 82 c 0
 488 27 408 0 302 0 c 2
 72 0 l 1
278 604 m 1
 175 758 l 1
 252 758 l 1
 331 666 l 1
 411 758 l 1
 488 758 l 1
 385 604 l 1
 278 604 l 1
EndSplineSet
EndChar

StartChar: dcaron
Encoding: 271 271 195
Width: 581
GlyphClass: 2
Flags: W
AnchorPoint: "Anchor-9" 662 681 basechar 0
AnchorPoint: "Anchor-8" 427 533 basechar 0
AnchorPoint: "Anchor-7" 291 456 basechar 0
AnchorPoint: "Anchor-6" 0 0 basechar 0
AnchorPoint: "Anchor-5" 291 0 basechar 0
LayerCount: 2
Fore
SplineSet
274 387 m 0
 186 387 141 313 141 228 c 0
 141 137 187 69 274 69 c 0
 363 69 410 143 410 228 c 0
 410 316 361 387 274 387 c 0
256 466 m 0
 327 466 377 444 406 399 c 2
 410 393 l 1
 410 625 l 1
 509 625 l 1
 509 0 l 1
 417 0 l 1
 413 68 l 1
 406 57 l 2
 377 12 327 -10 256 -10 c 0
 118 -10 41 94 41 228 c 0
 41 364 120 466 256 466 c 0
559 510 m 1
 575 681 l 1
 662 681 l 1
 605 510 l 1
 559 510 l 1
EndSplineSet
EndChar

StartChar: Dcroat
Encoding: 272 272 196
Width: 663
GlyphClass: 2
Flags: W
AnchorPoint: "Anchor-9" 0 0 basechar 0
AnchorPoint: "Anchor-8" 156 276 basechar 0
AnchorPoint: "Anchor-7" 332 860 basechar 0
AnchorPoint: "Anchor-6" 0 0 basechar 0
AnchorPoint: "Anchor-5" 332 0 basechar 0
LayerCount: 2
Fore
SplineSet
463 138 m 0
 499 176 517 222 517 276 c 0
 517 331 499 377 463 415 c 0
 428 452 374 471 302 471 c 2
 174 471 l 1
 174 313 l 1
 281 313 l 1
 281 238 l 1
 174 238 l 1
 174 82 l 1
 302 82 l 2
 374 82 428 101 463 138 c 0
541 471 m 0
 595 416 622 351 622 276 c 0
 622 201 595 137 541 82 c 0
 488 27 408 0 302 0 c 2
 72 0 l 1
 72 238 l 1
 31 238 l 1
 31 313 l 1
 72 313 l 1
 72 553 l 1
 302 553 l 2
 408 553 488 526 541 471 c 0
EndSplineSet
EndChar

StartChar: dcroat
Encoding: 273 273 197
Width: 581
GlyphClass: 2
Flags: W
AnchorPoint: "Anchor-9" 662 681 basechar 0
AnchorPoint: "Anchor-8" 427 533 basechar 0
AnchorPoint: "Anchor-7" 291 456 basechar 0
AnchorPoint: "Anchor-6" 0 0 basechar 0
AnchorPoint: "Anchor-5" 291 0 basechar 0
LayerCount: 2
Fore
SplineSet
274 69 m 0
 363 69 410 143 410 228 c 0
 410 316 361 387 274 387 c 0
 186 387 141 313 141 228 c 0
 141 137 187 69 274 69 c 0
552 570 m 1
 552 495 l 1
 509 495 l 1
 509 0 l 1
 417 0 l 1
 413 68 l 1
 406 57 l 2
 377 12 327 -10 256 -10 c 0
 118 -10 41 94 41 228 c 0
 41 364 120 466 256 466 c 0
 327 466 377 444 406 399 c 2
 410 393 l 1
 410 495 l 1
 302 495 l 1
 302 570 l 1
 410 570 l 1
 410 625 l 1
 509 625 l 1
 509 570 l 1
 552 570 l 1
EndSplineSet
EndChar

StartChar: Emacron
Encoding: 274 274 198
Width: 569
GlyphClass: 2
Flags: W
AnchorPoint: "Anchor-9" 0 0 basechar 0
AnchorPoint: "Anchor-8" 0 0 basechar 0
AnchorPoint: "Anchor-7" 285 1005 basechar 0
AnchorPoint: "Anchor-6" 395 10 basechar 0
AnchorPoint: "Anchor-5" 0 0 basechar 0
LayerCount: 2
Fore
SplineSet
72 553 m 1
 522 553 l 1
 522 471 l 1
 174 471 l 1
 174 323 l 1
 486 323 l 1
 486 241 l 1
 174 241 l 1
 174 82 l 1
 522 82 l 1
 522 0 l 1
 72 0 l 1
 72 553 l 1
144 681 m 1
 424 681 l 1
 424 604 l 1
 144 604 l 1
 144 681 l 1
EndSplineSet
EndChar

StartChar: emacron
Encoding: 275 275 199
Width: 551
GlyphClass: 2
Flags: W
AnchorPoint: "Anchor-9" 0 0 basechar 0
AnchorPoint: "Anchor-8" 0 0 basechar 0
AnchorPoint: "Anchor-7" 276 601 basechar 0
AnchorPoint: "Anchor-6" 351 10 basechar 0
AnchorPoint: "Anchor-5" 276 0 basechar 0
LayerCount: 2
Fore
SplineSet
405 266 m 1
 394 336 349 384 276 384 c 0
 201 384 157 335 146 266 c 1
 405 266 l 1
41 228 m 0
 41 368 133 466 276 466 c 0
 418 466 510 365 510 228 c 2
 510 200 l 1
 145 200 l 1
 154 122 204 72 282 72 c 0
 329 72 364 92 389 131 c 1
 502 131 l 1
 466 39 384 -10 282 -10 c 0
 129 -10 41 89 41 228 c 0
135 594 m 1
 415 594 l 1
 415 517 l 1
 135 517 l 1
 135 594 l 1
EndSplineSet
EndChar

StartChar: Edotaccent
Encoding: 278 278 200
Width: 569
GlyphClass: 2
Flags: W
AnchorPoint: "Anchor-9" 0 0 basechar 0
AnchorPoint: "Anchor-8" 0 0 basechar 0
AnchorPoint: "Anchor-7" 285 753 basechar 0
AnchorPoint: "Anchor-6" 395 10 basechar 0
AnchorPoint: "Anchor-5" 285 0 basechar 0
LayerCount: 2
Fore
SplineSet
72 553 m 1
 522 553 l 1
 522 471 l 1
 174 471 l 1
 174 323 l 1
 486 323 l 1
 486 241 l 1
 174 241 l 1
 174 82 l 1
 522 82 l 1
 522 0 l 1
 72 0 l 1
 72 553 l 1
218 689 m 0
 218 727 245 753 284 753 c 0
 327 753 351 725 351 689 c 0
 351 650 324 625 284 625 c 0
 242 625 218 653 218 689 c 0
EndSplineSet
EndChar

StartChar: edotaccent
Encoding: 279 279 201
Width: 551
GlyphClass: 2
Flags: W
AnchorPoint: "Anchor-9" 0 0 basechar 0
AnchorPoint: "Anchor-8" 0 0 basechar 0
AnchorPoint: "Anchor-7" 276 644 basechar 0
AnchorPoint: "Anchor-6" 351 10 basechar 0
AnchorPoint: "Anchor-5" 276 0 basechar 0
LayerCount: 2
Fore
SplineSet
405 266 m 1
 394 336 349 384 276 384 c 0
 201 384 157 335 146 266 c 1
 405 266 l 1
41 228 m 0
 41 368 133 466 276 466 c 0
 418 466 510 365 510 228 c 2
 510 200 l 1
 145 200 l 1
 154 122 204 72 282 72 c 0
 329 72 364 92 389 131 c 1
 502 131 l 1
 466 39 384 -10 282 -10 c 0
 129 -10 41 89 41 228 c 0
209 580 m 0
 209 618 236 644 275 644 c 0
 318 644 342 616 342 580 c 0
 342 541 315 516 275 516 c 0
 233 516 209 544 209 580 c 0
EndSplineSet
EndChar

StartChar: Eogonek
Encoding: 280 280 202
Width: 569
GlyphClass: 2
Flags: W
AnchorPoint: "Anchor-9" 0 0 basechar 0
AnchorPoint: "Anchor-8" 0 0 basechar 0
AnchorPoint: "Anchor-7" 285 860 basechar 0
AnchorPoint: "Anchor-6" 395 10 basechar 0
AnchorPoint: "Anchor-5" 285 0 basechar 0
LayerCount: 2
Fore
SplineSet
522 471 m 1
 174 471.000976562 l 1
 174 323.000976562 l 1
 486 323.000976562 l 1
 486 241.000976562 l 1
 174 241.000976562 l 1
 174 82.0009765625 l 1
 522 82.0009765625 l 1
 522 0.0009765625 l 1
 371 0.0009765625 l 2
 329 -1.9990234375 307 -14.9990234375 307 -47.9990234375 c 0
 307 -84.36328125 334.49609375 -97.60546875 371.2109375 -97.60546875 c 0
 380.940429688 -97.60546875 391.31640625 -96.67578125 402 -95 c 1
 403 -171 l 1
 390 -172 378 -173 367 -173 c 0
 289 -173 232 -133 232 -70 c 0
 232 -38 240 -15 258 0 c 1
 72 0 l 1
 72 553 l 1
 522 553 l 1
 522 471 l 1
EndSplineSet
EndChar

StartChar: eogonek
Encoding: 281 281 203
Width: 551
GlyphClass: 2
Flags: W
AnchorPoint: "Anchor-9" 0 0 basechar 0
AnchorPoint: "Anchor-8" 0 0 basechar 0
AnchorPoint: "Anchor-7" 276 456 basechar 0
AnchorPoint: "Anchor-6" 351 10 basechar 0
AnchorPoint: "Anchor-5" 276 0 basechar 0
LayerCount: 2
Fore
SplineSet
146 266 m 1
 405 266 l 1
 394 336 349 384 276 384 c 0
 201 384 157 335 146 266 c 1
510 228 m 2
 510 200.000976562 l 1
 145 200.000976562 l 1
 154 122.000976562 204 72.0009765625 282 72.0009765625 c 0
 329 72.0009765625 364 92.0009765625 389 131.000976562 c 1
 502 131.000976562 l 1
 466 39.0009765625 385 -9.9990234375 283 -9.9990234375 c 1
 270 -17.9990234375 263 -29.9990234375 263 -47.9990234375 c 0
 263 -84.36328125 290.49609375 -97.60546875 327.2109375 -97.60546875 c 0
 336.940429688 -97.60546875 347.31640625 -96.67578125 358 -95 c 1
 359 -171 l 1
 346 -172 334 -173 323 -173 c 0
 245 -173 188 -133 188 -70 c 0
 188 -40 196 -18 212 -2 c 1
 102 24 41 112 41 228 c 0
 41 368 133 466 276 466 c 0
 418 466 510 365 510 228 c 2
EndSplineSet
EndChar

StartChar: Ecaron
Encoding: 282 282 204
Width: 569
GlyphClass: 2
Flags: W
AnchorPoint: "Anchor-9" 0 0 basechar 0
AnchorPoint: "Anchor-8" 0 0 basechar 0
AnchorPoint: "Anchor-7" 285 860 basechar 0
AnchorPoint: "Anchor-6" 395 10 basechar 0
AnchorPoint: "Anchor-5" 285 0 basechar 0
LayerCount: 2
Fore
SplineSet
72 553 m 1
 522 553 l 1
 522 471 l 1
 174 471 l 1
 174 323 l 1
 486 323 l 1
 486 241 l 1
 174 241 l 1
 174 82 l 1
 522 82 l 1
 522 0 l 1
 72 0 l 1
 72 553 l 1
231 604 m 1
 128 758 l 1
 205 758 l 1
 284 666 l 1
 364 758 l 1
 441 758 l 1
 338 604 l 1
 231 604 l 1
EndSplineSet
EndChar

StartChar: ecaron
Encoding: 283 283 205
Width: 551
GlyphClass: 2
Flags: W
AnchorPoint: "Anchor-9" 0 0 basechar 0
AnchorPoint: "Anchor-8" 0 0 basechar 0
AnchorPoint: "Anchor-7" 276 671 basechar 0
AnchorPoint: "Anchor-6" 351 10 basechar 0
AnchorPoint: "Anchor-5" 276 0 basechar 0
LayerCount: 2
Fore
SplineSet
405 266 m 1
 394 336 349 384 276 384 c 0
 201 384 157 335 146 266 c 1
 405 266 l 1
41 228 m 0
 41 368 133 466 276 466 c 0
 418 466 510 365 510 228 c 2
 510 200 l 1
 145 200 l 1
 154 122 204 72 282 72 c 0
 329 72 364 92 389 131 c 1
 502 131 l 1
 466 39 384 -10 282 -10 c 0
 129 -10 41 89 41 228 c 0
223 517 m 1
 200 551 165 602 120 671 c 1
 197 671 l 1
 276 579 l 1
 298 604 324 635 356 671 c 1
 432 671 l 1
 330 517 l 1
 223 517 l 1
EndSplineSet
EndChar

StartChar: Gbreve
Encoding: 286 286 206
Width: 661
GlyphClass: 2
Flags: W
AnchorPoint: "Anchor-9" 0 0 basechar 0
AnchorPoint: "Anchor-8" 0 0 basechar 0
AnchorPoint: "Anchor-7" 331 758 basechar 0
AnchorPoint: "Anchor-6" 0 0 basechar 0
AnchorPoint: "Anchor-5" 331 0 basechar 0
LayerCount: 2
Fore
SplineSet
498 379 m 1
 480 447 416 483 336 484 c 0
 221 484 148 397 148 276 c 0
 148 155 229 69 339 69 c 0
 436 69 504 128 521 215 c 1
 324 215 l 1
 324 292 l 1
 605 292 l 1
 605 0 l 1
 529 0 l 1
 527 13 525 37 523 70 c 1
 518 64 l 2
 477 11 416 -15 336 -15 c 0
 161 -15 41 110 41 276 c 0
 41 445 161 568 334 568 c 0
 407 568 467 549 514 511 c 0
 561 473 589 429 598 379 c 1
 498 379 l 1
503 758 m 1
 503 657 436 597 331 597 c 0
 224 597 159 659 159 758 c 1
 231 758 l 1
 231 691 272 655 331 655 c 0
 395 655 430 699 430 758 c 1
 503 758 l 1
EndSplineSet
EndChar

StartChar: gbreve
Encoding: 287 287 207
Width: 581
GlyphClass: 2
Flags: W
AnchorPoint: "Anchor-9" 0 0 basechar 0
AnchorPoint: "Anchor-8" 0 0 basechar 0
AnchorPoint: "Anchor-7" 291 670 basechar 0
AnchorPoint: "Anchor-6" 0 0 basechar 0
AnchorPoint: "Anchor-5" 291 0 basechar 0
LayerCount: 2
Fore
SplineSet
274 387 m 0
 187 387 141 316 141 233 c 0
 141 141 191 79 274 79 c 0
 362 79 410 150 410 233 c 0
 410 318 360 387 274 387 c 0
410 71 m 1
 379 25 332 0 256 0 c 0
 119 0 41 101 41 233 c 0
 41 367 121 466 256 466 c 0
 327 466 377 444 406 401 c 2
 416 386 l 1
 420 456 l 1
 509 456 l 1
 509 38 l 2
 509 -103 419 -174 282 -174 c 0
 213 -174 161 -162 126 -137 c 0
 91 -112 72 -83 68 -49 c 1
 171 -49 l 1
 181 -86 235 -95 280 -95 c 0
 356 -95 410 -57 410 20 c 2
 410 71 l 1
463 670 m 1
 463 569 396 509 291 509 c 0
 184 509 119 571 119 670 c 1
 191 670 l 1
 191 603 232 567 291 567 c 0
 355 567 390 611 390 670 c 1
 463 670 l 1
EndSplineSet
EndChar

StartChar: Gdotaccent
Encoding: 288 288 208
Width: 661
GlyphClass: 2
Flags: W
AnchorPoint: "Anchor-9" 0 0 basechar 0
AnchorPoint: "Anchor-8" 0 0 basechar 0
AnchorPoint: "Anchor-7" 331 753 basechar 0
AnchorPoint: "Anchor-6" 0 0 basechar 0
AnchorPoint: "Anchor-5" 331 0 basechar 0
LayerCount: 2
Fore
SplineSet
498 379 m 1
 480 447 416 483 336 484 c 0
 221 484 148 397 148 276 c 0
 148 155 229 69 339 69 c 0
 436 69 504 128 521 215 c 1
 324 215 l 1
 324 292 l 1
 605 292 l 1
 605 0 l 1
 529 0 l 1
 527 13 525 37 523 70 c 1
 518 64 l 2
 477 11 416 -15 336 -15 c 0
 161 -15 41 110 41 276 c 0
 41 445 161 568 334 568 c 0
 407 568 467 549 514 511 c 0
 561 473 589 429 598 379 c 1
 498 379 l 1
264 689 m 0
 264 727 291 753 330 753 c 0
 373 753 397 725 397 689 c 0
 397 650 370 625 330 625 c 0
 288 625 264 653 264 689 c 0
EndSplineSet
EndChar

StartChar: gdotaccent
Encoding: 289 289 209
Width: 581
GlyphClass: 2
Flags: W
AnchorPoint: "Anchor-9" 0 0 basechar 0
AnchorPoint: "Anchor-8" 0 0 basechar 0
AnchorPoint: "Anchor-7" 291 644 basechar 0
AnchorPoint: "Anchor-6" 0 0 basechar 0
AnchorPoint: "Anchor-5" 291 0 basechar 0
LayerCount: 2
Fore
SplineSet
274 387 m 0
 187 387 141 316 141 233 c 0
 141 141 191 79 274 79 c 0
 362 79 410 150 410 233 c 0
 410 318 360 387 274 387 c 0
410 71 m 1
 379 25 332 0 256 0 c 0
 119 0 41 101 41 233 c 0
 41 367 121 466 256 466 c 0
 327 466 377 444 406 401 c 2
 416 386 l 1
 420 456 l 1
 509 456 l 1
 509 38 l 2
 509 -103 419 -174 282 -174 c 0
 213 -174 161 -162 126 -137 c 0
 91 -112 72 -83 68 -49 c 1
 171 -49 l 1
 181 -86 235 -95 280 -95 c 0
 356 -95 410 -57 410 20 c 2
 410 71 l 1
224 580 m 0
 224 618 251 644 290 644 c 0
 333 644 357 616 357 580 c 0
 357 541 330 516 290 516 c 0
 248 516 224 544 224 580 c 0
EndSplineSet
EndChar

StartChar: Gcommaaccent
Encoding: 290 290 210
Width: 661
GlyphClass: 2
Flags: W
AnchorPoint: "Anchor-9" 0 0 basechar 0
AnchorPoint: "Anchor-8" 0 0 basechar 0
AnchorPoint: "Anchor-7" 331 860 basechar 0
AnchorPoint: "Anchor-6" 0 0 basechar 0
AnchorPoint: "Anchor-5" 331 -216 basechar 0
LayerCount: 2
Fore
SplineSet
266 -216 m 1
 296 -45 l 1
 396 -45 l 1
 325 -216 l 1
 266 -216 l 1
498 379 m 1
 480 447 416 483 336 484 c 0
 221 484 148 397 148 276 c 0
 148 155 229 69 339 69 c 0
 436 69 504 128 521 215 c 1
 324 215 l 1
 324 292 l 1
 605 292 l 1
 605 0 l 1
 529 0 l 1
 527 13 525 37 523 70 c 1
 518 64 l 2
 477 11 416 -15 336 -15 c 0
 161 -15 41 110 41 276 c 0
 41 445 161 568 334 568 c 0
 407 568 467 549 514 511 c 0
 561 473 589 429 598 379 c 1
 498 379 l 1
EndSplineSet
EndChar

StartChar: gcommaaccent
Encoding: 291 291 211
Width: 581
GlyphClass: 2
Flags: W
AnchorPoint: "Anchor-9" 0 0 basechar 0
AnchorPoint: "Anchor-8" 0 0 basechar 0
AnchorPoint: "Anchor-7" 291 688 basechar 0
AnchorPoint: "Anchor-6" 0 0 basechar 0
AnchorPoint: "Anchor-5" 291 0 basechar 0
LayerCount: 2
Fore
SplineSet
274 387 m 0
 187 387 141 316 141 233 c 0
 141 141 191 79 274 79 c 0
 362 79 410 150 410 233 c 0
 410 318 360 387 274 387 c 0
410 71 m 1
 379 25 332 0 256 0 c 0
 119 0 41 101 41 233 c 0
 41 367 121 466 256 466 c 0
 327 466 377 444 406 401 c 2
 416 386 l 1
 420 456 l 1
 509 456 l 1
 509 38 l 2
 509 -103 419 -174 282 -174 c 0
 213 -174 161 -162 126 -137 c 0
 91 -112 72 -83 68 -49 c 1
 171 -49 l 1
 181 -86 235 -95 280 -95 c 0
 356 -95 410 -57 410 20 c 2
 410 71 l 1
356 688 m 1
 326 517 l 1
 226 517 l 1
 297 688 l 1
 356 688 l 1
EndSplineSet
EndChar

StartChar: Hbar
Encoding: 294 294 212
Width: 696
GlyphClass: 2
Flags: W
AnchorPoint: "Anchor-9" 0 0 basechar 0
AnchorPoint: "Anchor-8" 348 430 basechar 0
AnchorPoint: "Anchor-7" 348 860 basechar 0
AnchorPoint: "Anchor-6" 0 0 basechar 0
AnchorPoint: "Anchor-5" 348 0 basechar 0
LayerCount: 2
Fore
SplineSet
522 323 m 1
 522 392 l 1
 174 392 l 1
 174 323 l 1
 522 323 l 1
648 467 m 1
 648 392 l 1
 625 392 l 1
 625 0 l 1
 522 0 l 1
 522 241 l 1
 174 241 l 1
 174 0 l 1
 72 0 l 1
 72 392 l 1
 48 392 l 1
 48 467 l 1
 72 467 l 1
 72 553 l 1
 174 553 l 1
 174 467 l 1
 522 467 l 1
 522 553 l 1
 625 553 l 1
 625 467 l 1
 648 467 l 1
EndSplineSet
EndChar

StartChar: hbar
Encoding: 295 295 213
Width: 580
GlyphClass: 2
Flags: W
AnchorPoint: "Anchor-9" 0 0 basechar 0
AnchorPoint: "Anchor-8" 150 533 basechar 0
AnchorPoint: "Anchor-7" 290 456 basechar 0
AnchorPoint: "Anchor-6" 0 0 basechar 0
AnchorPoint: "Anchor-5" 290 0 basechar 0
LayerCount: 2
Fore
SplineSet
172 394 m 1
 204 439 259 463 325 463 c 0
 448 463 512 392 512 264 c 2
 512 0 l 1
 412 0 l 1
 412 264 l 2
 412 306 401 336 378 354 c 0
 355 372 329 381 300 381 c 0
 270 381 241 372 213 354 c 0
 186 336 172 306 172 264 c 2
 172 0 l 1
 72 0 l 1
 72 495 l 1
 25 495 l 1
 25 570 l 1
 72 570 l 1
 72 625 l 1
 172 625 l 1
 172 570 l 1
 275 570 l 1
 275 495 l 1
 172 495 l 1
 172 394 l 1
EndSplineSet
EndChar

StartChar: Imacron
Encoding: 298 298 214
Width: 256
GlyphClass: 2
Flags: W
AnchorPoint: "Anchor-9" 0 0 basechar 0
AnchorPoint: "Anchor-8" 0 0 basechar 0
AnchorPoint: "Anchor-7" 128 688 basechar 0
AnchorPoint: "Anchor-6" 179 10 basechar 0
AnchorPoint: "Anchor-5" 128 0 basechar 0
LayerCount: 2
Fore
SplineSet
77 553 m 1
 179 553 l 1
 179 0 l 1
 77 0 l 1
 77 553 l 1
-13 681 m 1
 267 681 l 1
 267 604 l 1
 -13 604 l 1
 -13 681 l 1
EndSplineSet
EndChar

StartChar: imacron
Encoding: 299 299 215
Width: 254
GlyphClass: 2
Flags: W
AnchorPoint: "Anchor-9" 0 0 basechar 0
AnchorPoint: "Anchor-8" 0 0 basechar 0
AnchorPoint: "Anchor-7" 127 601 basechar 0
AnchorPoint: "Anchor-6" 182 10 basechar 0
AnchorPoint: "Anchor-5" 127 0 basechar 0
LayerCount: 2
Fore
SplineSet
182 456 m 1
 182 0 l 1
 82 0 l 1
 82 456 l 1
 182 456 l 1
-14 594 m 1
 266 594 l 1
 266 517 l 1
 -14 517 l 1
 -14 594 l 1
EndSplineSet
EndChar

StartChar: Iogonek
Encoding: 302 302 216
Width: 256
GlyphClass: 2
Flags: W
AnchorPoint: "Anchor-9" 0 0 basechar 0
AnchorPoint: "Anchor-8" 0 0 basechar 0
AnchorPoint: "Anchor-7" 128 860 basechar 0
AnchorPoint: "Anchor-6" 179 10 basechar 0
AnchorPoint: "Anchor-5" 128 0 basechar 0
LayerCount: 2
Fore
SplineSet
186 -95 m 1
 187 -170.999023438 l 1
 174 -171.999023438 162 -172.999023438 151 -172.999023438 c 0
 73 -172.999023438 16 -132.999023438 16 -69.9990234375 c 0
 16 -21.9990234375 35 5.0009765625 77 18.0009765625 c 1
 77 553.000976562 l 1
 179 553.000976562 l 1
 179 0.0009765625 l 1
 155 0.0009765625 l 2
 113 -1.9990234375 91 -14.9990234375 91 -47.9990234375 c 0
 91 -84.36328125 118.49609375 -97.60546875 155.2109375 -97.60546875 c 0
 164.940429688 -97.60546875 175.31640625 -96.67578125 186 -95 c 1
EndSplineSet
EndChar

StartChar: iogonek
Encoding: 303 303 217
Width: 254
GlyphClass: 2
Flags: W
AnchorPoint: "Anchor-9" 0 0 basechar 0
AnchorPoint: "Anchor-8" 0 0 basechar 0
AnchorPoint: "Anchor-7" 127 644 basechar 0
AnchorPoint: "Anchor-6" 182 10 basechar 0
AnchorPoint: "Anchor-5" 127 0 basechar 0
LayerCount: 2
Fore
SplineSet
94 -48 m 0
 94 -84.3642578125 121.49609375 -97.60546875 158.2109375 -97.60546875 c 0
 167.940429688 -97.60546875 178.31640625 -96.67578125 189 -95 c 1
 190 -171 l 1
 177 -172 165 -173 154 -173 c 0
 76 -173 19 -133 19 -70 c 0
 19 -21 39 6 82 19 c 1
 82 456 l 1
 182 456 l 1
 182 0 l 1
 158 0 l 2
 116 -2 94 -15 94 -48 c 0
126 516.000976562 m 0
 84 516.000976562 60 544.000976562 60 580.000976562 c 0
 60 618.000976562 87 644.000976562 126 644.000976562 c 0
 169 644.000976562 193 616.000976562 193 580.000976562 c 0
 193 541.000976562 166 516.000976562 126 516.000976562 c 0
EndSplineSet
EndChar

StartChar: Idotaccent
Encoding: 304 304 218
Width: 256
GlyphClass: 2
Flags: W
AnchorPoint: "Anchor-9" 0 0 basechar 0
AnchorPoint: "Anchor-8" 0 0 basechar 0
AnchorPoint: "Anchor-7" 128 753 basechar 0
AnchorPoint: "Anchor-6" 179 10 basechar 0
AnchorPoint: "Anchor-5" 128 0 basechar 0
LayerCount: 2
Fore
SplineSet
77 553 m 1
 179 553 l 1
 179 0 l 1
 77 0 l 1
 77 553 l 1
61 689 m 0
 61 727 88 753 127 753 c 0
 170 753 194 725 194 689 c 0
 194 650 167 625 127 625 c 0
 85 625 61 653 61 689 c 0
EndSplineSet
EndChar

StartChar: dotlessi
Encoding: 305 305 219
Width: 254
GlyphClass: 2
Flags: W
AnchorPoint: "Anchor-9" 0 0 basechar 0
AnchorPoint: "Anchor-8" 0 0 basechar 0
AnchorPoint: "Anchor-7" 127 456 basechar 0
AnchorPoint: "Anchor-6" 182 10 basechar 0
AnchorPoint: "Anchor-5" 127 0 basechar 0
LayerCount: 2
Fore
SplineSet
182 456 m 1
 182 0 l 1
 82 0 l 1
 82 456 l 1
 182 456 l 1
EndSplineSet
EndChar

StartChar: Kcommaaccent
Encoding: 310 310 220
Width: 640
GlyphClass: 2
Flags: W
AnchorPoint: "Anchor-9" 0 0 basechar 0
AnchorPoint: "Anchor-8" 0 0 basechar 0
AnchorPoint: "Anchor-7" 320 860 basechar 0
AnchorPoint: "Anchor-6" 0 0 basechar 0
AnchorPoint: "Anchor-5" 320 -216 basechar 0
LayerCount: 2
Fore
SplineSet
255 -216 m 1
 285 -45 l 1
 385 -45 l 1
 314 -216 l 1
 255 -216 l 1
374 346 m 1
 630 0 l 1
 504 0 l 1
 300 279 l 1
 174 165 l 1
 174 0 l 1
 72 0 l 1
 72 553 l 1
 174 553 l 1
 174 286 l 1
 471 553 l 1
 602 553 l 1
 374 346 l 1
EndSplineSet
EndChar

StartChar: kcommaaccent
Encoding: 311 311 221
Width: 535
GlyphClass: 2
Flags: W
AnchorPoint: "Anchor-9" 0 0 basechar 0
AnchorPoint: "Anchor-8" 0 0 basechar 0
AnchorPoint: "Anchor-7" 268 456 basechar 0
AnchorPoint: "Anchor-6" 0 0 basechar 0
AnchorPoint: "Anchor-5" 268 -216 basechar 0
LayerCount: 2
Fore
SplineSet
203 -216 m 1
 233 -45 l 1
 333 -45 l 1
 262 -216 l 1
 203 -216 l 1
172 625 m 1
 172 247 l 1
 379 456 l 1
 502 456 l 1
 314 269 l 1
 528 0 l 1
 410 0 l 1
 249 204 l 1
 172 127 l 1
 172 0 l 1
 72 0 l 1
 72 625 l 1
 172 625 l 1
EndSplineSet
EndChar

StartChar: Lacute
Encoding: 313 313 222
Width: 523
GlyphClass: 2
Flags: W
AnchorPoint: "Anchor-9" 503 860 basechar 0
AnchorPoint: "Anchor-8" 121 329 basechar 0
AnchorPoint: "Anchor-7" 300 758 basechar 0
AnchorPoint: "Anchor-6" 0 0 basechar 0
AnchorPoint: "Anchor-5" 262 0 basechar 0
LayerCount: 2
Fore
SplineSet
492 82 m 1
 492 0 l 1
 72 0 l 1
 72 553 l 1
 174 553 l 1
 174 82 l 1
 492 82 l 1
190 604 m 1
 282 758 l 1
 410 758 l 1
 282 604 l 1
 190 604 l 1
EndSplineSet
EndChar

StartChar: lacute
Encoding: 314 314 223
Width: 243
GlyphClass: 2
Flags: W
AnchorPoint: "Anchor-9" 327 625 basechar 0
AnchorPoint: "Anchor-8" 122 312 basechar 0
AnchorPoint: "Anchor-7" 178 840 basechar 0
AnchorPoint: "Anchor-6" 0 0 basechar 0
AnchorPoint: "Anchor-5" 122 0 basechar 0
LayerCount: 2
Fore
SplineSet
172 625 m 1
 172 0 l 1
 72 0 l 1
 72 625 l 1
 172 625 l 1
68 686 m 1
 160 840 l 1
 288 840 l 1
 160 686 l 1
 68 686 l 1
EndSplineSet
EndChar

StartChar: Lcommaaccent
Encoding: 315 315 224
Width: 523
GlyphClass: 2
Flags: W
AnchorPoint: "Anchor-9" 503 860 basechar 0
AnchorPoint: "Anchor-8" 121 329 basechar 0
AnchorPoint: "Anchor-7" 262 860 basechar 0
AnchorPoint: "Anchor-6" 0 0 basechar 0
AnchorPoint: "Anchor-5" 262 -216 basechar 0
LayerCount: 2
Fore
SplineSet
197 -216 m 1
 227 -45 l 1
 327 -45 l 1
 256 -216 l 1
 197 -216 l 1
492 82 m 1
 492 0 l 1
 72 0 l 1
 72 553 l 1
 174 553 l 1
 174 82 l 1
 492 82 l 1
EndSplineSet
EndChar

StartChar: lcommaaccent
Encoding: 316 316 225
Width: 243
GlyphClass: 2
Flags: W
AnchorPoint: "Anchor-9" 327 625 basechar 0
AnchorPoint: "Anchor-8" 122 312 basechar 0
AnchorPoint: "Anchor-7" 143 625 basechar 0
AnchorPoint: "Anchor-6" 0 0 basechar 0
AnchorPoint: "Anchor-5" 122 -216 basechar 0
LayerCount: 2
Fore
SplineSet
57 -216 m 1
 87 -45 l 1
 187 -45 l 1
 116 -216 l 1
 57 -216 l 1
172 625 m 1
 172 0 l 1
 72 0 l 1
 72 625 l 1
 172 625 l 1
EndSplineSet
EndChar

StartChar: Lcaron
Encoding: 317 317 226
Width: 523
GlyphClass: 2
Flags: W
AnchorPoint: "Anchor-9" 503 860 basechar 0
AnchorPoint: "Anchor-8" 121 329 basechar 0
AnchorPoint: "Anchor-7" 262 860 basechar 0
AnchorPoint: "Anchor-6" 0 0 basechar 0
AnchorPoint: "Anchor-5" 0 0 basechar 0
LayerCount: 2
Fore
SplineSet
492 82 m 1
 492 0 l 1
 72 0 l 1
 72 553 l 1
 174 553 l 1
 174 82 l 1
 492 82 l 1
326 383 m 1
 356 554 l 1
 456 554 l 1
 385 383 l 1
 326 383 l 1
EndSplineSet
EndChar

StartChar: lcaron
Encoding: 318 318 227
Width: 243
GlyphClass: 2
Flags: W
AnchorPoint: "Anchor-9" 327 625 basechar 0
AnchorPoint: "Anchor-8" 122 312 basechar 0
AnchorPoint: "Anchor-7" 143 625 basechar 0
AnchorPoint: "Anchor-6" 0 0 basechar 0
AnchorPoint: "Anchor-5" 122 0 basechar 0
LayerCount: 2
Fore
SplineSet
224 454 m 1
 240 625 l 1
 327 625 l 1
 270 454 l 1
 224 454 l 1
172 625 m 1
 172 0 l 1
 72 0 l 1
 72 625 l 1
 172 625 l 1
EndSplineSet
EndChar

StartChar: Lslash
Encoding: 321 321 228
Width: 523
GlyphClass: 2
Flags: W
AnchorPoint: "Anchor-9" 503 860 basechar 0
AnchorPoint: "Anchor-8" 121 329 basechar 0
AnchorPoint: "Anchor-7" 262 860 basechar 0
AnchorPoint: "Anchor-6" 0 0 basechar 0
AnchorPoint: "Anchor-5" 262 0 basechar 0
LayerCount: 2
Fore
SplineSet
174 82 m 1
 492 82 l 1
 492 0 l 1
 72 0 l 1
 72 226 l 1
 22 165 l 1
 -18 197 l 1
 72 308 l 1
 72 553 l 1
 174 553 l 1
 174 433 l 1
 219 488 l 1
 259 455 l 1
 174 351 l 1
 174 82 l 1
EndSplineSet
EndChar

StartChar: lslash
Encoding: 322 322 229
Width: 243
GlyphClass: 2
Flags: W
AnchorPoint: "Anchor-9" 327 625 basechar 0
AnchorPoint: "Anchor-8" 122 312 basechar 0
AnchorPoint: "Anchor-7" 143 625 basechar 0
AnchorPoint: "Anchor-6" 0 0 basechar 0
AnchorPoint: "Anchor-5" 122 0 basechar 0
LayerCount: 2
Fore
SplineSet
260 438 m 1
 172 330 l 1
 172 0 l 1
 72 0 l 1
 72 208 l 1
 23 148 l 1
 -17 180 l 1
 72 289 l 1
 72 625 l 1
 172 625 l 1
 172 412 l 1
 220 471 l 1
 260 438 l 1
EndSplineSet
EndChar

StartChar: Nacute
Encoding: 323 323 230
Width: 696
GlyphClass: 2
Flags: W
AnchorPoint: "Anchor-9" 0 0 basechar 0
AnchorPoint: "Anchor-8" 0 0 basechar 0
AnchorPoint: "Anchor-7" 386 758 basechar 0
AnchorPoint: "Anchor-6" 0 0 basechar 0
AnchorPoint: "Anchor-5" 348 0 basechar 0
LayerCount: 2
Fore
SplineSet
72 553 m 1
 189 553 l 1
 522 123 l 1
 522 553 l 1
 625 553 l 1
 625 0 l 1
 507 0 l 1
 174 430 l 1
 174 0 l 1
 72 0 l 1
 72 553 l 1
276 604 m 1
 368 758 l 1
 496 758 l 1
 368 604 l 1
 276 604 l 1
EndSplineSet
EndChar

StartChar: nacute
Encoding: 324 324 231
Width: 580
GlyphClass: 2
Flags: W
AnchorPoint: "Anchor-9" 0 0 basechar 0
AnchorPoint: "Anchor-8" 0 0 basechar 0
AnchorPoint: "Anchor-7" 325 671 basechar 0
AnchorPoint: "Anchor-6" 0 0 basechar 0
AnchorPoint: "Anchor-5" 290 0 basechar 0
LayerCount: 2
Fore
SplineSet
161 456 m 1
 165 384 l 1
 198 440 262 463 325 463 c 0
 448 463 512 392 512 264 c 2
 512 0 l 1
 412 0 l 1
 412 264 l 2
 412 340 367 381 300 381 c 0
 227 381 172 339 172 264 c 2
 172 0 l 1
 72 0 l 1
 72 456 l 1
 161 456 l 1
215 517 m 1
 307 671 l 1
 435 671 l 1
 307 517 l 1
 215 517 l 1
EndSplineSet
EndChar

StartChar: Ncommaaccent
Encoding: 325 325 232
Width: 696
GlyphClass: 2
Flags: W
AnchorPoint: "Anchor-9" 0 0 basechar 0
AnchorPoint: "Anchor-8" 0 0 basechar 0
AnchorPoint: "Anchor-7" 348 860 basechar 0
AnchorPoint: "Anchor-6" 0 0 basechar 0
AnchorPoint: "Anchor-5" 348 -216 basechar 0
LayerCount: 2
Fore
SplineSet
283 -216 m 1
 313 -45 l 1
 413 -45 l 1
 342 -216 l 1
 283 -216 l 1
72 553 m 1
 189 553 l 1
 522 123 l 1
 522 553 l 1
 625 553 l 1
 625 0 l 1
 507 0 l 1
 174 430 l 1
 174 0 l 1
 72 0 l 1
 72 553 l 1
EndSplineSet
EndChar

StartChar: ncommaaccent
Encoding: 326 326 233
Width: 580
GlyphClass: 2
Flags: W
AnchorPoint: "Anchor-9" 0 0 basechar 0
AnchorPoint: "Anchor-8" 0 0 basechar 0
AnchorPoint: "Anchor-7" 290 456 basechar 0
AnchorPoint: "Anchor-6" 0 0 basechar 0
AnchorPoint: "Anchor-5" 290 -216 basechar 0
LayerCount: 2
Fore
SplineSet
225 -216 m 1
 255 -45 l 1
 355 -45 l 1
 284 -216 l 1
 225 -216 l 1
161 456 m 1
 165 384 l 1
 198 440 262 463 325 463 c 0
 448 463 512 392 512 264 c 2
 512 0 l 1
 412 0 l 1
 412 264 l 2
 412 340 367 381 300 381 c 0
 227 381 172 339 172 264 c 2
 172 0 l 1
 72 0 l 1
 72 456 l 1
 161 456 l 1
EndSplineSet
EndChar

StartChar: Ncaron
Encoding: 327 327 234
Width: 696
GlyphClass: 2
Flags: W
AnchorPoint: "Anchor-9" 0 0 basechar 0
AnchorPoint: "Anchor-8" 0 0 basechar 0
AnchorPoint: "Anchor-7" 348 860 basechar 0
AnchorPoint: "Anchor-6" 0 0 basechar 0
AnchorPoint: "Anchor-5" 348 0 basechar 0
LayerCount: 2
Fore
SplineSet
72 553 m 1
 189 553 l 1
 522 123 l 1
 522 553 l 1
 625 553 l 1
 625 0 l 1
 507 0 l 1
 174 430 l 1
 174 0 l 1
 72 0 l 1
 72 553 l 1
294 604 m 1
 191 758 l 1
 268 758 l 1
 347 666 l 1
 427 758 l 1
 504 758 l 1
 401 604 l 1
 294 604 l 1
EndSplineSet
EndChar

StartChar: ncaron
Encoding: 328 328 235
Width: 580
GlyphClass: 2
Flags: W
AnchorPoint: "Anchor-9" 0 0 basechar 0
AnchorPoint: "Anchor-8" 0 0 basechar 0
AnchorPoint: "Anchor-7" 290 671 basechar 0
AnchorPoint: "Anchor-6" 0 0 basechar 0
AnchorPoint: "Anchor-5" 290 0 basechar 0
LayerCount: 2
Fore
SplineSet
161 456 m 1
 165 384 l 1
 198 440 262 463 325 463 c 0
 448 463 512 392 512 264 c 2
 512 0 l 1
 412 0 l 1
 412 264 l 2
 412 340 367 381 300 381 c 0
 227 381 172 339 172 264 c 2
 172 0 l 1
 72 0 l 1
 72 456 l 1
 161 456 l 1
237 517 m 1
 214 551 179 602 134 671 c 1
 211 671 l 1
 290 579 l 1
 312 604 338 635 370 671 c 1
 446 671 l 1
 344 517 l 1
 237 517 l 1
EndSplineSet
EndChar

StartChar: Eng
Encoding: 330 330 236
Width: 696
GlyphClass: 2
Flags: W
AnchorPoint: "Anchor-9" 0 0 basechar 0
AnchorPoint: "Anchor-8" 0 0 basechar 0
AnchorPoint: "Anchor-7" 348 860 basechar 0
AnchorPoint: "Anchor-6" 0 0 basechar 0
AnchorPoint: "Anchor-5" 348 0 basechar 0
LayerCount: 2
Fore
SplineSet
522 553 m 1
 625 553 l 1
 625 0 l 2
 625 -108 588 -172 482 -172 c 0
 465 -172 428 -168 414 -164 c 1
 414 -84 l 1
 426 -87 458 -90 471 -90 c 0
 514 -90 520 -59 522 -19 c 1
 174 430 l 1
 174 0 l 1
 72 0 l 1
 72 553 l 1
 189 553 l 1
 522 123 l 1
 522 553 l 1
EndSplineSet
EndChar

StartChar: eng
Encoding: 331 331 237
Width: 580
GlyphClass: 2
Flags: W
AnchorPoint: "Anchor-9" 0 0 basechar 0
AnchorPoint: "Anchor-8" 0 0 basechar 0
AnchorPoint: "Anchor-7" 290 456 basechar 0
AnchorPoint: "Anchor-6" 0 0 basechar 0
AnchorPoint: "Anchor-5" 290 0 basechar 0
LayerCount: 2
Fore
SplineSet
512 0 m 2
 512.046875 -2.5546875 512.0703125 -5.0859375 512.0703125 -7.5908203125 c 0
 512.0703125 -110.9921875 471.515625 -172 369 -172 c 0
 352 -172 315 -168 301 -164 c 1
 301 -84 l 1
 313 -87 345 -90 358 -90 c 0
 403 -90 412 -54 412 0 c 2
 412 264 l 2
 412 340 367 381 300 381 c 0
 227 381 172 339 172 264 c 2
 172 0 l 1
 72 0 l 1
 72 456 l 1
 161 456 l 1
 165 384 l 1
 198 440 262 463 325 463 c 0
 448 463 512 392 512 264 c 2
 512 0 l 2
EndSplineSet
EndChar

StartChar: Omacron
Encoding: 332 332 238
Width: 671
GlyphClass: 2
Flags: W
AnchorPoint: "Anchor-9" 651 860 basechar 0
AnchorPoint: "Anchor-8" 336 277 basechar 0
AnchorPoint: "Anchor-7" 336 688 basechar 0
AnchorPoint: "Anchor-6" 419 10 basechar 0
AnchorPoint: "Anchor-5" 336 0 basechar 0
LayerCount: 2
Fore
SplineSet
522 276 m 0
 522 399 447 484 335 484 c 0
 223 484 148 396 148 276 c 0
 148 155 225 69 335 69 c 0
 448 69 522 156 522 276 c 0
335 -15 m 0
 160 -15 41 109 41 276 c 0
 41 445 161 568 335 568 c 0
 512 568 630 444 630 276 c 0
 630 107 509 -15 335 -15 c 0
195 681 m 1
 475 681 l 1
 475 604 l 1
 195 604 l 1
 195 681 l 1
EndSplineSet
EndChar

StartChar: omacron
Encoding: 333 333 239
Width: 568
GlyphClass: 2
Flags: W
AnchorPoint: "Anchor-9" 548 456 basechar 0
AnchorPoint: "Anchor-8" 284 228 basechar 0
AnchorPoint: "Anchor-7" 284 601 basechar 0
AnchorPoint: "Anchor-6" 511 10 basechar 0
AnchorPoint: "Anchor-5" 284 0 basechar 0
LayerCount: 2
Fore
SplineSet
425 228 m 0
 425 317 371 384 284 384 c 0
 198 384 143 317 143 228 c 0
 143 138 197 72 284 72 c 0
 375 72 425 141 425 228 c 0
41 228 m 0
 41 297 63 354 106 399 c 0
 149 444 209 466 284 466 c 0
 359 466 419 444 462 399 c 0
 505 354 527 297 527 228 c 0
 527 159 505 102 462 57 c 0
 419 12 360 -10 285 -10 c 2
 284 -10 l 2
 209 -10 149 12 106 57 c 0
 63 102 41 159 41 228 c 0
143 594 m 1
 423 594 l 1
 423 517 l 1
 143 517 l 1
 143 594 l 1
EndSplineSet
EndChar

StartChar: Ohungarumlaut
Encoding: 336 336 240
Width: 671
GlyphClass: 2
Flags: W
AnchorPoint: "Anchor-9" 651 860 basechar 0
AnchorPoint: "Anchor-8" 336 277 basechar 0
AnchorPoint: "Anchor-7" 336 758 basechar 0
AnchorPoint: "Anchor-6" 419 10 basechar 0
AnchorPoint: "Anchor-5" 336 0 basechar 0
LayerCount: 2
Fore
SplineSet
522 276 m 0
 522 399 447 484 335 484 c 0
 223 484 148 396 148 276 c 0
 148 155 225 69 335 69 c 0
 448 69 522 156 522 276 c 0
335 -15 m 0
 160 -15 41 109 41 276 c 0
 41 445 161 568 335 568 c 0
 512 568 630 444 630 276 c 0
 630 107 509 -15 335 -15 c 0
361 604 m 1
 453 758 l 1
 581 758 l 1
 453 604 l 1
 361 604 l 1
166 604 m 1
 258 758 l 1
 386 758 l 1
 258 604 l 1
 166 604 l 1
EndSplineSet
EndChar

StartChar: ohungarumlaut
Encoding: 337 337 241
Width: 568
GlyphClass: 2
Flags: W
AnchorPoint: "Anchor-9" 548 456 basechar 0
AnchorPoint: "Anchor-8" 284 228 basechar 0
AnchorPoint: "Anchor-7" 284 671 basechar 0
AnchorPoint: "Anchor-6" 511 10 basechar 0
AnchorPoint: "Anchor-5" 284 0 basechar 0
LayerCount: 2
Fore
SplineSet
425 228 m 0
 425 317 371 384 284 384 c 0
 198 384 143 317 143 228 c 0
 143 138 197 72 284 72 c 0
 375 72 425 141 425 228 c 0
41 228 m 0
 41 297 63 354 106 399 c 0
 149 444 209 466 284 466 c 0
 359 466 419 444 462 399 c 0
 505 354 527 297 527 228 c 0
 527 159 505 102 462 57 c 0
 419 12 360 -10 285 -10 c 2
 284 -10 l 2
 209 -10 149 12 106 57 c 0
 63 102 41 159 41 228 c 0
312 517 m 1
 404 671 l 1
 532 671 l 1
 404 517 l 1
 312 517 l 1
117 517 m 1
 209 671 l 1
 337 671 l 1
 209 517 l 1
 117 517 l 1
EndSplineSet
EndChar

StartChar: OE
Encoding: 338 338 242
Width: 1021
GlyphClass: 2
Flags: W
LayerCount: 2
Fore
SplineSet
522 276 m 0
 522 399 447 484 335 484 c 0
 223 484 148 396 148 276 c 0
 148 155 225 69 335 69 c 0
 448 69 522 156 522 276 c 0
317 -15 m 0
 162 -15 41 114 41 276 c 0
 41 439 156 568 317 568 c 0
 406 568 474 540 520 484 c 1
 522 482 l 1
 522 553 l 1
 970 553 l 1
 970 471 l 1
 622 471 l 1
 622 323 l 1
 934 323 l 1
 934 241 l 1
 622 241 l 1
 622 82 l 1
 970 82 l 1
 970 0 l 1
 522 0 l 1
 522 71 l 1
 520 69 l 1
 474 13 406 -15 317 -15 c 0
EndSplineSet
EndChar

StartChar: oe
Encoding: 339 339 243
Width: 923
GlyphClass: 2
Flags: W
LayerCount: 2
Fore
SplineSet
776 266 m 1
 765 336 720 384 648 384 c 0
 572 384 529 336 518 266 c 1
 776 266 l 1
425 228 m 0
 425 317 371 384 284 384 c 0
 198 384 143 317 143 228 c 0
 143 138 197 72 284 72 c 0
 375 72 425 141 425 228 c 0
41 228 m 0
 41 371 137 466 284 466 c 0
 358 466 419 440 461 381 c 1
 506 438 573 466 648 466 c 0
 787 466 881 367 881 228 c 0
 881 211 881 206 880 200 c 1
 517 200 l 1
 526 122 575 72 653 72 c 0
 700 72 735 92 760 131 c 1
 873 131 l 1
 837 39 755 -10 653 -10 c 0
 575 -10 507 16 461 75 c 1
 419 17 358 -10 284 -10 c 0
 134 -10 41 87 41 228 c 0
EndSplineSet
EndChar

StartChar: Racute
Encoding: 340 340 244
Width: 617
GlyphClass: 2
Flags: W
AnchorPoint: "Anchor-9" 0 0 basechar 0
AnchorPoint: "Anchor-8" 0 0 basechar 0
AnchorPoint: "Anchor-7" 347 758 basechar 0
AnchorPoint: "Anchor-6" 0 0 basechar 0
AnchorPoint: "Anchor-5" 309 0 basechar 0
LayerCount: 2
Fore
SplineSet
338 297 m 2
 407 297 456 318 456 384 c 0
 456 450 407 471 338 471 c 2
 174 471 l 1
 174 297 l 1
 338 297 l 2
338 553 m 2
 465 553 563 502 563 384 c 0
 563 333 544 292 506 261 c 0
 484 243 455 231 420 223 c 1
 589 0 l 1
 466 0 l 1
 308 215 l 1
 174 215 l 1
 174 0 l 1
 72 0 l 1
 72 553 l 1
 338 553 l 2
237 604 m 1
 329 758 l 1
 457 758 l 1
 329 604 l 1
 237 604 l 1
EndSplineSet
EndChar

StartChar: racute
Encoding: 341 341 245
Width: 382
GlyphClass: 2
Flags: W
AnchorPoint: "Anchor-9" 0 0 basechar 0
AnchorPoint: "Anchor-8" 0 0 basechar 0
AnchorPoint: "Anchor-7" 226 671 basechar 0
AnchorPoint: "Anchor-6" 0 0 basechar 0
AnchorPoint: "Anchor-5" 132 0 basechar 0
LayerCount: 2
Fore
SplineSet
165 384 m 1
 196 433 252 463 323 463 c 2
 340 463 l 1
 356 461 l 1
 356 360 l 1
 329 366 l 2
 319 367 308 368 297 368 c 0
 269 368 241 360 213 345 c 0
 186 330 172 301 172 258 c 2
 172 0 l 1
 72 0 l 1
 72 456 l 1
 161 456 l 1
 165 384 l 1
116 517 m 1
 208 671 l 1
 336 671 l 1
 208 517 l 1
 116 517 l 1
EndSplineSet
EndChar

StartChar: Rcommaaccent
Encoding: 342 342 246
Width: 617
GlyphClass: 2
Flags: W
AnchorPoint: "Anchor-9" 0 0 basechar 0
AnchorPoint: "Anchor-8" 0 0 basechar 0
AnchorPoint: "Anchor-7" 309 860 basechar 0
AnchorPoint: "Anchor-6" 0 0 basechar 0
AnchorPoint: "Anchor-5" 309 -216 basechar 0
LayerCount: 2
Fore
SplineSet
244 -216 m 1
 274 -45 l 1
 374 -45 l 1
 303 -216 l 1
 244 -216 l 1
338 297 m 2
 407 297 456 318 456 384 c 0
 456 450 407 471 338 471 c 2
 174 471 l 1
 174 297 l 1
 338 297 l 2
338 553 m 2
 465 553 563 502 563 384 c 0
 563 333 544 292 506 261 c 0
 484 243 455 231 420 223 c 1
 589 0 l 1
 466 0 l 1
 308 215 l 1
 174 215 l 1
 174 0 l 1
 72 0 l 1
 72 553 l 1
 338 553 l 2
EndSplineSet
EndChar

StartChar: rcommaaccent
Encoding: 343 343 247
Width: 382
GlyphClass: 2
Flags: W
AnchorPoint: "Anchor-9" 0 0 basechar 0
AnchorPoint: "Anchor-8" 0 0 basechar 0
AnchorPoint: "Anchor-7" 191 456 basechar 0
AnchorPoint: "Anchor-6" 0 0 basechar 0
AnchorPoint: "Anchor-5" 132 -216 basechar 0
LayerCount: 2
Fore
SplineSet
67 -216 m 1
 97 -45 l 1
 197 -45 l 1
 126 -216 l 1
 67 -216 l 1
165 384 m 1
 196 433 252 463 323 463 c 2
 340 463 l 1
 356 461 l 1
 356 360 l 1
 329 366 l 2
 319 367 308 368 297 368 c 0
 269 368 241 360 213 345 c 0
 186 330 172 301 172 258 c 2
 172 0 l 1
 72 0 l 1
 72 456 l 1
 161 456 l 1
 165 384 l 1
EndSplineSet
EndChar

StartChar: Rcaron
Encoding: 344 344 248
Width: 617
GlyphClass: 2
Flags: W
AnchorPoint: "Anchor-9" 0 0 basechar 0
AnchorPoint: "Anchor-8" 0 0 basechar 0
AnchorPoint: "Anchor-7" 309 860 basechar 0
AnchorPoint: "Anchor-6" 0 0 basechar 0
AnchorPoint: "Anchor-5" 309 0 basechar 0
LayerCount: 2
Fore
SplineSet
338 297 m 2
 407 297 456 318 456 384 c 0
 456 450 407 471 338 471 c 2
 174 471 l 1
 174 297 l 1
 338 297 l 2
338 553 m 2
 465 553 563 502 563 384 c 0
 563 333 544 292 506 261 c 0
 484 243 455 231 420 223 c 1
 589 0 l 1
 466 0 l 1
 308 215 l 1
 174 215 l 1
 174 0 l 1
 72 0 l 1
 72 553 l 1
 338 553 l 2
255 604 m 1
 152 758 l 1
 229 758 l 1
 308 666 l 1
 388 758 l 1
 465 758 l 1
 362 604 l 1
 255 604 l 1
EndSplineSet
EndChar

StartChar: rcaron
Encoding: 345 345 249
Width: 382
GlyphClass: 2
Flags: W
AnchorPoint: "Anchor-9" 0 0 basechar 0
AnchorPoint: "Anchor-8" 0 0 basechar 0
AnchorPoint: "Anchor-7" 191 671 basechar 0
AnchorPoint: "Anchor-6" 0 0 basechar 0
AnchorPoint: "Anchor-5" 132 0 basechar 0
LayerCount: 2
Fore
SplineSet
165 384 m 1
 196 433 252 463 323 463 c 2
 340 463 l 1
 356 461 l 1
 356 360 l 1
 329 366 l 2
 319 367 308 368 297 368 c 0
 269 368 241 360 213 345 c 0
 186 330 172 301 172 258 c 2
 172 0 l 1
 72 0 l 1
 72 456 l 1
 161 456 l 1
 165 384 l 1
138 517 m 1
 115 551 80 602 35 671 c 1
 112 671 l 1
 191 579 l 1
 213 604 239 635 271 671 c 1
 347 671 l 1
 245 517 l 1
 138 517 l 1
EndSplineSet
EndChar

StartChar: Sacute
Encoding: 346 346 250
Width: 573
GlyphClass: 2
Flags: W
AnchorPoint: "Anchor-9" 0 0 basechar 0
AnchorPoint: "Anchor-8" 0 0 basechar 0
AnchorPoint: "Anchor-7" 325 758 basechar 0
AnchorPoint: "Anchor-6" 0 0 basechar 0
AnchorPoint: "Anchor-5" 287 0 basechar 0
LayerCount: 2
Fore
SplineSet
56 399 m 0
 56 514 186 566 287 566 c 0
 359 566 431 543 481 490 c 0
 505 465 517 431 517 389 c 1
 410 389 l 1
 410 448 352 484 287 484 c 0
 220 484 164 453 164 399 c 0
 164 369 186 351 219 341 c 0
 307 311 373 321 453 282 c 0
 509 255 532 213 532 159 c 0
 532 118 519 81 490 54 c 0
 440 4 359 -13 287 -13 c 0
 214 -13 131 8 83 59 c 0
 54 89 41 127 41 169 c 1
 148 169 l 1
 148 100 218 69 287 69 c 0
 359 69 425 91 425 154 c 0
 425 185 402 202 369 214 c 0
 277 248 227 230 136 275 c 0
 86 299 56 340 56 399 c 0
215 604 m 1
 307 758 l 1
 435 758 l 1
 307 604 l 1
 215 604 l 1
EndSplineSet
EndChar

StartChar: sacute
Encoding: 347 347 251
Width: 497
GlyphClass: 2
Flags: W
AnchorPoint: "Anchor-9" 0 0 basechar 0
AnchorPoint: "Anchor-8" 0 0 basechar 0
AnchorPoint: "Anchor-7" 284 671 basechar 0
AnchorPoint: "Anchor-6" 0 0 basechar 0
AnchorPoint: "Anchor-5" 257 0 basechar 0
LayerCount: 2
Fore
SplineSet
247 387 m 0
 197 387 152 365 152 329 c 0
 152 306 165 292 192 285 c 0
 268 265 340 262 391 236 c 0
 433 216 457 180 457 131 c 0
 457 32 354 -10 247 -10 c 0
 144 -10 41 34 41 131 c 1
 143 131 l 1
 144 87 198 69 247 69 c 0
 295 69 354 84 354 126 c 0
 354 151 336 166 308 175 c 0
 235 200 187 188 115 224 c 0
 72 245 49 280 49 329 c 0
 49 420 139 466 247 466 c 0
 355 466 444 410 444 315 c 1
 341 315 l 1
 341 360 291 387 247 387 c 0
174 517 m 1
 266 671 l 1
 394 671 l 1
 266 517 l 1
 174 517 l 1
EndSplineSet
EndChar

StartChar: Scedilla
Encoding: 350 350 252
Width: 573
GlyphClass: 2
Flags: W
AnchorPoint: "Anchor-9" 0 0 basechar 0
AnchorPoint: "Anchor-8" 0 0 basechar 0
AnchorPoint: "Anchor-7" 287 860 basechar 0
AnchorPoint: "Anchor-6" 0 0 basechar 0
AnchorPoint: "Anchor-5" 295 -234 basechar 0
LayerCount: 2
Fore
SplineSet
56 399 m 0
 56 514 186 566 287 566 c 0
 359 566 431 543 481 490 c 0
 505 465 517 431 517 389 c 1
 410 389 l 1
 410 448 352 484 287 484 c 0
 220 484 164 453 164 399 c 0
 164 369 186 351 219 341 c 0
 307 311 373 321 453 282 c 0
 509 255 532 213 532 159 c 0
 532 118 519 81 490 54 c 0
 445 9 375 -9 309 -12 c 1
 302 -40 l 1
 352 -47 381 -76 381 -132 c 0
 381 -194 322 -234 245 -234 c 0
 234 -234 222 -233 209 -232 c 1
 209 -178 l 1
 219.189453125 -179.372070312 229.340820312 -180.12890625 239.077148438 -180.12890625 c 0
 279.029296875 -180.12890625 312 -167.377929688 312 -132 c 0
 312 -97.2294921875 281.022460938 -86.7392578125 233.623046875 -86.7392578125 c 0
 229.219726562 -86.7392578125 224.674804688 -86.830078125 220 -87 c 1
 239 -10 l 1
 180 -3 121 19 83 59 c 0
 54 89 41 127 41 169 c 1
 148 169 l 1
 148 100 218 69 287 69 c 0
 359 69 425 91 425 154 c 0
 425 185 402 202 369 214 c 0
 277 248 227 230 136 275 c 0
 86 299 56 340 56 399 c 0
EndSplineSet
EndChar

StartChar: scedilla
Encoding: 351 351 253
Width: 497
GlyphClass: 2
Flags: W
AnchorPoint: "Anchor-9" 0 0 basechar 0
AnchorPoint: "Anchor-8" 0 0 basechar 0
AnchorPoint: "Anchor-7" 249 456 basechar 0
AnchorPoint: "Anchor-6" 0 0 basechar 0
AnchorPoint: "Anchor-5" 265 -234 basechar 0
LayerCount: 2
Fore
SplineSet
457 131 m 0
 457 42 374 -1 280 -9 c 1
 272 -40 l 1
 322 -47 351 -76 351 -132 c 0
 351 -194 292 -234 215 -234 c 0
 204 -234 192 -233 179 -232 c 1
 179 -178 l 1
 189.189453125 -179.372070312 199.340820312 -180.12890625 209.077148438 -180.12890625 c 0
 249.029296875 -180.12890625 282 -167.377929688 282 -132 c 0
 282 -97.2294921875 251.022460938 -86.7392578125 203.623046875 -86.7392578125 c 0
 199.219726562 -86.7392578125 194.674804688 -86.830078125 190 -87 c 1
 210 -8 l 1
 120 2 41 46 41 131 c 1
 143 131 l 1
 144 87 198 69 247 69 c 0
 295 69 354 84 354 126 c 0
 354 151 336 166 308 175 c 0
 235 200 187 188 115 224 c 0
 72 245 49 280 49 329 c 0
 49 420 139 466 247 466 c 0
 355 466 444 410 444 315 c 1
 341 315 l 1
 341 360 291 387 247 387 c 0
 197 387 152 365 152 329 c 0
 152 306 165 292 192 285 c 0
 268 265 340 262 391 236 c 0
 433 216 457 180 457 131 c 0
EndSplineSet
EndChar

StartChar: Scaron
Encoding: 352 352 254
Width: 573
GlyphClass: 2
Flags: W
AnchorPoint: "Anchor-9" 0 0 basechar 0
AnchorPoint: "Anchor-8" 0 0 basechar 0
AnchorPoint: "Anchor-7" 287 860 basechar 0
AnchorPoint: "Anchor-6" 0 0 basechar 0
AnchorPoint: "Anchor-5" 287 0 basechar 0
LayerCount: 2
Fore
SplineSet
56 399 m 0
 56 514 186 566 287 566 c 0
 359 566 431 543 481 490 c 0
 505 465 517 431 517 389 c 1
 410 389 l 1
 410 448 352 484 287 484 c 0
 220 484 164 453 164 399 c 0
 164 369 186 351 219 341 c 0
 307 311 373 321 453 282 c 0
 509 255 532 213 532 159 c 0
 532 118 519 81 490 54 c 0
 440 4 359 -13 287 -13 c 0
 214 -13 131 8 83 59 c 0
 54 89 41 127 41 169 c 1
 148 169 l 1
 148 100 218 69 287 69 c 0
 359 69 425 91 425 154 c 0
 425 185 402 202 369 214 c 0
 277 248 227 230 136 275 c 0
 86 299 56 340 56 399 c 0
233 604 m 1
 130 758 l 1
 207 758 l 1
 286 666 l 1
 366 758 l 1
 443 758 l 1
 340 604 l 1
 233 604 l 1
EndSplineSet
EndChar

StartChar: scaron
Encoding: 353 353 255
Width: 497
GlyphClass: 2
Flags: W
AnchorPoint: "Anchor-9" 0 0 basechar 0
AnchorPoint: "Anchor-8" 0 0 basechar 0
AnchorPoint: "Anchor-7" 249 671 basechar 0
AnchorPoint: "Anchor-6" 0 0 basechar 0
AnchorPoint: "Anchor-5" 257 0 basechar 0
LayerCount: 2
Fore
SplineSet
247 387 m 0
 197 387 152 365 152 329 c 0
 152 306 165 292 192 285 c 0
 268 265 340 262 391 236 c 0
 433 216 457 180 457 131 c 0
 457 32 354 -10 247 -10 c 0
 144 -10 41 34 41 131 c 1
 143 131 l 1
 144 87 198 69 247 69 c 0
 295 69 354 84 354 126 c 0
 354 151 336 166 308 175 c 0
 235 200 187 188 115 224 c 0
 72 245 49 280 49 329 c 0
 49 420 139 466 247 466 c 0
 355 466 444 410 444 315 c 1
 341 315 l 1
 341 360 291 387 247 387 c 0
196 517 m 1
 173 551 138 602 93 671 c 1
 170 671 l 1
 249 579 l 1
 271 604 297 635 329 671 c 1
 405 671 l 1
 303 517 l 1
 196 517 l 1
EndSplineSet
EndChar

StartChar: uni0162
Encoding: 354 354 256
Width: 589
GlyphClass: 2
Flags: W
AnchorPoint: "Anchor-9" 0 0 basechar 0
AnchorPoint: "Anchor-8" 295 280 basechar 0
AnchorPoint: "Anchor-7" 295 860 basechar 0
AnchorPoint: "Anchor-6" 0 0 basechar 0
AnchorPoint: "Anchor-5" 313 -234 basechar 0
LayerCount: 2
Fore
SplineSet
346 0 m 1
 330 0 l 1
 320 -40 l 1
 370 -47 399 -76 399 -132 c 0
 399 -194 340 -234 263 -234 c 0
 252 -234 240 -233 227 -232 c 1
 227 -178 l 1
 237.189453125 -179.372070312 247.340820312 -180.12890625 257.077148438 -180.12890625 c 0
 297.029296875 -180.12890625 330 -167.377929688 330 -132 c 0
 330 -97.2294921875 299.022460938 -86.7392578125 251.623046875 -86.7392578125 c 0
 247.219726562 -86.7392578125 242.674804688 -86.830078125 238 -87 c 1
 260 0 l 1
 243 0 l 1
 243 471 l 1
 23 471 l 1
 23 553 l 1
 566 553 l 1
 566 471 l 1
 346 471 l 1
 346 0 l 1
EndSplineSet
EndChar

StartChar: uni0163
Encoding: 355 355 257
Width: 355
GlyphClass: 2
Flags: W
AnchorPoint: "Anchor-9" 377 681 basechar 0
AnchorPoint: "Anchor-8" 178 280 basechar 0
AnchorPoint: "Anchor-7" 178 560 basechar 0
AnchorPoint: "Anchor-6" 0 0 basechar 0
AnchorPoint: "Anchor-5" 283 -234 basechar 0
LayerCount: 2
Fore
SplineSet
200 169 m 2
 200 107 212 79 266 79 c 0
 283 79 298 80 311 82 c 2
 330 84 l 1
 330 5 l 1
 311 1 l 2
 308 0 304 0 300 -1 c 2
 290 -40 l 1
 340 -47 369 -76 369 -132 c 0
 369 -194 310 -234 233 -234 c 0
 222 -234 210 -233 197 -232 c 1
 197 -178 l 1
 207.189453125 -179.372070312 217.340820312 -180.12890625 227.077148438 -180.12890625 c 0
 267.029296875 -180.12890625 300 -167.377929688 300 -132 c 0
 300 -97.2294921875 269.022460938 -86.7392578125 221.623046875 -86.7392578125 c 0
 217.219726562 -86.7392578125 212.674804688 -86.830078125 208 -87 c 1
 229 -1 l 1
 138 12 100 56 100 169 c 2
 100 381 l 1
 26 381 l 1
 26 456 l 1
 100 456 l 1
 100 563 l 1
 200 563 l 1
 200 456 l 1
 315 456 l 1
 315 381 l 1
 200 381 l 1
 200 169 l 2
EndSplineSet
EndChar

StartChar: Tcaron
Encoding: 356 356 258
Width: 589
GlyphClass: 2
Flags: W
AnchorPoint: "Anchor-9" 0 0 basechar 0
AnchorPoint: "Anchor-8" 295 280 basechar 0
AnchorPoint: "Anchor-7" 295 860 basechar 0
AnchorPoint: "Anchor-6" 0 0 basechar 0
AnchorPoint: "Anchor-5" 305 0 basechar 0
LayerCount: 2
Fore
SplineSet
243 471 m 1
 23 471 l 1
 23 553 l 1
 566 553 l 1
 566 471 l 1
 346 471 l 1
 346 0 l 1
 243 0 l 1
 243 471 l 1
241 604 m 1
 138 758 l 1
 215 758 l 1
 294 666 l 1
 374 758 l 1
 451 758 l 1
 348 604 l 1
 241 604 l 1
EndSplineSet
EndChar

StartChar: tcaron
Encoding: 357 357 259
Width: 355
GlyphClass: 2
Flags: W
AnchorPoint: "Anchor-9" 377 681 basechar 0
AnchorPoint: "Anchor-8" 178 280 basechar 0
AnchorPoint: "Anchor-7" 178 560 basechar 0
AnchorPoint: "Anchor-6" 0 0 basechar 0
AnchorPoint: "Anchor-5" 275 0 basechar 0
LayerCount: 2
Fore
SplineSet
200 169 m 2
 200 107 212 79 266 79 c 0
 283 79 298 80 311 82 c 2
 330 84 l 1
 330 5 l 1
 311 1 l 2
 298 -2 283 -3 266 -3 c 0
 213 -3 172 9 143 33 c 0
 114 57 100 102 100 169 c 2
 100 381 l 1
 26 381 l 1
 26 456 l 1
 100 456 l 1
 100 563 l 1
 200 563 l 1
 200 456 l 1
 315 456 l 1
 315 381 l 1
 200 381 l 1
 200 169 l 2
274 510 m 1
 290 681 l 1
 377 681 l 1
 320 510 l 1
 274 510 l 1
EndSplineSet
EndChar

StartChar: Tbar
Encoding: 358 358 260
Width: 589
GlyphClass: 2
Flags: W
AnchorPoint: "Anchor-9" 0 0 basechar 0
AnchorPoint: "Anchor-8" 295 280 basechar 0
AnchorPoint: "Anchor-7" 295 860 basechar 0
AnchorPoint: "Anchor-6" 0 0 basechar 0
AnchorPoint: "Anchor-5" 305 0 basechar 0
LayerCount: 2
Fore
SplineSet
566 471 m 1
 346 471 l 1
 346 317 l 1
 420 317 l 1
 420 242 l 1
 346 242 l 1
 346 0 l 1
 243 0 l 1
 243 242 l 1
 170 242 l 1
 170 317 l 1
 243 317 l 1
 243 471 l 1
 23 471 l 1
 23 553 l 1
 566 553 l 1
 566 471 l 1
EndSplineSet
EndChar

StartChar: tbar
Encoding: 359 359 261
Width: 355
GlyphClass: 2
Flags: W
AnchorPoint: "Anchor-9" 377 681 basechar 0
AnchorPoint: "Anchor-8" 178 280 basechar 0
AnchorPoint: "Anchor-7" 178 560 basechar 0
AnchorPoint: "Anchor-6" 0 0 basechar 0
AnchorPoint: "Anchor-5" 275 0 basechar 0
LayerCount: 2
Fore
SplineSet
200 169 m 2
 200 107 212 79 266 79 c 0
 283 79 298 80 311 82 c 2
 330 84 l 1
 330 5 l 1
 311 1 l 2
 298 -2 283 -3 266 -3 c 0
 213 -3 172 9 143 33 c 0
 114 57 100 102 100 169 c 2
 100 242 l 1
 53 242 l 1
 53 317 l 1
 100 317 l 1
 100 381 l 1
 26 381 l 1
 26 456 l 1
 100 456 l 1
 100 563 l 1
 200 563 l 1
 200 456 l 1
 315 456 l 1
 315 381 l 1
 200 381 l 1
 200 317 l 1
 303 317 l 1
 303 242 l 1
 200 242 l 1
 200 169 l 2
EndSplineSet
EndChar

StartChar: Umacron
Encoding: 362 362 262
Width: 666
GlyphClass: 2
Flags: W
AnchorPoint: "Anchor-9" 646 860 basechar 0
AnchorPoint: "Anchor-8" 0 0 basechar 0
AnchorPoint: "Anchor-7" 334 688 basechar 0
AnchorPoint: "Anchor-6" 403 10 basechar 0
AnchorPoint: "Anchor-5" 333 0 basechar 0
LayerCount: 2
Fore
SplineSet
334 -13 m 0
 165 -13 67 90 67 282 c 2
 67 553 l 1
 169 553 l 1
 169 282 l 2
 169 155 225 72 334 72 c 0
 445 72 497 155 497 282 c 2
 497 553 l 1
 599 553 l 1
 599 282 l 2
 599 90 501 -13 334 -13 c 0
193 681 m 1
 473 681 l 1
 473 604 l 1
 193 604 l 1
 193 681 l 1
EndSplineSet
EndChar

StartChar: umacron
Encoding: 363 363 263
Width: 580
GlyphClass: 2
Flags: W
AnchorPoint: "Anchor-9" 560 456 basechar 0
AnchorPoint: "Anchor-8" 0 0 basechar 0
AnchorPoint: "Anchor-7" 290 601 basechar 0
AnchorPoint: "Anchor-6" 508 10 basechar 0
AnchorPoint: "Anchor-5" 290 0 basechar 0
LayerCount: 2
Fore
SplineSet
255 -8 m 0
 132 -8 68 63 68 192 c 2
 68 456 l 1
 168 456 l 1
 168 192 l 2
 168 150 179 120 202 101 c 0
 225 83 251 74 281 74 c 0
 310 74 339 83 367 101 c 0
 395 120 409 150 409 192 c 2
 409 456 l 1
 508 456 l 1
 508 0 l 1
 416 0 l 1
 412 67 l 1
 383 19 323 -8 255 -8 c 0
149 594 m 1
 429 594 l 1
 429 517 l 1
 149 517 l 1
 149 594 l 1
EndSplineSet
EndChar

StartChar: Uring
Encoding: 366 366 264
Width: 665
GlyphClass: 2
Flags: W
AnchorPoint: "Anchor-9" 646 860 basechar 0
AnchorPoint: "Anchor-8" 0 0 basechar 0
AnchorPoint: "Anchor-7" 334 860 basechar 0
AnchorPoint: "Anchor-6" 403 10 basechar 0
AnchorPoint: "Anchor-5" 333 0 basechar 0
LayerCount: 2
Fore
SplineSet
334 -13 m 0
 165 -13 67 90 67 282 c 2
 67 553 l 1
 169 553 l 1
 169 282 l 2
 169 155 225 72 334 72 c 0
 445 72 497 155 497 282 c 2
 497 553 l 1
 599 553 l 1
 599 282 l 2
 599 90 501 -13 334 -13 c 0
282 686 m 0
 282 661 301 643 328 643 c 0
 357 643 374 665 374 686 c 0
 374 709 354 730 328 730 c 0
 299 730 282 708 282 686 c 0
230 686 m 0
 230 741 273 778 328 778 c 0
 383 778 425 741 425 686 c 0
 425 629 379 594 328 594 c 0
 275 594 230 631 230 686 c 0
EndSplineSet
EndChar

StartChar: uring
Encoding: 367 367 265
Width: 580
GlyphClass: 2
Flags: W
AnchorPoint: "Anchor-9" 560 456 basechar 0
AnchorPoint: "Anchor-8" 0 0 basechar 0
AnchorPoint: "Anchor-7" 290 701 basechar 0
AnchorPoint: "Anchor-6" 508 10 basechar 0
AnchorPoint: "Anchor-5" 290 0 basechar 0
LayerCount: 2
Fore
SplineSet
255 -8 m 0
 132 -8 68 63 68 192 c 2
 68 456 l 1
 168 456 l 1
 168 192 l 2
 168 150 179 120 202 101 c 0
 225 83 251 74 281 74 c 0
 310 74 339 83 367 101 c 0
 395 120 409 150 409 192 c 2
 409 456 l 1
 508 456 l 1
 508 0 l 1
 416 0 l 1
 412 67 l 1
 383 19 323 -8 255 -8 c 0
244 609 m 0
 244 584 263 566 290 566 c 0
 319 566 336 587 336 609 c 0
 336 635 317 653 290 653 c 0
 260 653 244 632 244 609 c 0
193 609 m 0
 193 667 238 701 290 701 c 0
 345 701 387 664 387 609 c 0
 387 555 344 517 290 517 c 0
 236 517 193 554 193 609 c 0
EndSplineSet
EndChar

StartChar: Uhungarumlaut
Encoding: 368 368 266
Width: 666
GlyphClass: 2
Flags: W
AnchorPoint: "Anchor-9" 646 860 basechar 0
AnchorPoint: "Anchor-8" 0 0 basechar 0
AnchorPoint: "Anchor-7" 334 758 basechar 0
AnchorPoint: "Anchor-6" 403 10 basechar 0
AnchorPoint: "Anchor-5" 333 0 basechar 0
LayerCount: 2
Fore
SplineSet
334 -13 m 0
 165 -13 67 90 67 282 c 2
 67 553 l 1
 169 553 l 1
 169 282 l 2
 169 155 225 72 334 72 c 0
 445 72 497 155 497 282 c 2
 497 553 l 1
 599 553 l 1
 599 282 l 2
 599 90 501 -13 334 -13 c 0
359 604 m 1
 451 758 l 1
 579 758 l 1
 451 604 l 1
 359 604 l 1
164 604 m 1
 256 758 l 1
 384 758 l 1
 256 604 l 1
 164 604 l 1
EndSplineSet
EndChar

StartChar: uhungarumlaut
Encoding: 369 369 267
Width: 580
GlyphClass: 2
Flags: W
AnchorPoint: "Anchor-9" 560 456 basechar 0
AnchorPoint: "Anchor-8" 0 0 basechar 0
AnchorPoint: "Anchor-7" 290 671 basechar 0
AnchorPoint: "Anchor-6" 508 10 basechar 0
AnchorPoint: "Anchor-5" 290 0 basechar 0
LayerCount: 2
Fore
SplineSet
255 -8 m 0
 132 -8 68 63 68 192 c 2
 68 456 l 1
 168 456 l 1
 168 192 l 2
 168 150 179 120 202 101 c 0
 225 83 251 74 281 74 c 0
 310 74 339 83 367 101 c 0
 395 120 409 150 409 192 c 2
 409 456 l 1
 508 456 l 1
 508 0 l 1
 416 0 l 1
 412 67 l 1
 383 19 323 -8 255 -8 c 0
318 517 m 1
 410 671 l 1
 538 671 l 1
 410 517 l 1
 318 517 l 1
123 517 m 1
 215 671 l 1
 343 671 l 1
 215 517 l 1
 123 517 l 1
EndSplineSet
EndChar

StartChar: Uogonek
Encoding: 370 370 268
Width: 666
GlyphClass: 2
Flags: W
AnchorPoint: "Anchor-9" 646 860 basechar 0
AnchorPoint: "Anchor-8" 0 0 basechar 0
AnchorPoint: "Anchor-7" 334 860 basechar 0
AnchorPoint: "Anchor-6" 403 10 basechar 0
AnchorPoint: "Anchor-5" 333 0 basechar 0
LayerCount: 2
Fore
SplineSet
497 553 m 1
 599 553.000976562 l 1
 599 282.000976562 l 2
 599 90.0009765625 501 -12.9990234375 334 -12.9990234375 c 2
 331 -12.9990234375 l 1
 320 -20.9990234375 315 -31.9990234375 315 -47.9990234375 c 0
 315 -84.36328125 342.49609375 -97.60546875 379.2109375 -97.60546875 c 0
 388.940429688 -97.60546875 399.31640625 -96.67578125 410 -95 c 1
 411 -171 l 1
 398 -172 386 -173 375 -173 c 0
 297 -173 240 -133 240 -70 c 0
 240 -42 247 -21 260 -6 c 1
 137 21 67 120 67 282 c 2
 67 553 l 1
 169 553 l 1
 169 282 l 2
 169 155 225 72 334 72 c 0
 445 72 497 155 497 282 c 2
 497 553 l 1
EndSplineSet
EndChar

StartChar: uogonek
Encoding: 371 371 269
Width: 580
GlyphClass: 2
Flags: W
AnchorPoint: "Anchor-9" 560 456 basechar 0
AnchorPoint: "Anchor-8" 0 0 basechar 0
AnchorPoint: "Anchor-7" 290 456 basechar 0
AnchorPoint: "Anchor-6" 508 10 basechar 0
AnchorPoint: "Anchor-5" 290 0 basechar 0
LayerCount: 2
Fore
SplineSet
255 -8 m 0
 132 -8 68 63.0009765625 68 192.000976562 c 2
 68 456.000976562 l 1
 168 456.000976562 l 1
 168 192.000976562 l 2
 168 150.000976562 179 120.000976562 202 101.000976562 c 0
 225 83.0009765625 251 74.0009765625 281 74.0009765625 c 0
 310 74.0009765625 339 83.0009765625 367 101.000976562 c 0
 395 120.000976562 409 150.000976562 409 192.000976562 c 2
 409 456.000976562 l 1
 508 456.000976562 l 1
 508 0.0009765625 l 1
 484 0.0009765625 l 2
 442 -1.9990234375 420 -14.9990234375 420 -47.9990234375 c 0
 420 -84.36328125 447.49609375 -97.60546875 484.2109375 -97.60546875 c 0
 493.940429688 -97.60546875 504.31640625 -96.67578125 515 -95 c 1
 516 -171 l 1
 503 -172 491 -173 480 -173 c 0
 402 -173 345 -133 345 -70 c 0
 345 -19 367 9 415 20 c 1
 412 67 l 1
 383 19 323 -8 255 -8 c 0
EndSplineSet
EndChar

StartChar: Wcircumflex
Encoding: 372 372 270
Width: 820
GlyphClass: 2
Flags: W
AnchorPoint: "Anchor-9" 0 0 basechar 0
AnchorPoint: "Anchor-8" 0 0 basechar 0
AnchorPoint: "Anchor-7" 410 758 basechar 0
AnchorPoint: "Anchor-6" 0 0 basechar 0
AnchorPoint: "Anchor-5" 410 0 basechar 0
LayerCount: 2
Fore
SplineSet
806 553 m 1
 648 0 l 1
 540 0 l 1
 410 414 l 1
 279 0 l 1
 177 0 l 1
 13 553 l 1
 126 553 l 1
 234 148 l 1
 366 553 l 1
 458 553 l 1
 592 140 l 1
 699 553 l 1
 806 553 l 1
410 696 m 1
 330 604 l 1
 254 604 l 1
 356 758 l 1
 463 758 l 1
 566 604 l 1
 489 604 l 1
 410 696 l 1
EndSplineSet
EndChar

StartChar: wcircumflex
Encoding: 373 373 271
Width: 732
GlyphClass: 2
Flags: W
AnchorPoint: "Anchor-9" 0 0 basechar 0
AnchorPoint: "Anchor-8" 0 0 basechar 0
AnchorPoint: "Anchor-7" 360 671 basechar 0
AnchorPoint: "Anchor-6" 0 0 basechar 0
AnchorPoint: "Anchor-5" 366 0 basechar 0
LayerCount: 2
Fore
SplineSet
720 456 m 1
 582 0 l 1
 485 0 l 1
 368 343 l 1
 250 0 l 1
 156 0 l 1
 13 456 l 1
 121 456 l 1
 208 137 l 1
 320 456 l 1
 421 456 l 1
 533 136 l 1
 617 456 l 1
 720 456 l 1
360 608 m 1
 281 517 l 1
 204 517 l 1
 306 671 l 1
 414 671 l 1
 516 517 l 1
 439 517 l 1
 360 608 l 1
EndSplineSet
EndChar

StartChar: Ycircumflex
Encoding: 374 374 272
Width: 590
GlyphClass: 2
Flags: W
AnchorPoint: "Anchor-9" 0 0 basechar 0
AnchorPoint: "Anchor-8" 0 0 basechar 0
AnchorPoint: "Anchor-7" 295 758 basechar 0
AnchorPoint: "Anchor-6" 0 0 basechar 0
AnchorPoint: "Anchor-5" 295 0 basechar 0
LayerCount: 2
Fore
SplineSet
244 208 m 1
 15 553 l 1
 139 553 l 1
 296 297 l 1
 456 553 l 1
 574 553 l 1
 346 210 l 1
 346 0 l 1
 244 0 l 1
 244 208 l 1
295 696 m 1
 215 604 l 1
 139 604 l 1
 241 758 l 1
 348 758 l 1
 451 604 l 1
 374 604 l 1
 295 696 l 1
EndSplineSet
EndChar

StartChar: ycircumflex
Encoding: 375 375 273
Width: 527
GlyphClass: 2
Flags: W
AnchorPoint: "Anchor-9" 0 0 basechar 0
AnchorPoint: "Anchor-8" 0 0 basechar 0
AnchorPoint: "Anchor-7" 258 671 basechar 0
AnchorPoint: "Anchor-6" 0 0 basechar 0
AnchorPoint: "Anchor-5" 264 0 basechar 0
LayerCount: 2
Fore
SplineSet
311 0 m 2
 284 -58 259 -101 235 -129 c 0
 212 -156 179 -170 138 -170 c 0
 117 -170 91 -167 73 -160 c 1
 73 -79 l 1
 94 -85 107 -86 130 -86 c 0
 176 -86 190 -57 217 2 c 1
 13 456 l 1
 123 456 l 1
 266 109 l 1
 410 456 l 1
 515 456 l 1
 311 0 l 2
258 608 m 1
 179 517 l 1
 102 517 l 1
 204 671 l 1
 312 671 l 1
 414 517 l 1
 337 517 l 1
 258 608 l 1
EndSplineSet
EndChar

StartChar: Ydieresis
Encoding: 376 376 274
Width: 590
GlyphClass: 2
Flags: W
AnchorPoint: "Anchor-9" 0 0 basechar 0
AnchorPoint: "Anchor-8" 0 0 basechar 0
AnchorPoint: "Anchor-7" 295 860 basechar 0
AnchorPoint: "Anchor-6" 0 0 basechar 0
AnchorPoint: "Anchor-5" 295 0 basechar 0
LayerCount: 2
Fore
SplineSet
456 553 m 1
 574 553 l 1
 346 210 l 1
 346 0 l 1
 244 0 l 1
 244 208 l 1
 15 553 l 1
 139 553 l 1
 296 297 l 1
 456 553 l 1
472 666 m 0
 472 631 444 604 408 604 c 0
 372 604 344 631 344 666 c 0
 344 701 372 727 408 727 c 0
 444 727 472 701 472 666 c 0
246 666 m 0
 246 630 219 604 182 604 c 0
 146 604 118 631 118 666 c 0
 118 701 146 727 182 727 c 0
 218 727 246 702 246 666 c 0
EndSplineSet
EndChar

StartChar: Zacute
Encoding: 377 377 275
Width: 553
GlyphClass: 2
Flags: W
AnchorPoint: "Anchor-9" 0 0 basechar 0
AnchorPoint: "Anchor-8" 0 0 basechar 0
AnchorPoint: "Anchor-7" 315 758 basechar 0
AnchorPoint: "Anchor-6" 0 0 basechar 0
AnchorPoint: "Anchor-5" 277 0 basechar 0
LayerCount: 2
Fore
SplineSet
502 82 m 1
 502 0 l 1
 51 0 l 1
 51 61 l 1
 369 471 l 1
 51 471 l 1
 51 553 l 1
 502 553 l 1
 502 492 l 1
 184 82 l 1
 502 82 l 1
205 604 m 1
 297 758 l 1
 425 758 l 1
 297 604 l 1
 205 604 l 1
EndSplineSet
EndChar

StartChar: zacute
Encoding: 378 378 276
Width: 522
GlyphClass: 2
Flags: W
AnchorPoint: "Anchor-9" 0 0 basechar 0
AnchorPoint: "Anchor-8" 0 0 basechar 0
AnchorPoint: "Anchor-7" 296 671 basechar 0
AnchorPoint: "Anchor-6" 0 0 basechar 0
AnchorPoint: "Anchor-5" 261 0 basechar 0
LayerCount: 2
Fore
SplineSet
53 62 m 1
 338 376 l 1
 51 376 l 1
 51 456 l 1
 471 456 l 1
 471 394 l 1
 184 79 l 1
 471 79 l 1
 471 0 l 1
 51 0 l 1
 51 61 l 1
 53 62 l 1
186 517 m 1
 278 671 l 1
 406 671 l 1
 278 517 l 1
 186 517 l 1
EndSplineSet
EndChar

StartChar: Zdotaccent
Encoding: 379 379 277
Width: 553
GlyphClass: 2
Flags: W
AnchorPoint: "Anchor-9" 0 0 basechar 0
AnchorPoint: "Anchor-8" 0 0 basechar 0
AnchorPoint: "Anchor-7" 277 753 basechar 0
AnchorPoint: "Anchor-6" 0 0 basechar 0
AnchorPoint: "Anchor-5" 277 0 basechar 0
LayerCount: 2
Fore
SplineSet
502 82 m 1
 502 0 l 1
 51 0 l 1
 51 61 l 1
 369 471 l 1
 51 471 l 1
 51 553 l 1
 502 553 l 1
 502 492 l 1
 184 82 l 1
 502 82 l 1
210 689 m 0
 210 727 237 753 276 753 c 0
 319 753 343 725 343 689 c 0
 343 650 316 625 276 625 c 0
 234 625 210 653 210 689 c 0
EndSplineSet
EndChar

StartChar: zdotaccent
Encoding: 380 380 278
Width: 522
GlyphClass: 2
Flags: W
AnchorPoint: "Anchor-9" 0 0 basechar 0
AnchorPoint: "Anchor-8" 0 0 basechar 0
AnchorPoint: "Anchor-7" 261 644 basechar 0
AnchorPoint: "Anchor-6" 0 0 basechar 0
AnchorPoint: "Anchor-5" 261 0 basechar 0
LayerCount: 2
Fore
SplineSet
53 62 m 1
 338 376 l 1
 51 376 l 1
 51 456 l 1
 471 456 l 1
 471 394 l 1
 184 79 l 1
 471 79 l 1
 471 0 l 1
 51 0 l 1
 51 61 l 1
 53 62 l 1
194 580 m 0
 194 618 221 644 260 644 c 0
 303 644 327 616 327 580 c 0
 327 541 300 516 260 516 c 0
 218 516 194 544 194 580 c 0
EndSplineSet
EndChar

StartChar: Zcaron
Encoding: 381 381 279
Width: 553
GlyphClass: 2
Flags: W
AnchorPoint: "Anchor-9" 0 0 basechar 0
AnchorPoint: "Anchor-8" 0 0 basechar 0
AnchorPoint: "Anchor-7" 277 860 basechar 0
AnchorPoint: "Anchor-6" 0 0 basechar 0
AnchorPoint: "Anchor-5" 277 0 basechar 0
LayerCount: 2
Fore
SplineSet
502 82 m 1
 502 0 l 1
 51 0 l 1
 51 61 l 1
 369 471 l 1
 51 471 l 1
 51 553 l 1
 502 553 l 1
 502 492 l 1
 184 82 l 1
 502 82 l 1
223 604 m 1
 120 758 l 1
 197 758 l 1
 276 666 l 1
 356 758 l 1
 433 758 l 1
 330 604 l 1
 223 604 l 1
EndSplineSet
EndChar

StartChar: zcaron
Encoding: 382 382 280
Width: 522
GlyphClass: 2
Flags: W
AnchorPoint: "Anchor-9" 0 0 basechar 0
AnchorPoint: "Anchor-8" 0 0 basechar 0
AnchorPoint: "Anchor-7" 261 671 basechar 0
AnchorPoint: "Anchor-6" 0 0 basechar 0
AnchorPoint: "Anchor-5" 261 0 basechar 0
LayerCount: 2
Fore
SplineSet
53 62 m 1
 338 376 l 1
 51 376 l 1
 51 456 l 1
 471 456 l 1
 471 394 l 1
 184 79 l 1
 471 79 l 1
 471 0 l 1
 51 0 l 1
 51 61 l 1
 53 62 l 1
208 517 m 1
 185 551 150 602 105 671 c 1
 182 671 l 1
 261 579 l 1
 283 604 309 635 341 671 c 1
 417 671 l 1
 315 517 l 1
 208 517 l 1
EndSplineSet
EndChar

StartChar: uni01CD
Encoding: 461 461 281
Width: 655
GlyphClass: 2
Flags: W
AnchorPoint: "Anchor-9" 0 0 basechar 0
AnchorPoint: "Anchor-8" 0 0 basechar 0
AnchorPoint: "Anchor-7" 328 860 basechar 0
AnchorPoint: "Anchor-6" 640 10 basechar 0
AnchorPoint: "Anchor-5" 328 0 basechar 0
LayerCount: 2
Fore
SplineSet
326 450 m 1
 210 198 l 1
 440 198 l 1
 326 450 l 1
376 553 m 1
 643 0 l 1
 529 0 l 1
 474 121 l 1
 175 121 l 1
 120 0 l 1
 13 0 l 1
 279 553 l 1
 376 553 l 1
274 604 m 1
 171 758 l 1
 248 758 l 1
 327 666 l 1
 407 758 l 1
 484 758 l 1
 381 604 l 1
 274 604 l 1
EndSplineSet
EndChar

StartChar: uni01CE
Encoding: 462 462 282
Width: 555
GlyphClass: 2
Flags: W
AnchorPoint: "Anchor-9" 0 0 basechar 0
AnchorPoint: "Anchor-8" 0 0 basechar 0
AnchorPoint: "Anchor-7" 278 671 basechar 0
AnchorPoint: "Anchor-6" 499 10 basechar 0
AnchorPoint: "Anchor-5" 278 0 basechar 0
LayerCount: 2
Fore
SplineSet
384 199 m 1
 261 200 l 2
 198 199 148 183 148 128 c 0
 148 80 194 61 251 61 c 0
 338 61 384 108 384 199 c 1
274 463 m 0
 408 463 484 410 484 276 c 2
 484 100 l 2
 484 68 486 45 490 30 c 2
 497 8 l 1
 497 0 l 1
 397 0 l 1
 394 10 386 39 386 58 c 1
 372 41 l 2
 343 7 294 -10 225 -10 c 0
 118 -10 46 39 46 133 c 0
 46 235 140 266 261 266 c 2
 384 266 l 1
 384 294 l 2
 384 357 342 381 274 381 c 0
 220 381 166 363 166 315 c 1
 64 315 l 1
 64 356 82 391 119 420 c 0
 155 449 207 463 274 463 c 0
225 517 m 1
 202 551 167 602 122 671 c 1
 199 671 l 1
 278 579 l 1
 300 604 326 635 358 671 c 1
 434 671 l 1
 332 517 l 1
 225 517 l 1
EndSplineSet
EndChar

StartChar: uni01CF
Encoding: 463 463 283
Width: 256
GlyphClass: 2
Flags: W
AnchorPoint: "Anchor-9" 0 0 basechar 0
AnchorPoint: "Anchor-8" 0 0 basechar 0
AnchorPoint: "Anchor-7" 128 860 basechar 0
AnchorPoint: "Anchor-6" 179 10 basechar 0
AnchorPoint: "Anchor-5" 128 0 basechar 0
LayerCount: 2
Fore
SplineSet
77 553 m 1
 179 553 l 1
 179 0 l 1
 77 0 l 1
 77 553 l 1
74 604 m 1
 -29 758 l 1
 48 758 l 1
 127 666 l 1
 207 758 l 1
 284 758 l 1
 181 604 l 1
 74 604 l 1
EndSplineSet
EndChar

StartChar: uni01D0
Encoding: 464 464 284
Width: 254
GlyphClass: 2
Flags: W
AnchorPoint: "Anchor-9" 0 0 basechar 0
AnchorPoint: "Anchor-8" 0 0 basechar 0
AnchorPoint: "Anchor-7" 127 671 basechar 0
AnchorPoint: "Anchor-6" 182 10 basechar 0
AnchorPoint: "Anchor-5" 127 0 basechar 0
LayerCount: 2
Fore
SplineSet
182 456 m 1
 182 0 l 1
 82 0 l 1
 82 456 l 1
 182 456 l 1
74 517 m 1
 51 551 16 602 -29 671 c 1
 48 671 l 1
 127 579 l 1
 149 604 175 635 207 671 c 1
 283 671 l 1
 181 517 l 1
 74 517 l 1
EndSplineSet
EndChar

StartChar: uni01D1
Encoding: 465 465 285
Width: 671
GlyphClass: 2
Flags: W
AnchorPoint: "Anchor-9" 651 860 basechar 0
AnchorPoint: "Anchor-8" 336 277 basechar 0
AnchorPoint: "Anchor-7" 336 860 basechar 0
AnchorPoint: "Anchor-6" 419 10 basechar 0
AnchorPoint: "Anchor-5" 336 0 basechar 0
LayerCount: 2
Fore
SplineSet
522 276 m 0
 522 399 447 484 335 484 c 0
 223 484 148 396 148 276 c 0
 148 155 225 69 335 69 c 0
 448 69 522 156 522 276 c 0
335 -15 m 0
 160 -15 41 109 41 276 c 0
 41 445 161 568 335 568 c 0
 512 568 630 444 630 276 c 0
 630 107 509 -15 335 -15 c 0
282 604 m 1
 179 758 l 1
 256 758 l 1
 335 666 l 1
 415 758 l 1
 492 758 l 1
 389 604 l 1
 282 604 l 1
EndSplineSet
EndChar

StartChar: uni01D2
Encoding: 466 466 286
Width: 568
GlyphClass: 2
Flags: W
AnchorPoint: "Anchor-9" 548 456 basechar 0
AnchorPoint: "Anchor-8" 284 228 basechar 0
AnchorPoint: "Anchor-7" 284 671 basechar 0
AnchorPoint: "Anchor-6" 511 10 basechar 0
AnchorPoint: "Anchor-5" 284 0 basechar 0
LayerCount: 2
Fore
SplineSet
425 228 m 0
 425 317 371 384 284 384 c 0
 198 384 143 317 143 228 c 0
 143 138 197 72 284 72 c 0
 375 72 425 141 425 228 c 0
41 228 m 0
 41 297 63 354 106 399 c 0
 149 444 209 466 284 466 c 0
 359 466 419 444 462 399 c 0
 505 354 527 297 527 228 c 0
 527 159 505 102 462 57 c 0
 419 12 360 -10 285 -10 c 2
 284 -10 l 2
 209 -10 149 12 106 57 c 0
 63 102 41 159 41 228 c 0
231 517 m 1
 208 551 173 602 128 671 c 1
 205 671 l 1
 284 579 l 1
 306 604 332 635 364 671 c 1
 440 671 l 1
 338 517 l 1
 231 517 l 1
EndSplineSet
EndChar

StartChar: uni01D3
Encoding: 467 467 287
Width: 666
GlyphClass: 2
Flags: W
AnchorPoint: "Anchor-9" 646 860 basechar 0
AnchorPoint: "Anchor-8" 0 0 basechar 0
AnchorPoint: "Anchor-7" 334 860 basechar 0
AnchorPoint: "Anchor-6" 403 10 basechar 0
AnchorPoint: "Anchor-5" 333 0 basechar 0
LayerCount: 2
Fore
SplineSet
334 -13 m 0
 165 -13 67 90 67 282 c 2
 67 553 l 1
 169 553 l 1
 169 282 l 2
 169 155 225 72 334 72 c 0
 445 72 497 155 497 282 c 2
 497 553 l 1
 599 553 l 1
 599 282 l 2
 599 90 501 -13 334 -13 c 0
280 604 m 1
 177 758 l 1
 254 758 l 1
 333 666 l 1
 413 758 l 1
 490 758 l 1
 387 604 l 1
 280 604 l 1
EndSplineSet
EndChar

StartChar: uni01D4
Encoding: 468 468 288
Width: 580
GlyphClass: 2
Flags: W
AnchorPoint: "Anchor-9" 560 456 basechar 0
AnchorPoint: "Anchor-8" 0 0 basechar 0
AnchorPoint: "Anchor-7" 290 671 basechar 0
AnchorPoint: "Anchor-6" 508 10 basechar 0
AnchorPoint: "Anchor-5" 290 0 basechar 0
LayerCount: 2
Fore
SplineSet
255 -8 m 0
 132 -8 68 63 68 192 c 2
 68 456 l 1
 168 456 l 1
 168 192 l 2
 168 150 179 120 202 101 c 0
 225 83 251 74 281 74 c 0
 310 74 339 83 367 101 c 0
 395 120 409 150 409 192 c 2
 409 456 l 1
 508 456 l 1
 508 0 l 1
 416 0 l 1
 412 67 l 1
 383 19 323 -8 255 -8 c 0
237 517 m 1
 214 551 179 602 134 671 c 1
 211 671 l 1
 290 579 l 1
 312 604 338 635 370 671 c 1
 446 671 l 1
 344 517 l 1
 237 517 l 1
EndSplineSet
EndChar

StartChar: Scommaaccent
Encoding: 536 536 289
Width: 573
GlyphClass: 2
Flags: W
AnchorPoint: "Anchor-9" 0 0 basechar 0
AnchorPoint: "Anchor-8" 0 0 basechar 0
AnchorPoint: "Anchor-7" 287 860 basechar 0
AnchorPoint: "Anchor-6" 0 0 basechar 0
AnchorPoint: "Anchor-5" 287 -216 basechar 0
LayerCount: 2
Fore
SplineSet
222 -216 m 1
 252 -45 l 1
 352 -45 l 1
 281 -216 l 1
 222 -216 l 1
56 399 m 0
 56 514 186 566 287 566 c 0
 359 566 431 543 481 490 c 0
 505 465 517 431 517 389 c 1
 410 389 l 1
 410 448 352 484 287 484 c 0
 220 484 164 453 164 399 c 0
 164 369 186 351 219 341 c 0
 307 311 373 321 453 282 c 0
 509 255 532 213 532 159 c 0
 532 118 519 81 490 54 c 0
 440 4 359 -13 287 -13 c 0
 214 -13 131 8 83 59 c 0
 54 89 41 127 41 169 c 1
 148 169 l 1
 148 100 218 69 287 69 c 0
 359 69 425 91 425 154 c 0
 425 185 402 202 369 214 c 0
 277 248 227 230 136 275 c 0
 86 299 56 340 56 399 c 0
EndSplineSet
EndChar

StartChar: scommaaccent
Encoding: 537 537 290
Width: 497
GlyphClass: 2
Flags: W
AnchorPoint: "Anchor-9" 0 0 basechar 0
AnchorPoint: "Anchor-8" 0 0 basechar 0
AnchorPoint: "Anchor-7" 249 456 basechar 0
AnchorPoint: "Anchor-6" 0 0 basechar 0
AnchorPoint: "Anchor-5" 257 -216 basechar 0
LayerCount: 2
Fore
SplineSet
192 -216 m 1
 222 -45 l 1
 322 -45 l 1
 251 -216 l 1
 192 -216 l 1
247 387 m 0
 197 387 152 365 152 329 c 0
 152 306 165 292 192 285 c 0
 268 265 340 262 391 236 c 0
 433 216 457 180 457 131 c 0
 457 32 354 -10 247 -10 c 0
 144 -10 41 34 41 131 c 1
 143 131 l 1
 144 87 198 69 247 69 c 0
 295 69 354 84 354 126 c 0
 354 151 336 166 308 175 c 0
 235 200 187 188 115 224 c 0
 72 245 49 280 49 329 c 0
 49 420 139 466 247 466 c 0
 355 466 444 410 444 315 c 1
 341 315 l 1
 341 360 291 387 247 387 c 0
EndSplineSet
EndChar

StartChar: uni021A
Encoding: 538 538 291
Width: 589
GlyphClass: 2
Flags: W
AnchorPoint: "Anchor-9" 0 0 basechar 0
AnchorPoint: "Anchor-8" 295 280 basechar 0
AnchorPoint: "Anchor-7" 295 860 basechar 0
AnchorPoint: "Anchor-6" 0 0 basechar 0
AnchorPoint: "Anchor-5" 305 -216 basechar 0
LayerCount: 2
Fore
SplineSet
240 -216 m 1
 270 -45 l 1
 370 -45 l 1
 299 -216 l 1
 240 -216 l 1
243 471 m 1
 23 471 l 1
 23 553 l 1
 566 553 l 1
 566 471 l 1
 346 471 l 1
 346 0 l 1
 243 0 l 1
 243 471 l 1
EndSplineSet
EndChar

StartChar: uni021B
Encoding: 539 539 292
Width: 355
GlyphClass: 2
Flags: W
AnchorPoint: "Anchor-9" 377 681 basechar 0
AnchorPoint: "Anchor-8" 178 280 basechar 0
AnchorPoint: "Anchor-7" 178 560 basechar 0
AnchorPoint: "Anchor-6" 0 0 basechar 0
AnchorPoint: "Anchor-5" 275 -216 basechar 0
LayerCount: 2
Fore
SplineSet
210 -216 m 1
 240 -45 l 1
 340 -45 l 1
 269 -216 l 1
 210 -216 l 1
200 169 m 2
 200 107 212 79 266 79 c 0
 283 79 298 80 311 82 c 2
 330 84 l 1
 330 5 l 1
 311 1 l 2
 298 -2 283 -3 266 -3 c 0
 213 -3 172 9 143 33 c 0
 114 57 100 102 100 169 c 2
 100 381 l 1
 26 381 l 1
 26 456 l 1
 100 456 l 1
 100 563 l 1
 200 563 l 1
 200 456 l 1
 315 456 l 1
 315 381 l 1
 200 381 l 1
 200 169 l 2
EndSplineSet
EndChar

StartChar: gravecomb
Encoding: 768 768 293
Width: 0
GlyphClass: 4
Flags: W
AnchorPoint: "Anchor-11" -322 671 basemark 0
AnchorPoint: "Anchor-11" -266 456 mark 0
AnchorPoint: "Anchor-7" -266 456 mark 0
AnchorPoint: "Anchor-1" -266 456 mark 0
LayerCount: 2
Fore
SplineSet
-304 517 m 1
 -432 671 l 1
 -304 671 l 1
 -212 517 l 1
 -304 517 l 1
EndSplineSet
EndChar

StartChar: acutecomb
Encoding: 769 769 294
Width: 0
GlyphClass: 4
Flags: W
AnchorPoint: "Anchor-11" -240 671 basemark 0
AnchorPoint: "Anchor-11" -275 456 mark 0
AnchorPoint: "Anchor-7" -275 456 mark 0
AnchorPoint: "Anchor-1" -275 456 mark 0
LayerCount: 2
Fore
SplineSet
-350 517 m 1
 -258 671 l 1
 -130 671 l 1
 -258 517 l 1
 -350 517 l 1
EndSplineSet
EndChar

StartChar: uni0302
Encoding: 770 770 295
Width: 0
GlyphClass: 4
Flags: W
AnchorPoint: "Anchor-11" -276 671 basemark 0
AnchorPoint: "Anchor-11" -270 456 mark 0
AnchorPoint: "Anchor-7" -270 456 mark 0
AnchorPoint: "Anchor-1" -270 456 mark 0
LayerCount: 2
Fore
SplineSet
-276 608 m 1
 -355 517 l 1
 -432 517 l 1
 -330 671 l 1
 -222 671 l 1
 -120 517 l 1
 -197 517 l 1
 -276 608 l 1
EndSplineSet
EndChar

StartChar: tildecomb
Encoding: 771 771 296
Width: 0
GlyphClass: 4
Flags: W
AnchorPoint: "Anchor-11" -278 640 basemark 0
AnchorPoint: "Anchor-11" -278 456 mark 0
AnchorPoint: "Anchor-7" -278 456 mark 0
AnchorPoint: "Anchor-1" -278 456 mark 0
LayerCount: 2
Fore
SplineSet
-453 522 m 1
 -453 590 -399 640 -340 640 c 0
 -279 640 -261 589 -212 589 c 0
 -183 589 -163 615 -163 635 c 1
 -104 635 l 1
 -104 567 -158 517 -217 517 c 0
 -278 517 -296 568 -345 568 c 0
 -374 568 -394 542 -394 522 c 1
 -453 522 l 1
EndSplineSet
EndChar

StartChar: uni0304
Encoding: 772 772 297
Width: 0
GlyphClass: 4
Flags: W
AnchorPoint: "Anchor-11" -297 601 basemark 0
AnchorPoint: "Anchor-11" -297 456 mark 0
AnchorPoint: "Anchor-7" -297 456 mark 0
AnchorPoint: "Anchor-1" -297 456 mark 0
LayerCount: 2
Fore
SplineSet
-438 594 m 1
 -158 594 l 1
 -158 517 l 1
 -438 517 l 1
 -438 594 l 1
EndSplineSet
EndChar

StartChar: uni0306
Encoding: 774 774 298
Width: 0
GlyphClass: 4
Flags: W
AnchorPoint: "Anchor-11" -310 670 basemark 0
AnchorPoint: "Anchor-11" -310 456 mark 0
AnchorPoint: "Anchor-7" -310 456 mark 0
AnchorPoint: "Anchor-1" -310 456 mark 0
LayerCount: 2
Fore
SplineSet
-138 670 m 1
 -138 569 -205 509 -310 509 c 0
 -417 509 -482 571 -482 670 c 1
 -410 670 l 1
 -410 603 -369 567 -310 567 c 0
 -246 567 -211 611 -211 670 c 1
 -138 670 l 1
EndSplineSet
EndChar

StartChar: uni0307
Encoding: 775 775 299
Width: 0
GlyphClass: 4
Flags: W
AnchorPoint: "Anchor-11" -119 644 basemark 0
AnchorPoint: "Anchor-11" -119 456 mark 0
AnchorPoint: "Anchor-7" -119 456 mark 0
AnchorPoint: "Anchor-1" -119 456 mark 0
LayerCount: 2
Fore
SplineSet
-186 580 m 0
 -186 618 -159 644 -120 644 c 0
 -77 644 -53 616 -53 580 c 0
 -53 541 -80 516 -120 516 c 0
 -162 516 -186 544 -186 580 c 0
EndSplineSet
EndChar

StartChar: uni0308
Encoding: 776 776 300
Width: 0
GlyphClass: 4
Flags: W
AnchorPoint: "Anchor-11" -227 640 basemark 0
AnchorPoint: "Anchor-11" -227 456 mark 0
AnchorPoint: "Anchor-7" -227 456 mark 0
AnchorPoint: "Anchor-1" -227 456 mark 0
LayerCount: 2
Fore
SplineSet
-50 579 m 0
 -50 543 -78 517 -114 517 c 0
 -153 517 -178 546 -178 579 c 0
 -178 613 -151 640 -114 640 c 0
 -75 640 -50 611 -50 579 c 0
-276 579 m 0
 -276 543 -303 517 -340 517 c 0
 -379 517 -404 546 -404 579 c 0
 -404 613 -377 640 -340 640 c 0
 -301 640 -276 611 -276 579 c 0
EndSplineSet
EndChar

StartChar: uni030A
Encoding: 778 778 301
Width: 0
GlyphClass: 4
Flags: W
AnchorPoint: "Anchor-11" -276 701 basemark 0
AnchorPoint: "Anchor-11" -276 456 mark 0
AnchorPoint: "Anchor-7" -276 456 mark 0
AnchorPoint: "Anchor-1" -276 456 mark 0
LayerCount: 2
Fore
SplineSet
-322 609 m 0
 -322 584 -303 566 -276 566 c 0
 -247 566 -230 587 -230 609 c 0
 -230 635 -249 653 -276 653 c 0
 -306 653 -322 632 -322 609 c 0
-373 609 m 0
 -373 667 -328 701 -276 701 c 0
 -221 701 -179 664 -179 609 c 0
 -179 555 -222 517 -276 517 c 0
 -330 517 -373 554 -373 609 c 0
EndSplineSet
EndChar

StartChar: uni030B
Encoding: 779 779 302
Width: 0
GlyphClass: 4
Flags: W
AnchorPoint: "Anchor-11" -263 671 basemark 0
AnchorPoint: "Anchor-11" -263 456 mark 0
AnchorPoint: "Anchor-7" -263 456 mark 0
AnchorPoint: "Anchor-1" -263 456 mark 0
LayerCount: 2
Fore
SplineSet
-235 517 m 1
 -143 671 l 1
 -15 671 l 1
 -143 517 l 1
 -235 517 l 1
-430 517 m 1
 -338 671 l 1
 -210 671 l 1
 -338 517 l 1
 -430 517 l 1
EndSplineSet
EndChar

StartChar: uni030C
Encoding: 780 780 303
Width: 0
GlyphClass: 4
Flags: W
AnchorPoint: "Anchor-11" -248 671 basemark 0
AnchorPoint: "Anchor-11" -248 456 mark 0
AnchorPoint: "Anchor-7" -248 456 mark 0
AnchorPoint: "Anchor-1" -248 456 mark 0
LayerCount: 2
Fore
SplineSet
-301 517 m 1
 -324 551 -359 602 -404 671 c 1
 -327 671 l 1
 -248 579 l 1
 -226 604 -200 635 -168 671 c 1
 -92 671 l 1
 -194 517 l 1
 -301 517 l 1
EndSplineSet
EndChar

StartChar: uni0312
Encoding: 786 786 304
Width: 0
GlyphClass: 4
Flags: W
AnchorPoint: "Anchor-11" -287 688 basemark 0
AnchorPoint: "Anchor-11" -287 456 mark 0
AnchorPoint: "Anchor-7" -287 456 mark 0
AnchorPoint: "Anchor-1" -287 456 mark 0
LayerCount: 2
Fore
SplineSet
-222 688 m 1
 -252 517 l 1
 -352 517 l 1
 -281 688 l 1
 -222 688 l 1
EndSplineSet
EndChar

StartChar: uni0326
Encoding: 806 806 305
Width: 0
GlyphClass: 4
Flags: W
AnchorPoint: "Anchor-10" -293 -216 basemark 0
AnchorPoint: "Anchor-10" -293 0 mark 0
AnchorPoint: "Anchor-5" -293 0 mark 0
AnchorPoint: "Anchor-0" -293 0 mark 0
LayerCount: 2
Fore
SplineSet
-358 -216 m 1
 -328 -45 l 1
 -228 -45 l 1
 -299 -216 l 1
 -358 -216 l 1
EndSplineSet
EndChar

StartChar: uni0327
Encoding: 807 807 306
Width: 0
GlyphClass: 4
Flags: W
AnchorPoint: "Anchor-10" -303 -234 basemark 0
AnchorPoint: "Anchor-10" -311 0 mark 0
AnchorPoint: "Anchor-5" -311 0 mark 0
AnchorPoint: "Anchor-0" -311 0 mark 0
LayerCount: 2
Fore
SplineSet
-354 10 m 1
 -283 10 l 1
 -296 -40 l 1
 -246 -47 -217 -76 -217 -132 c 0
 -217 -194 -276 -234 -353 -234 c 0
 -364 -234 -376 -233 -389 -232 c 1
 -389 -178 l 1
 -378.810546875 -179.372070312 -368.659179688 -180.12890625 -358.922851562 -180.12890625 c 0
 -318.970703125 -180.12890625 -286 -167.377929688 -286 -132 c 0
 -286 -97.2294921875 -316.977539062 -86.7392578125 -364.376953125 -86.7392578125 c 0
 -368.780273438 -86.7392578125 -373.325195312 -86.830078125 -378 -87 c 1
 -354 10 l 1
EndSplineSet
EndChar

StartChar: uni0328
Encoding: 808 808 307
Width: 0
GlyphClass: 4
Flags: W
AnchorPoint: "Anchor-6" -169 10 mark 0
AnchorPoint: "Anchor-3" -169 10 mark 0
LayerCount: 2
Fore
SplineSet
-254 22 m 1
 -193.999023438 22.0009765625 l 1
 -171.999023438 0.0009765625 l 2
 -175.814453125 0.1396484375 -179.509765625 0.2109375 -183.083007812 0.2109375 c 0
 -231.017578125 0.2109375 -257 -12.634765625 -257 -47.9990234375 c 0
 -257 -84.36328125 -229.50390625 -97.60546875 -192.7890625 -97.60546875 c 0
 -183.059570312 -97.60546875 -172.68359375 -96.67578125 -162 -95 c 1
 -161 -171 l 1
 -174 -172 -186 -173 -197 -173 c 0
 -275 -173 -332 -133 -332 -70 c 0
 -332 -16 -308 12 -254 22 c 1
EndSplineSet
EndChar

StartChar: uni0335
Encoding: 821 821 308
Width: 0
GlyphClass: 4
Flags: W
AnchorPoint: "Anchor-8" -306 286 mark 0
AnchorPoint: "Anchor-2" -306 286 mark 0
LayerCount: 2
Fore
SplineSet
-431 323 m 1
 -181 323 l 1
 -181 248 l 1
 -431 248 l 1
 -431 323 l 1
EndSplineSet
EndChar

StartChar: uni0336
Encoding: 822 822 309
Width: 0
GlyphClass: 4
Flags: W
AnchorPoint: "Anchor-8" -306 286 mark 0
AnchorPoint: "Anchor-2" -306 286 mark 0
LayerCount: 2
Fore
SplineSet
-606 323 m 1
 -6 323 l 1
 -6 248 l 1
 -606 248 l 1
 -606 323 l 1
EndSplineSet
EndChar

StartChar: uni0337
Encoding: 823 823 310
Width: 0
GlyphClass: 4
Flags: W
AnchorPoint: "Anchor-8" -316 228 mark 0
AnchorPoint: "Anchor-2" -316 228 mark 0
LayerCount: 2
Fore
SplineSet
-415 64 m 1
 -455 96 l 1
 -218 387 l 1
 -178 354 l 1
 -415 64 l 1
EndSplineSet
EndChar

StartChar: uni0338
Encoding: 824 824 311
Width: 0
GlyphClass: 4
Flags: W
AnchorPoint: "Anchor-8" -264 277 mark 0
AnchorPoint: "Anchor-2" -264 277 mark 0
LayerCount: 2
Fore
SplineSet
-474 -27 m 1
 -519 9 l 1
 -54 581 l 1
 -9 545 l 1
 -474 -27 l 1
EndSplineSet
EndChar

StartChar: Wgrave
Encoding: 7808 7808 312
Width: 820
GlyphClass: 2
Flags: W
AnchorPoint: "Anchor-9" 0 0 basechar 0
AnchorPoint: "Anchor-8" 0 0 basechar 0
AnchorPoint: "Anchor-7" 363 758 basechar 0
AnchorPoint: "Anchor-6" 0 0 basechar 0
AnchorPoint: "Anchor-5" 410 0 basechar 0
LayerCount: 2
Fore
SplineSet
806 553 m 1
 648 0 l 1
 540 0 l 1
 410 414 l 1
 279 0 l 1
 177 0 l 1
 13 553 l 1
 126 553 l 1
 234 148 l 1
 366 553 l 1
 458 553 l 1
 592 140 l 1
 699 553 l 1
 806 553 l 1
381 604 m 1
 253 758 l 1
 381 758 l 1
 473 604 l 1
 381 604 l 1
EndSplineSet
EndChar

StartChar: wgrave
Encoding: 7809 7809 313
Width: 732
GlyphClass: 2
Flags: W
AnchorPoint: "Anchor-9" 0 0 basechar 0
AnchorPoint: "Anchor-8" 0 0 basechar 0
AnchorPoint: "Anchor-7" 310 671 basechar 0
AnchorPoint: "Anchor-6" 0 0 basechar 0
AnchorPoint: "Anchor-5" 366 0 basechar 0
LayerCount: 2
Fore
SplineSet
720 456 m 1
 582 0 l 1
 485 0 l 1
 368 343 l 1
 250 0 l 1
 156 0 l 1
 13 456 l 1
 121 456 l 1
 208 137 l 1
 320 456 l 1
 421 456 l 1
 533 136 l 1
 617 456 l 1
 720 456 l 1
328 517 m 1
 200 671 l 1
 328 671 l 1
 420 517 l 1
 328 517 l 1
EndSplineSet
EndChar

StartChar: Wacute
Encoding: 7810 7810 314
Width: 820
GlyphClass: 2
Flags: W
AnchorPoint: "Anchor-9" 0 0 basechar 0
AnchorPoint: "Anchor-8" 0 0 basechar 0
AnchorPoint: "Anchor-7" 448 758 basechar 0
AnchorPoint: "Anchor-6" 0 0 basechar 0
AnchorPoint: "Anchor-5" 410 0 basechar 0
LayerCount: 2
Fore
SplineSet
806 553 m 1
 648 0 l 1
 540 0 l 1
 410 414 l 1
 279 0 l 1
 177 0 l 1
 13 553 l 1
 126 553 l 1
 234 148 l 1
 366 553 l 1
 458 553 l 1
 592 140 l 1
 699 553 l 1
 806 553 l 1
338 604 m 1
 430 758 l 1
 558 758 l 1
 430 604 l 1
 338 604 l 1
EndSplineSet
EndChar

StartChar: wacute
Encoding: 7811 7811 315
Width: 732
GlyphClass: 2
Flags: W
AnchorPoint: "Anchor-9" 0 0 basechar 0
AnchorPoint: "Anchor-8" 0 0 basechar 0
AnchorPoint: "Anchor-7" 401 671 basechar 0
AnchorPoint: "Anchor-6" 0 0 basechar 0
AnchorPoint: "Anchor-5" 366 0 basechar 0
LayerCount: 2
Fore
SplineSet
720 456 m 1
 582 0 l 1
 485 0 l 1
 368 343 l 1
 250 0 l 1
 156 0 l 1
 13 456 l 1
 121 456 l 1
 208 137 l 1
 320 456 l 1
 421 456 l 1
 533 136 l 1
 617 456 l 1
 720 456 l 1
291 517 m 1
 383 671 l 1
 511 671 l 1
 383 517 l 1
 291 517 l 1
EndSplineSet
EndChar

StartChar: Wdieresis
Encoding: 7812 7812 316
Width: 820
GlyphClass: 2
Flags: W
AnchorPoint: "Anchor-9" 0 0 basechar 0
AnchorPoint: "Anchor-8" 0 0 basechar 0
AnchorPoint: "Anchor-7" 410 860 basechar 0
AnchorPoint: "Anchor-6" 0 0 basechar 0
AnchorPoint: "Anchor-5" 410 0 basechar 0
LayerCount: 2
Fore
SplineSet
806 553 m 1
 648 0 l 1
 540 0 l 1
 410 414 l 1
 279 0 l 1
 177 0 l 1
 13 553 l 1
 126 553 l 1
 234 148 l 1
 366 553 l 1
 458 553 l 1
 592 140 l 1
 699 553 l 1
 806 553 l 1
459 666 m 0
 459 701 487 727 523 727 c 0
 559 727 587 701 587 666 c 0
 587 631 559 604 523 604 c 0
 487 604 459 631 459 666 c 0
233 666 m 0
 233 701 261 727 297 727 c 0
 333 727 361 702 361 666 c 0
 361 630 334 604 297 604 c 0
 261 604 233 631 233 666 c 0
EndSplineSet
EndChar

StartChar: wdieresis
Encoding: 7813 7813 317
Width: 732
GlyphClass: 2
Flags: W
AnchorPoint: "Anchor-9" 0 0 basechar 0
AnchorPoint: "Anchor-8" 0 0 basechar 0
AnchorPoint: "Anchor-7" 366 640 basechar 0
AnchorPoint: "Anchor-6" 0 0 basechar 0
AnchorPoint: "Anchor-5" 366 0 basechar 0
LayerCount: 2
Fore
SplineSet
720 456 m 1
 582 0 l 1
 485 0 l 1
 368 343 l 1
 250 0 l 1
 156 0 l 1
 13 456 l 1
 121 456 l 1
 208 137 l 1
 320 456 l 1
 421 456 l 1
 533 136 l 1
 617 456 l 1
 720 456 l 1
543 579 m 0
 543 543 515 517 479 517 c 0
 440 517 415 546 415 579 c 0
 415 613 442 640 479 640 c 0
 518 640 543 611 543 579 c 0
317 579 m 0
 317 543 290 517 253 517 c 0
 214 517 189 546 189 579 c 0
 189 613 216 640 253 640 c 0
 292 640 317 611 317 579 c 0
EndSplineSet
EndChar

StartChar: Ygrave
Encoding: 7922 7922 318
Width: 590
GlyphClass: 2
Flags: W
AnchorPoint: "Anchor-9" 0 0 basechar 0
AnchorPoint: "Anchor-8" 0 0 basechar 0
AnchorPoint: "Anchor-7" 248 758 basechar 0
AnchorPoint: "Anchor-6" 0 0 basechar 0
AnchorPoint: "Anchor-5" 295 0 basechar 0
LayerCount: 2
Fore
SplineSet
244 208 m 1
 15 553 l 1
 139 553 l 1
 296 297 l 1
 456 553 l 1
 574 553 l 1
 346 210 l 1
 346 0 l 1
 244 0 l 1
 244 208 l 1
266 604 m 1
 138 758 l 1
 266 758 l 1
 358 604 l 1
 266 604 l 1
EndSplineSet
EndChar

StartChar: ygrave
Encoding: 7923 7923 319
Width: 527
GlyphClass: 2
Flags: W
AnchorPoint: "Anchor-9" 0 0 basechar 0
AnchorPoint: "Anchor-8" 0 0 basechar 0
AnchorPoint: "Anchor-7" 208 671 basechar 0
AnchorPoint: "Anchor-6" 0 0 basechar 0
AnchorPoint: "Anchor-5" 264 0 basechar 0
LayerCount: 2
Fore
SplineSet
311 0 m 2
 284 -58 259 -101 235 -129 c 0
 212 -156 179 -170 138 -170 c 0
 117 -170 91 -167 73 -160 c 1
 73 -79 l 1
 94 -85 107 -86 130 -86 c 0
 176 -86 190 -57 217 2 c 1
 13 456 l 1
 123 456 l 1
 266 109 l 1
 410 456 l 1
 515 456 l 1
 311 0 l 2
226 517 m 1
 98 671 l 1
 226 671 l 1
 318 517 l 1
 226 517 l 1
EndSplineSet
EndChar

StartChar: uni2010
Encoding: 8208 8208 320
Width: 400
GlyphClass: 2
Flags: W
LayerCount: 2
Fore
SplineSet
348 305 m 1
 348 223 l 1
 51 223 l 1
 51 305 l 1
 348 305 l 1
EndSplineSet
EndChar

StartChar: uni2011
Encoding: 8209 8209 321
Width: 400
GlyphClass: 2
Flags: W
LayerCount: 2
Fore
SplineSet
348 305 m 1
 348 223 l 1
 51 223 l 1
 51 305 l 1
 348 305 l 1
EndSplineSet
EndChar

StartChar: uni2012
Encoding: 8210 8210 322
Width: 553
GlyphClass: 2
Flags: W
LayerCount: 2
Fore
SplineSet
51 223 m 1
 51 300 l 1
 502 300 l 1
 502 223 l 1
 51 223 l 1
EndSplineSet
EndChar

StartChar: endash
Encoding: 8211 8211 323
Width: 553
GlyphClass: 2
Flags: W
LayerCount: 2
Fore
SplineSet
51 223 m 1
 51 300 l 1
 502 300 l 1
 502 223 l 1
 51 223 l 1
EndSplineSet
EndChar

StartChar: emdash
Encoding: 8212 8212 324
Width: 973
GlyphClass: 2
Flags: W
LayerCount: 2
Fore
SplineSet
51 223 m 1
 51 300 l 1
 922 300 l 1
 922 223 l 1
 51 223 l 1
EndSplineSet
EndChar

StartChar: quoteleft
Encoding: 8216 8216 325
Width: 251
GlyphClass: 2
Flags: W
LayerCount: 2
Fore
SplineSet
205 581 m 1
 164 351 l 1
 46 351 l 1
 60 389 87 466 128 581 c 1
 205 581 l 1
EndSplineSet
EndChar

StartChar: quoteright
Encoding: 8217 8217 326
Width: 246
GlyphClass: 2
Flags: W
LayerCount: 2
Fore
SplineSet
56 348 m 1
 63 387 77 464 97 579 c 1
 215 579 l 1
 202 540 174 463 133 348 c 1
 56 348 l 1
EndSplineSet
EndChar

StartChar: quotesinglbase
Encoding: 8218 8218 327
Width: 246
GlyphClass: 2
Flags: W
LayerCount: 2
Fore
SplineSet
41 -108 m 1
 82 123 l 1
 200 123 l 1
 118 -108 l 1
 41 -108 l 1
EndSplineSet
EndChar

StartChar: quotedblleft
Encoding: 8220 8220 328
Width: 430
GlyphClass: 2
Flags: W
LayerCount: 2
Fore
SplineSet
384 579 m 1
 343 348 l 1
 225 348 l 1
 307 579 l 1
 384 579 l 1
205 579 m 1
 164 348 l 1
 46 348 l 1
 128 579 l 1
 205 579 l 1
EndSplineSet
EndChar

StartChar: quotedblright
Encoding: 8221 8221 329
Width: 425
GlyphClass: 2
Flags: W
LayerCount: 2
Fore
SplineSet
236 348 m 1
 276 579 l 1
 394 579 l 1
 381 540 353 463 312 348 c 1
 236 348 l 1
56 348 m 1
 63 387 77 464 97 579 c 1
 215 579 l 1
 202 540 174 463 133 348 c 1
 56 348 l 1
EndSplineSet
EndChar

StartChar: quotedblbase
Encoding: 8222 8222 330
Width: 430
GlyphClass: 2
Flags: W
LayerCount: 2
Fore
SplineSet
225 -108 m 1
 232 -69 246 8 266 123 c 1
 384 123 l 1
 371 84 343 7 302 -108 c 1
 225 -108 l 1
46 -108 m 1
 87 123 l 1
 205 123 l 1
 123 -108 l 1
 46 -108 l 1
EndSplineSet
EndChar

StartChar: dagger
Encoding: 8224 8224 331
Width: 517
GlyphClass: 2
Flags: W
LayerCount: 2
Fore
SplineSet
212 330 m 1
 41 330 l 1
 41 407 l 1
 212 407 l 1
 212 553 l 1
 305 553 l 1
 305 407 l 1
 476 407 l 1
 476 330 l 1
 305 330 l 1
 305 0 l 1
 212 0 l 1
 212 330 l 1
EndSplineSet
EndChar

